<svg xmlns="http://www.w3.org/2000/svg" viewBox="-49 141 512 512" width="16" height="16" aria-hidden="true" class="$w-[1em] $h-[1em] $fill-current $text-base"><path d="m405.678 227.322-69-69A25 25 0 0 0 319 151H166c-35.841 0-65 29.159-65 65v35H66c-35.841 0-65 29.159-65 65v262c0 35.841 29.159 65 65 65h182c35.841 0 65-29.159 65-65v-35h35c35.841 0 65-29.159 65-65V245a25 25 0 0 0-7.322-17.678M263 578c0 8.271-6.729 15-15 15H66c-8.271 0-15-6.729-15-15V316c0-8.271 6.729-15 15-15h35v177c0 35.841 29.159 65 65 65h97zm85-85H166c-8.271 0-15-6.729-15-15V216c0-8.271 6.729-15 15-15h128v44c0 13.808 11.192 25 25 25h44v208c0 8.271-6.729 15-15 15"></path></svg>