<svg xmlns="http://www.w3.org/2000/svg" data-name="Capa 1" viewBox="0 0 23.99 24.38" width="16" height="16" aria-hidden="true" class="$w-[1em] $h-[1em] $fill-current $text-base"><path d="M22.82 14.89c-.65 0-1.17.52-1.17 1.17v4.33c0 .9-.74 1.64-1.64 1.64H3.98c-.44 0-.85-.17-1.16-.48s-.48-.72-.48-1.16l.02-16.03c0-.9.74-1.64 1.64-1.64h4.21c.65 0 1.17-.52 1.17-1.17S8.86.38 8.21.38H4C1.8.38.02 2.16.02 4.36L0 20.39c0 1.07.41 2.07 1.17 2.82.75.75 1.75 1.17 2.82 1.17h16.02c2.2 0 3.98-1.79 3.98-3.98v-4.33c0-.65-.52-1.17-1.17-1.17Z"></path><path d="M5.03 19.16c-.45 0-.7-.5-.4-.82l3.38-3.69c.22-.24.63-.23.83.03l1.66 2.1 3.6-3.93c.31-.34.88-.32 1.16.04l4.09 5.17c.36.46.01 1.11-.6 1.11H5.03ZM23.67 10.84l-2.1-2.1c1.63-2.46 1.07-5.81-1.32-7.61a5.61 5.61 0 0 0-7.88 1.14 5.55 5.55 0 0 0-1.06 4.17c.21 1.48.99 2.8 2.2 3.7a5.68 5.68 0 0 0 6.47.19l2.1 2.1c.22.21.5.32.79.32s.58-.11.8-.32c.43-.44.43-1.15 0-1.59m-3.04-5.19c0 2.06-1.68 3.74-3.74 3.74a3.74 3.74 0 0 1 0-7.48c2.06 0 3.74 1.68 3.74 3.74"></path></svg>