<svg width="340" height="100" viewBox="0 0 340 100" fill="none" xmlns="http://www.w3.org/2000/svg">
<rect x="0.5" y="0.5" width="339" height="99" rx="4.5" stroke="#9747FF" stroke-dasharray="10 5"/>
<rect width="130" height="60" transform="translate(20 20)" fill="white"/>
<path d="M60.5188 47.9056C59.6995 47.9137 58.8917 48.0998 58.1517 48.4507V42.7271C57.2075 43.0853 56.3187 43.5747 55.5115 44.1807C55.3347 44.3217 55.1934 44.5019 55.0986 44.7069C55.0037 44.9119 54.9581 45.1361 54.9652 45.3618V59.353C56.3155 59.7983 57.7313 60.0133 59.1531 59.989C63.3411 59.989 65.7082 57.4451 65.7082 53.811C65.7082 50.1769 64.0694 47.9056 60.5188 47.9056ZM59.3352 57.4451C58.9324 57.467 58.5293 57.4051 58.1517 57.2634V50.9038C58.73 50.6683 59.348 50.545 59.9725 50.5403C61.6113 50.5403 62.4307 51.6306 62.4307 53.7202C62.4307 55.8098 61.4292 57.4451 59.3352 57.4451ZM39.5791 53.9019L38.3045 54.6287C38.1224 54.7195 38.1224 54.8104 38.1224 54.9921V59.6256C38.1224 59.8073 38.2135 59.8981 38.3045 59.8981H39.5791V53.9019ZM73.8109 47.9965C73.1863 47.9886 72.5693 48.1336 72.0139 48.4186C71.4584 48.7037 70.9813 49.1203 70.6245 49.6318C70.5355 49.1398 70.4139 48.6541 70.2603 48.1782L68.9857 47.9965L67.7111 48.1782V59.7164C68.2101 59.8775 68.736 59.9392 69.2588 59.8981L70.8976 59.7164V54.0836C70.8976 51.8123 72.0811 50.6312 73.6288 50.6312H74.7214C74.8574 49.7887 74.8574 48.9299 74.7214 48.0873L73.8109 47.9965ZM41.9462 52.5391L40.3074 53.4476H40.2164V59.7164H42.0372C42.1338 59.7164 42.2264 59.6781 42.2947 59.61C42.363 59.5418 42.4014 59.4494 42.4014 59.353V52.8116C42.4196 52.7533 42.4177 52.6905 42.3959 52.6334C42.3741 52.5763 42.3337 52.5282 42.2812 52.4967C42.2287 52.4653 42.1671 52.4524 42.1063 52.4601C42.0456 52.4677 41.9892 52.4956 41.9462 52.5391ZM39.397 43.4539C38.053 43.4436 36.7113 43.5653 35.3912 43.8173C36.0978 42.9005 37.0087 42.1605 38.0516 41.6558C39.0946 41.1512 40.241 40.8959 41.3999 40.91C43.1728 40.91 44.8979 41.4839 46.3162 42.5454C46.4983 42.7271 46.6804 42.8179 46.8625 42.6362C46.9012 42.6021 46.9322 42.5602 46.9535 42.5132C46.9748 42.4662 46.9858 42.4152 46.9858 42.3637C46.9858 42.3121 46.9748 42.2611 46.9535 42.2141C46.9322 42.1672 46.9012 42.1252 46.8625 42.0911C46.0479 41.1 45.018 40.3068 43.8507 39.7716C42.6835 39.2364 41.4096 38.9733 40.1253 39.0021C38.402 39.0332 36.7273 39.5773 35.316 40.5648C33.9047 41.5522 32.8213 42.9379 32.2047 44.5441L29.2913 45.7252C29.0486 45.9069 28.9575 46.0886 29.0182 46.2703C29.0366 46.3226 29.0668 46.3701 29.1064 46.409C29.146 46.4479 29.194 46.4773 29.2467 46.4948C29.2994 46.5123 29.3555 46.5176 29.4106 46.5102C29.4656 46.5028 29.5183 46.4829 29.5645 46.452C30.3094 46.2173 31.07 46.0351 31.8405 45.9069C31.7612 46.326 31.7307 46.7528 31.7495 47.1788C31.7249 48.6232 32.0719 50.0498 32.7573 51.3222C33.4427 52.5947 34.4435 53.6705 35.6643 54.447C35.8464 54.5378 36.1195 54.5378 36.2105 54.3561C36.3016 54.1744 36.3016 53.9927 36.1195 53.811C35.3578 53.1237 34.7525 52.2816 34.3442 51.3413C33.9359 50.4011 33.7341 49.3845 33.7524 48.3599C33.7242 47.3826 33.9433 46.4139 34.3897 45.5435L36.9389 45.3618C43.1297 45.3618 48.4102 47.4514 48.4102 50.0861C48.4102 52.7208 46.6804 52.8116 44.5864 53.7202C44.1312 53.9019 44.1312 54.0836 44.1312 54.2653C44.1312 54.447 44.4043 54.5378 44.6775 54.447C48.3191 53.3568 50.9594 51.358 50.9594 49.0867C50.9594 46.8154 45.861 43.4539 39.397 43.4539ZM93.9312 45.3618V48.0873L92.2925 47.9056C88.7418 47.9056 86.3747 50.2678 86.3747 54.0836C86.3747 57.8994 88.6508 59.989 92.2925 59.989C93.9314 60.0358 95.5656 59.7896 97.1177 59.2621V42.7271C96.1735 43.0853 95.2847 43.5747 94.4775 44.1807C94.2883 44.3103 94.1378 44.4884 94.0416 44.6963C93.9455 44.9042 93.9073 45.1341 93.9312 45.3618ZM93.9312 57.2634C93.4913 57.408 93.0282 57.4696 92.5656 57.4451C90.4716 57.4451 89.6523 56.0823 89.6523 54.0836C89.6523 52.0848 90.4716 50.4495 92.5656 50.4495L93.9312 50.6312V57.2634ZM126.524 57.4451C124.977 57.4451 123.884 56.1732 123.884 53.9927C123.884 51.8123 124.795 50.5403 126.524 50.5403C127.24 50.5211 127.952 50.6447 128.618 50.9038C128.813 50.104 129.186 49.3585 129.711 48.7233C128.623 48.1348 127.396 47.8522 126.16 47.9056C122.609 47.9056 120.607 50.3586 120.607 53.9927C120.607 57.6268 122.701 59.989 126.251 59.989C127.477 60.0491 128.699 59.7991 129.802 59.2621C129.267 58.5722 128.837 57.8067 128.527 56.9908C127.906 57.3023 127.219 57.4582 126.524 57.4451ZM79.7287 47.9056C78.5648 47.882 77.4025 48.0041 76.2691 48.269C76.0867 49.1072 76.0867 49.9747 76.2691 50.8129C77.2159 50.5442 78.1984 50.4216 79.1824 50.4495C80.8212 50.4495 81.6405 51.0855 81.6405 52.4482V52.6299L80.0928 52.4482C77.4526 52.4482 75.0855 53.4476 75.0855 56.0823C75.0855 58.717 77.1795 59.989 80.2749 59.989C81.7521 59.9556 83.2197 59.742 84.6449 59.353V52.7208C84.6449 49.541 82.9151 47.9965 79.7287 47.9056ZM81.6405 57.4451H80.2749C78.8182 57.4451 77.9989 56.9908 77.9989 55.9915C77.9989 54.9921 78.8182 54.5378 80.2749 54.5378H81.6405V57.4451ZM135.446 47.9056C131.896 47.9056 129.893 50.3586 129.893 53.9927C129.893 57.6268 131.987 59.989 135.446 59.989C138.906 59.989 141 57.6268 141 53.9927C141 50.3586 138.997 47.9056 135.446 47.9056ZM135.446 57.4451C133.626 57.4451 133.17 55.9915 133.17 53.9927C133.17 51.994 133.626 50.4495 135.446 50.4495C137.267 50.4495 137.814 51.9031 137.814 53.9927C137.814 56.0823 137.176 57.4451 135.446 57.4451ZM104.401 47.9056C101.033 47.9056 98.9386 50.1769 98.9386 53.9927C98.9386 57.8085 101.124 59.989 104.947 59.989C106.192 60.0304 107.432 59.8138 108.589 59.353C108.77 58.5453 108.77 57.7077 108.589 56.9C107.531 57.2502 106.426 57.4341 105.311 57.4451C103.491 57.4451 102.307 56.7183 102.034 54.9012H109.226C109.337 54.3628 109.398 53.8154 109.408 53.2659C109.408 49.8135 107.405 47.9056 104.401 47.9056ZM102.034 52.5391C102.046 52.2407 102.116 51.9476 102.242 51.6765C102.367 51.4054 102.545 51.1616 102.764 50.9591C102.984 50.7566 103.242 50.5993 103.523 50.4963C103.804 50.3932 104.102 50.3465 104.401 50.3586C105.858 50.3586 106.404 51.2672 106.404 52.5391H102.034ZM116.692 52.9025L115.326 52.3574C114.598 51.994 114.234 51.8123 114.234 51.2672C114.234 50.7221 114.871 50.3586 115.69 50.3586C116.714 50.386 117.727 50.5699 118.695 50.9038C118.877 50.1269 118.877 49.3185 118.695 48.5416C117.608 48.061 116.422 47.8431 115.235 47.9056C112.777 47.9056 110.956 49.1776 110.956 51.1763C110.956 53.1751 111.684 53.9019 113.869 54.8104L114.871 55.1738C115.781 55.5372 116.054 55.8098 116.054 56.4457C116.054 57.0817 115.144 57.4451 114.416 57.4451C113.232 57.4619 112.056 57.2458 110.956 56.8091C110.686 57.6045 110.686 58.4668 110.956 59.2621C112.186 59.8082 113.527 60.0572 114.871 59.989C117.329 59.989 119.332 58.717 119.332 56.4457C119.332 54.1744 118.513 53.6293 116.692 52.9025Z" fill="#E5173F"/>
<rect width="60" height="60" transform="translate(175 20)" fill="white"/>
<path d="M203.643 59.0883L200.915 60.6533C200.525 60.849 200.525 61.0446 200.525 61.4359V71.4131C200.525 71.8044 200.72 72 200.915 72H203.643V59.0883ZM208.709 56.1538L205.201 58.1101H205.007V71.6087H208.904C209.111 71.6087 209.309 71.5263 209.455 71.3795C209.601 71.2328 209.683 71.0337 209.683 70.8262V56.7407C209.722 56.6151 209.718 56.4799 209.671 56.3569C209.625 56.234 209.538 56.1303 209.426 56.0626C209.314 55.9949 209.182 55.9671 209.052 55.9836C208.922 56.0002 208.801 56.0601 208.709 56.1538ZM203.253 36.5906C200.376 36.5684 197.505 36.8305 194.679 37.3731C196.192 35.3989 198.141 33.8054 200.373 32.7188C202.606 31.6323 205.059 31.0824 207.54 31.1129C211.334 31.1129 215.027 32.3485 218.062 34.6343C218.452 35.0255 218.842 35.2212 219.231 34.8299C219.314 34.7565 219.381 34.6661 219.426 34.565C219.472 34.4638 219.495 34.354 219.495 34.243C219.495 34.132 219.472 34.0222 219.426 33.921C219.381 33.8198 219.314 33.7295 219.231 33.6561C217.488 31.5219 215.284 29.8139 212.785 28.6615C210.287 27.5091 207.56 26.9425 204.812 27.0046C201.123 27.0714 197.539 28.2431 194.518 30.3694C191.498 32.4957 189.179 35.4795 187.859 38.9382L181.624 41.4814C181.104 41.8726 180.909 42.2639 181.039 42.6552C181.078 42.7679 181.143 42.87 181.228 42.9538C181.312 43.0376 181.415 43.1008 181.528 43.1386C181.641 43.1763 181.761 43.1877 181.879 43.1717C181.997 43.1557 182.109 43.1129 182.208 43.0464C183.803 42.541 185.43 42.1488 187.08 41.8726C186.91 42.775 186.845 43.6941 186.885 44.6115C186.832 47.7217 187.575 50.7936 189.042 53.5335C190.509 56.2735 192.651 58.5901 195.264 60.2621C195.653 60.4577 196.238 60.4577 196.433 60.0664C196.628 59.6752 196.628 59.2839 196.238 58.8926C194.608 57.4126 193.312 55.5993 192.438 53.5747C191.564 51.55 191.133 49.3609 191.172 47.1547C191.111 45.0502 191.58 42.9644 192.536 41.0901L197.992 40.6989C211.242 40.6989 222.544 45.1984 222.544 50.8717C222.544 56.5451 218.842 56.7407 214.36 58.697C213.386 59.0883 213.386 59.4795 213.386 59.8708C213.386 60.2621 213.97 60.4577 214.555 60.2621C222.349 57.9145 228 53.6106 228 48.7198C228 43.829 217.088 36.5906 203.253 36.5906Z" fill="#E5173F"/>
<rect width="60" height="60" transform="translate(260 20)" fill="url(#paint0_linear_42_81)"/>
<path d="M288.643 59.0883L285.915 60.6533C285.525 60.849 285.525 61.0446 285.525 61.4359V71.4131C285.525 71.8044 285.72 72 285.915 72H288.643V59.0883ZM293.709 56.1538L290.201 58.1101H290.007V71.6087H293.904C294.111 71.6087 294.309 71.5263 294.455 71.3795C294.601 71.2328 294.683 71.0337 294.683 70.8262V56.7407C294.722 56.6151 294.718 56.4799 294.671 56.3569C294.625 56.234 294.538 56.1303 294.426 56.0626C294.314 55.9949 294.182 55.9671 294.052 55.9836C293.922 56.0002 293.801 56.0601 293.709 56.1538ZM288.253 36.5906C285.376 36.5684 282.505 36.8305 279.679 37.3731C281.192 35.3989 283.141 33.8054 285.373 32.7188C287.606 31.6323 290.059 31.0824 292.54 31.1129C296.334 31.1129 300.027 32.3485 303.062 34.6343C303.452 35.0255 303.842 35.2212 304.231 34.8299C304.314 34.7565 304.381 34.6661 304.426 34.565C304.472 34.4638 304.495 34.354 304.495 34.243C304.495 34.132 304.472 34.0222 304.426 33.921C304.381 33.8198 304.314 33.7295 304.231 33.6561C302.488 31.5219 300.284 29.8139 297.785 28.6615C295.287 27.5091 292.56 26.9425 289.812 27.0046C286.123 27.0714 282.539 28.2431 279.518 30.3694C276.498 32.4957 274.179 35.4795 272.859 38.9382L266.624 41.4814C266.104 41.8726 265.909 42.2639 266.039 42.6552C266.078 42.7679 266.143 42.87 266.228 42.9538C266.312 43.0376 266.415 43.1008 266.528 43.1386C266.641 43.1763 266.761 43.1877 266.879 43.1717C266.997 43.1557 267.109 43.1129 267.208 43.0464C268.803 42.541 270.43 42.1488 272.08 41.8726C271.91 42.775 271.845 43.6941 271.885 44.6115C271.832 47.7217 272.575 50.7936 274.042 53.5335C275.509 56.2735 277.651 58.5901 280.264 60.2621C280.653 60.4577 281.238 60.4577 281.433 60.0664C281.628 59.6752 281.628 59.2839 281.238 58.8926C279.608 57.4126 278.312 55.5993 277.438 53.5747C276.564 51.55 276.133 49.3609 276.172 47.1547C276.111 45.0502 276.58 42.9644 277.536 41.0901L282.992 40.6989C296.242 40.6989 307.544 45.1984 307.544 50.8717C307.544 56.5451 303.842 56.7407 299.36 58.697C298.386 59.0883 298.386 59.4795 298.386 59.8708C298.386 60.2621 298.97 60.4577 299.555 60.2621C307.349 57.9145 313 53.6106 313 48.7198C313 43.829 302.088 36.5906 288.253 36.5906Z" fill="white"/>
<defs>
<linearGradient id="paint0_linear_42_81" x1="0" y1="30" x2="60" y2="30" gradientUnits="userSpaceOnUse">
<stop stop-color="#CC092F"/>
<stop offset="0.4" stop-color="#CC092F"/>
<stop offset="0.9" stop-color="#B81570"/>
<stop offset="1" stop-color="#B81570"/>
</linearGradient>
</defs>
</svg>
