<svg width="340" height="100" viewBox="0 0 340 100" fill="none" xmlns="http://www.w3.org/2000/svg">
<rect x="0.5" y="0.5" width="339" height="99" rx="4.5" stroke="#9747FF" stroke-dasharray="10 5"/>
<rect width="130" height="60" transform="translate(20 20)" fill="white"/>
<path fill-rule="evenodd" clip-rule="evenodd" d="M128.101 46.9853H125.659L125.456 47.8771H128.101C130.521 47.8771 131.337 48.5327 131.337 50.4754V51.4158C130.737 50.8042 129.676 50.4942 128.177 50.4942C125.785 50.4942 124.623 51.5265 124.623 53.6496V53.8041C124.623 55.7947 125.768 56.8042 128.025 56.8042H128.633C131.025 56.8042 132.238 55.7947 132.238 53.8041V50.4754C132.238 47.9964 131.039 46.9853 128.101 46.9853ZM131.337 53.9328C131.337 55.3574 130.572 55.9125 128.608 55.9125H128.228C126.333 55.9125 125.524 55.2816 125.524 53.8041V53.6496C125.524 52.0446 126.295 51.3603 128.101 51.3603H128.253C130.415 51.3603 131.337 52.0216 131.337 53.5721V53.9328ZM65.3842 48.7349L65.8646 46.3527H61.729V43.0985L58.8259 43.5449V53.265C58.8259 56.6254 60.1205 57.6253 63.6503 57.6253H65.1957L65.6764 55.2641H63.8591C62.2511 55.2641 61.7287 54.8606 61.7287 53.0735V48.7349H65.3842ZM45.4379 41.9708V52.4145C45.4379 56.2856 47.1921 57.902 51.0144 57.902C54.9827 57.902 56.7372 56.3282 56.7372 52.4355V51.4361C56.7372 47.7778 55.1079 45.9909 51.5575 45.9909C50.4294 45.9909 49.1971 46.2248 48.3616 46.884V41.5029L45.4379 41.9708ZM51.1187 48.3303C53.1237 48.3303 53.8341 49.1388 53.8341 51.542V52.4355C53.8341 54.7749 53.1237 55.5836 51.077 55.5836C49.0303 55.5836 48.3196 54.7749 48.3196 52.4143V51.202C48.3196 49.0536 49.0303 48.3303 51.1187 48.3303ZM72.4018 45.9909C68.5795 45.9909 66.825 47.6286 66.825 51.372V51.9463C66.825 55.4982 68.3498 57.221 71.942 57.221C73.0908 57.221 74.2397 57.0087 75.0541 56.349V56.7748C75.0541 58.7743 74.198 59.433 72.1927 59.433H70.9922C70.306 59.4454 69.9942 59.5695 69.5806 60.2599L69.5783 60.2589C66.1345 65.8092 60.1556 69.1999 53.6398 69.1999C43.2434 69.1999 34.7857 60.5872 34.7857 49.9999C34.7857 39.4128 43.2434 30.8001 53.6398 30.8001C60.9423 30.8001 67.5855 35.1067 70.6936 41.8087H71.5599C68.3923 34.6322 61.3701 30 53.6398 30C42.8105 30 34 38.972 34 49.9999C34 61.028 42.8105 70 53.6398 70C60.0086 70 65.886 66.8904 69.5501 61.73H72.3598C76.0568 61.73 77.9575 60.3052 77.9575 56.6682V51.1807C77.9575 47.5647 76.1404 45.9909 72.4018 45.9909ZM75.0752 52.3079C75.0752 54.3073 74.386 54.9239 72.4021 54.9239C70.1669 54.9239 69.7284 54.137 69.7284 51.8189V51.4574C69.7284 49.1598 70.1252 48.3303 72.4018 48.3303C74.6365 48.3303 75.0752 49.1388 75.0752 51.4784V52.3079ZM134.099 56.8042H135V43.2958H134.099V56.8042H134.099ZM113.796 47.8773L113.998 46.9853H109.968V44.4351L109.042 44.6036V53.3397C109.042 55.8276 109.957 56.7528 112.418 56.7528H113.749L113.918 55.861H112.418C110.563 55.861 109.968 55.2611 109.968 53.3909V47.8776H113.797L113.796 47.8773ZM122.14 52.927C122.14 55.2261 121.434 55.9639 119.234 55.9639C117.098 55.9639 116.378 55.1978 116.378 52.927V46.9853H115.451V52.927C115.451 55.7544 116.512 56.8557 119.233 56.8557C121.938 56.8557 123.041 55.7179 123.041 52.927V46.9853H122.14V52.927ZM101.759 52.282V51.4561C101.759 48.8137 102.645 47.8773 105.147 47.8773H107.26L107.462 46.9853H105.147C102.164 46.9853 100.832 48.364 100.832 51.4559V52.282C100.832 55.3738 102.163 56.7528 105.147 56.7528H107.285L107.487 55.861H105.147C102.709 55.861 101.759 54.8575 101.759 52.282H101.759ZM95.0886 46.9853H92.6459L92.4442 47.8771H95.0886C97.4892 47.8771 98.299 48.5327 98.299 50.4754V51.4158C97.6995 50.8042 96.6386 50.4942 95.139 50.4942C92.7477 50.4942 91.585 51.5265 91.585 53.6496V53.8041C91.585 55.7947 92.738 56.8042 95.0123 56.8042H95.6205C97.9961 56.8042 99.2004 55.7947 99.2004 53.8041V50.4754C99.2004 47.9964 98.009 46.9853 95.0886 46.9853ZM98.299 53.9328C98.299 55.3761 97.5662 55.9125 95.5953 55.9125H95.2153C93.3026 55.9125 92.4862 55.2816 92.4862 53.8041V53.6496C92.4862 52.0446 93.2569 51.3603 95.0632 51.3603H95.2153C97.3767 51.3603 98.299 52.0216 98.299 53.5721V53.9328ZM86.0182 46.8305C83.1614 46.8305 81.8306 48.2677 81.8306 51.3527V59.7456H82.7318V55.4359C83.3839 56.2991 84.5997 56.8042 86.0688 56.8042C88.9126 56.8042 90.1808 55.4093 90.1808 52.282V51.3272C90.1808 48.2173 88.8969 46.8305 86.0182 46.8305ZM89.254 52.2818C89.254 54.9285 88.391 55.9122 86.0688 55.9122C83.8713 55.9122 82.757 54.821 82.757 52.6686V51.3527C82.757 48.7737 83.7019 47.722 86.0182 47.722C88.3467 47.722 89.254 48.7326 89.254 51.3272V52.2818Z" fill="#001E61"/>
<rect width="60" height="60" transform="translate(175 20)" fill="white"/>
<path fill-rule="evenodd" clip-rule="evenodd" d="M215.27 48.6084L215.795 45.988H211.279V42.4083L208.109 42.8994V53.5915C208.109 57.2879 209.523 58.3879 213.377 58.3879H215.065L215.59 55.7906H213.605C211.849 55.7906 211.279 55.3466 211.279 53.3808V48.6084H215.27ZM193.49 41.1679V52.656C193.49 56.9142 195.405 58.6922 199.579 58.6922C203.912 58.6922 205.828 56.961 205.828 52.6791V51.5797C205.828 47.5556 204.049 45.59 200.172 45.59C198.94 45.59 197.595 45.8472 196.682 46.5724V40.6532L193.49 41.1679ZM199.693 48.1634C201.882 48.1634 202.658 49.0526 202.658 51.6962V52.6791C202.658 55.2524 201.882 56.142 199.647 56.142C197.413 56.142 196.637 55.2524 196.637 52.6557V51.3222C196.637 48.959 197.413 48.1634 199.693 48.1634ZM222.933 45.59C218.76 45.59 216.844 47.3914 216.844 51.5092V52.141C216.844 56.0481 218.509 57.9431 222.431 57.9431C223.686 57.9431 224.94 57.7096 225.83 56.9839V57.4523C225.83 59.6517 224.895 60.3762 222.705 60.3762H221.394C220.645 60.3899 220.304 60.5265 219.853 61.2859L219.85 61.2847C216.09 67.3901 209.561 71.1199 202.446 71.1199C191.093 71.1199 181.858 61.6459 181.858 49.9999C181.858 38.3541 191.093 28.8801 202.446 28.8801C210.42 28.8801 217.674 33.6174 221.068 40.9896H222.014C218.555 33.0954 210.887 28 202.446 28C190.621 28 181 37.8692 181 49.9999C181 62.1308 190.621 72 202.446 72C209.4 72 215.818 68.5795 219.819 62.903H222.888C226.924 62.903 229 61.3357 229 57.335V51.2988C229 47.3212 227.016 45.59 222.933 45.59ZM225.853 52.5386C225.853 54.738 225.1 55.4163 222.934 55.4163C220.493 55.4163 220.014 54.5507 220.014 52.0008V51.6031C220.014 49.0758 220.447 48.1634 222.933 48.1634C225.374 48.1634 225.853 49.0526 225.853 51.6262V52.5386Z" fill="#001E61"/>
<rect width="60" height="60" transform="translate(260 20)" fill="#001E61"/>
<path fill-rule="evenodd" clip-rule="evenodd" d="M300.27 48.6084L300.795 45.988H296.279V42.4083L293.109 42.8994V53.5915C293.109 57.2879 294.523 58.3879 298.377 58.3879H300.065L300.59 55.7906H298.605C296.849 55.7906 296.279 55.3466 296.279 53.3808V48.6084H300.27ZM278.49 41.1679V52.656C278.49 56.9142 280.405 58.6922 284.579 58.6922C288.912 58.6922 290.828 56.961 290.828 52.6791V51.5797C290.828 47.5556 289.049 45.59 285.172 45.59C283.94 45.59 282.595 45.8472 281.682 46.5724V40.6532L278.49 41.1679ZM284.693 48.1634C286.882 48.1634 287.658 49.0526 287.658 51.6962V52.6791C287.658 55.2524 286.882 56.142 284.647 56.142C282.413 56.142 281.637 55.2524 281.637 52.6557V51.3222C281.637 48.959 282.413 48.1634 284.693 48.1634ZM307.933 45.59C303.76 45.59 301.844 47.3914 301.844 51.5092V52.141C301.844 56.0481 303.509 57.9431 307.431 57.9431C308.686 57.9431 309.94 57.7096 310.83 56.9839V57.4523C310.83 59.6517 309.895 60.3762 307.705 60.3762H306.394C305.645 60.3899 305.304 60.5265 304.853 61.2859L304.85 61.2847C301.09 67.3901 294.561 71.1199 287.446 71.1199C276.093 71.1199 266.858 61.6459 266.858 49.9999C266.858 38.3541 276.093 28.8801 287.446 28.8801C295.42 28.8801 302.674 33.6174 306.068 40.9896H307.014C303.555 33.0954 295.887 28 287.446 28C275.621 28 266 37.8692 266 49.9999C266 62.1308 275.621 72 287.446 72C294.4 72 300.818 68.5795 304.819 62.903H307.888C311.924 62.903 314 61.3357 314 57.335V51.2988C314 47.3212 312.016 45.59 307.933 45.59ZM310.853 52.5386C310.853 54.738 310.1 55.4163 307.934 55.4163C305.493 55.4163 305.014 54.5507 305.014 52.0008V51.6031C305.014 49.0758 305.447 48.1634 307.933 48.1634C310.374 48.1634 310.853 49.0526 310.853 51.6262V52.5386Z" fill="white"/>
</svg>
