<svg width="185" height="100" viewBox="0 0 185 100" fill="none" xmlns="http://www.w3.org/2000/svg">
<rect x="0.5" y="0.5" width="184" height="99" rx="4.5" stroke="#9747FF" stroke-dasharray="10 5"/>
<rect width="60" height="60" transform="translate(20 20)" fill="white"/>
<path d="M46.869 26.0303C45.4872 26.0632 44.4735 26.1118 42.6152 26.2264C41.7557 26.2777 40.8174 26.3532 40.1567 26.4193C39.9909 26.4373 39.6439 26.4706 39.3875 26.4948C38.3106 26.6005 36.7117 26.8023 36.0391 26.917C35.8971 26.9412 35.689 26.9745 35.5716 26.9925C35.4569 27.0078 35.2516 27.0437 35.1189 27.0681C34.9863 27.0923 34.763 27.1346 34.6214 27.1584C34.1233 27.2429 33.2759 27.415 32.7963 27.5297C32.6633 27.563 32.425 27.6201 32.2682 27.6565C32.1112 27.6925 31.9697 27.7257 31.9517 27.7288C31.0674 27.9398 30.1896 28.3655 29.514 28.9175C28.8562 29.4516 28.2682 30.3144 27.9725 31.1712C27.9244 31.3039 27.8758 31.4397 27.861 31.4729C27.8097 31.5876 27.5864 32.5528 27.4264 33.3436C27.4025 33.4762 27.3603 33.6722 27.336 33.781C27.3117 33.8894 27.2789 34.0795 27.2577 34.2032C27.2394 34.3268 27.2154 34.4779 27.2002 34.535C27.1548 34.7072 26.971 35.8837 26.8532 36.7375C26.7386 37.5642 26.6631 38.1648 26.597 38.774C26.5637 39.0725 26.5305 39.3652 26.5246 39.4227C26.5156 39.4798 26.4882 39.7726 26.4612 40.0715C26.4369 40.37 26.401 40.7351 26.3826 40.8861C26.3192 41.4409 26.1622 43.8578 26.0841 45.5625C26.0238 46.8263 25.9847 49.5328 26.0058 51.0082C26.0269 52.8484 26.0719 54.4929 26.1142 55.0661C26.1295 55.2981 26.1595 55.7873 26.1775 56.1523C26.1956 56.5173 26.2198 56.9848 26.235 57.193C26.3043 58.2369 26.3587 58.9216 26.3857 59.1388C26.401 59.2718 26.4369 59.6248 26.4612 59.9202C26.4854 60.216 26.5215 60.5689 26.5367 60.7047C26.5547 60.8405 26.588 61.1331 26.6118 61.3565C26.6873 62.0714 26.7448 62.539 26.793 62.85C26.8172 63.0159 26.8595 63.2995 26.8833 63.4834C26.971 64.147 27.0734 64.7926 27.185 65.3843C27.2092 65.5169 27.2484 65.7403 27.2757 65.882C27.327 66.1836 27.4447 66.7842 27.5292 67.1641C27.8187 68.4949 27.9455 68.8927 28.2863 69.5477C28.3797 69.7285 28.5003 69.9398 28.5547 70.0153C28.6059 70.0908 28.6814 70.1992 28.7205 70.2567C28.8926 70.513 29.3845 71.0138 29.656 71.2071C29.7009 71.24 29.7886 71.3033 29.8457 71.3488C29.9064 71.3969 29.9634 71.4332 29.9787 71.4332C29.9908 71.4332 30.0209 71.4544 30.0448 71.4787C30.1625 71.5933 30.9923 71.9885 31.348 72.0941C31.4145 72.1152 31.4959 72.1422 31.5291 72.1575C31.6078 72.1936 32.0509 72.3051 32.585 72.426C32.8174 72.4804 33.0557 72.5374 33.1129 72.5527C33.2517 72.5887 34.1264 72.7636 34.7872 72.8845C35.1671 72.9537 35.9065 73.0715 36.3708 73.138C36.5458 73.1619 36.7691 73.1951 36.8686 73.2132C37.2336 73.2766 38.7421 73.4519 39.6892 73.5422C40.03 73.5755 40.4494 73.6146 40.6242 73.6325C40.9079 73.6627 41.1974 73.6869 42.585 73.7864C42.7932 73.8016 43.267 73.8287 43.641 73.847C44.015 73.865 44.5369 73.8921 44.8025 73.9073C46.9503 74.0309 53.0922 74.0309 55.2098 73.9073C55.4754 73.8893 55.9973 73.865 56.3714 73.847C57.0138 73.8169 57.2493 73.8016 58.2567 73.7261C59.5477 73.6267 61.4456 73.4424 62.088 73.3521C62.2718 73.325 62.5887 73.2828 62.7968 73.2554C63.566 73.1561 64.6219 72.996 65.2252 72.8845C65.886 72.7636 66.7607 72.5887 66.8996 72.5527C66.9567 72.5374 67.195 72.4804 67.4274 72.426C67.9492 72.3082 68.4019 72.1936 68.4832 72.1575C68.5835 72.1214 68.684 72.0862 68.7849 72.0518C69.0322 71.9705 69.8529 71.5812 69.9221 71.5147C69.9433 71.4935 70.0036 71.4485 70.0548 71.418C70.2903 71.2705 70.3987 71.186 70.6131 70.9927C70.8545 70.7723 71.1894 70.4105 71.2707 70.2868C71.2977 70.2446 71.3702 70.1421 71.4303 70.0607C71.4937 69.9762 71.545 69.9007 71.545 69.8886C71.545 69.8764 71.5935 69.7919 71.6506 69.7015C71.7082 69.6111 71.7774 69.4781 71.8048 69.4057C71.8349 69.3365 71.8649 69.2609 71.8771 69.2461C71.9342 69.1706 72.1455 68.57 72.2359 68.2291C72.3779 67.7013 72.6431 66.4552 72.7397 65.8667C72.764 65.716 72.791 65.5744 72.8 65.5501C72.8274 65.4836 72.9933 64.4487 73.1439 63.3931C73.1771 63.1607 73.2104 62.9283 73.2194 62.8801C73.2437 62.7412 73.3521 61.8151 73.4006 61.3264C73.4244 61.085 73.4576 60.8072 73.4757 60.7078C73.4941 60.608 73.527 60.2825 73.5512 59.9836C73.5754 59.6851 73.6087 59.3169 73.6236 59.1689C73.6416 59.0183 73.669 58.6744 73.6869 58.3997C73.7049 58.125 73.7323 57.7874 73.7472 57.6454C73.7655 57.5037 73.7985 56.9817 73.8227 56.484C73.85 55.986 73.8802 55.3736 73.8982 55.1264C74.0339 52.9329 74.0339 47.1765 73.8982 44.9138C73.8829 44.6571 73.856 44.1536 73.8379 43.7975C73.8196 43.4414 73.7926 42.9707 73.7773 42.7564C73.7593 42.5392 73.7202 42.0052 73.6869 41.5649C73.6536 41.1244 73.6204 40.7108 73.6114 40.6447C73.6024 40.5781 73.5754 40.2855 73.5512 39.9959C73.527 39.7065 73.4999 39.4348 73.4909 39.3927C73.4819 39.3504 73.4486 39.0725 73.4154 38.774C73.3373 38.0528 73.2405 37.2566 73.2194 37.1632C73.2104 37.1209 73.1771 36.8795 73.1439 36.6318C72.996 35.5037 72.7218 33.9317 72.4863 32.8608C72.453 32.7097 72.399 32.4655 72.3658 32.3177C72.2812 31.9315 72.1815 31.5422 72.1486 31.4729C72.1334 31.4397 72.1064 31.3583 72.0852 31.2918C72.0187 31.0687 71.6838 30.3234 71.5994 30.2056C71.5872 30.1876 71.491 30.046 71.3881 29.8891C71.1741 29.5663 70.6252 28.993 70.2962 28.7516C69.6448 28.2719 68.9206 27.946 67.9857 27.7167C67.8245 27.6773 67.6636 27.637 67.5029 27.5958C67.3914 27.563 67.1679 27.5145 66.6883 27.415C66.5524 27.3865 66.4167 27.3573 66.2811 27.3274C65.6989 27.1858 63.8043 26.8778 62.5707 26.721C62.323 26.6908 62.0789 26.6576 62.0277 26.6459C61.9369 26.6274 61.4996 26.5825 60.6099 26.4948C60.3622 26.4706 60.0215 26.4345 59.8556 26.4193C59.6898 26.4013 59.3909 26.3742 59.1921 26.3559C58.9929 26.3411 58.6671 26.3136 58.468 26.2988C57.7923 26.2413 55.916 26.1329 54.8781 26.0874C52.8719 25.9999 49.1675 25.9729 46.869 26.0303ZM33.5776 46.4163C33.5956 46.4311 33.6832 46.4586 33.7705 46.4796C33.9336 46.5188 34.1629 46.6245 34.3345 46.7391C34.4703 46.8295 34.7903 47.1734 34.8533 47.2943C34.8839 47.3546 34.9167 47.409 34.9257 47.418C34.9351 47.427 34.9621 47.4872 34.9863 47.5537C35.0075 47.6198 35.0344 47.6895 35.0497 47.7043C35.0888 47.7618 35.1342 48.1206 35.1342 48.3864C35.1342 48.6458 35.0947 48.9505 35.0435 49.0621C34.8808 49.4361 34.8021 49.5597 34.5971 49.7773C34.4069 49.9733 34.3287 50.0336 34.0693 50.1604C33.858 50.266 33.7071 50.3204 33.5866 50.3321C33.4899 50.3442 33.4054 50.3653 33.3964 50.3775C33.3754 50.4139 32.7208 50.4139 32.7208 50.3775C32.7208 50.3653 32.6452 50.3442 32.5486 50.3321C32.4551 50.3204 32.3378 50.293 32.2865 50.2719C32.2211 50.2424 32.1547 50.2153 32.0874 50.1904C32.0299 50.1694 31.9755 50.1451 31.9665 50.136C31.9575 50.124 31.9121 50.097 31.8608 50.0727C31.686 49.9854 31.324 49.5839 31.2185 49.3637C31.161 49.246 31.107 49.1313 31.0918 49.1075C30.9892 48.9021 30.9712 47.9669 31.0674 47.7497C31.0949 47.6922 31.1339 47.596 31.1551 47.5384C31.1762 47.4813 31.2004 47.4269 31.2094 47.418C31.2185 47.409 31.2545 47.3483 31.2878 47.2821C31.3453 47.1703 31.704 46.7841 31.7553 46.7841C31.7673 46.7841 31.7947 46.763 31.8159 46.736C31.873 46.6725 32.1656 46.5309 32.3437 46.4856C32.4281 46.4644 32.5216 46.4343 32.5549 46.419C32.5882 46.4042 32.6695 46.389 32.7357 46.38C32.9136 46.3619 33.5384 46.389 33.5776 46.4163ZM66.4469 48.519V50.0425H60.5947V48.0032L60.9206 47.9517C61.6416 47.8402 62.0911 47.7646 62.1181 47.7466C62.1361 47.7345 62.284 47.7106 62.4498 47.6895C62.6157 47.6684 62.7667 47.6409 62.7816 47.6288C62.7999 47.6171 62.9416 47.5898 63.0985 47.5686C63.2553 47.5506 63.4604 47.5142 63.5512 47.4903C63.6415 47.4693 63.8316 47.4359 63.9732 47.418C64.1153 47.3995 64.2569 47.3726 64.2901 47.3604C64.3234 47.3456 64.474 47.3182 64.6219 47.2971C64.7729 47.279 64.9415 47.252 64.999 47.2337C65.0561 47.2187 65.2736 47.1766 65.4818 47.1432C65.69 47.11 65.9615 47.0651 66.0851 47.0439C66.2087 47.0196 66.3414 47.0016 66.3805 46.9985L66.4469 46.9954V48.519ZM41.4689 49.8645V51.6718H44.4855V54.3571H41.4661L41.4779 57.1539C41.4873 60.1679 41.4809 60.0199 41.6442 60.3908C41.7678 60.6777 42.1175 60.9703 42.4192 61.0427C42.4705 61.0548 42.528 61.0788 42.5522 61.0971C42.6093 61.1422 43.8311 61.1422 43.8855 61.094C43.9094 61.076 44.0181 61.0517 44.1327 61.0396L44.335 61.0185V63.6646L44.2533 63.7007C44.1782 63.7338 43.8311 63.7882 43.3546 63.8454C42.6759 63.9241 41.4388 63.9331 41.3664 63.8574C41.3483 63.8426 41.3003 63.8305 41.2549 63.8305C41.1371 63.8305 40.6485 63.7398 40.6121 63.7127C40.5941 63.7007 40.5128 63.6704 40.4282 63.6525C40.3469 63.6314 40.2655 63.6039 40.2472 63.5922C40.2322 63.577 40.163 63.5499 40.0965 63.5288C40.03 63.5078 39.9697 63.4803 39.9607 63.4713C39.9517 63.4623 39.8973 63.429 39.8398 63.3958C39.5895 63.2632 39.5143 63.2151 39.3813 63.1031C39.3031 63.0398 39.2307 62.9858 39.2155 62.9858C39.1853 62.9826 38.9561 62.7322 38.7753 62.503C38.6365 62.3249 38.4311 61.9842 38.3618 61.8089C38.3375 61.7518 38.3106 61.6973 38.3016 61.6883C38.2895 61.6793 38.2593 61.5858 38.2292 61.477C38.2018 61.3686 38.1658 61.254 38.1506 61.2207C38.1357 61.1875 38.0993 61.0517 38.0754 60.9191C38.0499 60.793 38.0226 60.6673 37.9937 60.5419C37.9726 60.4515 37.9577 59.3892 37.9486 57.3801L37.9366 54.3571H36.1898V51.6718H37.9397V48.6305L38.1446 48.6094C38.2562 48.5976 38.3618 48.5765 38.377 48.5644C38.395 48.5522 38.543 48.5253 38.7088 48.5041C38.8747 48.483 39.0257 48.4525 39.0406 48.4408C39.0586 48.4286 39.2487 48.3953 39.4631 48.3683C39.6802 48.3378 39.8704 48.3049 39.8852 48.2928C39.9032 48.2807 40.003 48.2596 40.1114 48.2505C40.2531 48.2335 40.3941 48.2104 40.5339 48.1813C40.8567 48.1148 41.4208 48.0271 41.4478 48.0424C41.4599 48.0483 41.4689 48.8692 41.4689 49.8645ZM51.4693 51.385C51.8915 51.4092 52.3684 51.4636 52.4044 51.4907C52.4224 51.5027 52.4948 51.5239 52.5703 51.5329C52.7424 51.5603 53.1618 51.6839 53.4149 51.7864C53.6262 51.871 54.0968 52.1061 54.1691 52.1668C54.1935 52.1848 54.2475 52.2208 54.2897 52.2391C54.3319 52.2602 54.465 52.3655 54.5823 52.4685C54.7001 52.5741 54.8088 52.6645 54.8237 52.6703C54.8691 52.6915 55.4058 53.3433 55.4058 53.3793C55.4058 53.3883 55.4333 53.4369 55.4665 53.4819C55.5298 53.5726 55.7982 54.0946 55.7982 54.1278C55.7982 54.1395 55.8225 54.2061 55.8553 54.2754C55.8855 54.345 55.9218 54.4507 55.934 54.5077C55.9461 54.5652 55.9673 54.6255 55.979 54.6435C55.991 54.6588 56.0185 54.7551 56.0396 54.8548C56.0576 54.9542 56.0819 55.0572 56.0909 55.081C56.103 55.1052 56.1299 55.2347 56.1543 55.3678C56.1903 55.5669 56.1993 56.3181 56.2114 59.6428L56.2235 63.6795H52.9325L52.9295 63.3235C52.9262 63.1306 52.9172 62.85 52.9051 62.702L52.8871 62.4306L52.7996 62.5511C52.661 62.7354 52.2052 63.1696 52.0245 63.2902C51.629 63.5499 51.5237 63.6129 51.4149 63.6494C51.3484 63.6674 51.2612 63.7038 51.2189 63.7275C51.1736 63.7488 51.0621 63.7851 50.9714 63.8032C50.8809 63.8242 50.7906 63.8516 50.7754 63.8634C50.6216 63.978 48.721 63.9752 48.5731 63.8607C48.5583 63.8485 48.4495 63.8216 48.3317 63.8004C48.2172 63.7793 48.0813 63.746 48.0302 63.7217C47.9821 63.7007 47.8521 63.6462 47.7468 63.6039C47.6255 63.5512 47.5067 63.4928 47.3909 63.429C47.3107 63.3795 47.2292 63.3323 47.1463 63.2874C47.0196 63.2178 46.9774 63.1786 46.6335 62.8347C46.2806 62.4818 46.2352 62.4337 46.2352 62.4004C46.2352 62.3883 46.1961 62.3218 46.1511 62.2525C46.1025 62.1833 46.0333 62.0565 45.9969 61.9747C45.9609 61.8906 45.9124 61.7908 45.8913 61.7486C45.8675 61.7063 45.8342 61.5979 45.8131 61.5072C45.7919 61.4167 45.765 61.3264 45.7528 61.3112C45.7195 61.2689 45.662 60.8404 45.662 60.6534C45.662 60.5662 45.6472 60.4785 45.6292 60.4606C45.5928 60.4241 45.6018 60.3036 45.6953 59.5762C45.7133 59.4346 45.7407 59.3047 45.7528 59.2898C45.7649 59.2718 45.7918 59.1932 45.8099 59.1118C45.849 58.9549 45.9309 58.7498 46.0153 58.5957C46.0423 58.5445 46.0784 58.4752 46.0967 58.4388C46.1147 58.3998 46.139 58.3696 46.1538 58.3696C46.1659 58.3696 46.1749 58.3516 46.1749 58.3304C46.1749 58.2972 46.5067 57.8657 46.5642 57.8265C46.5762 57.8175 46.5975 57.7875 46.6065 57.7572C46.6185 57.7239 46.6546 57.6939 46.6878 57.6849C46.7211 57.6759 46.7481 57.6574 46.7481 57.6453C46.7481 57.6153 47.2551 57.2169 47.4268 57.1174C47.5504 57.042 47.8283 56.9004 48.2324 56.7071C48.2899 56.677 48.8536 56.4961 49.1013 56.4266C49.1916 56.3996 49.3697 56.3631 49.4933 56.3452C49.6169 56.324 49.7347 56.2998 49.7499 56.2881C49.7679 56.2759 49.9487 56.2485 50.1572 56.2305C50.3653 56.2125 50.6216 56.1824 50.7303 56.1671C51.1587 56.1038 52.6637 56.1159 52.8238 56.1824C52.8782 56.2062 52.8809 56.1944 52.8598 55.9378C52.848 55.79 52.8269 55.6632 52.8148 55.6541C52.7996 55.6451 52.7815 55.588 52.7694 55.5274C52.7483 55.4158 52.6336 55.1717 52.5252 55.0055C52.4556 54.9002 52.163 54.5981 52.1297 54.5981C52.118 54.5981 52.0667 54.568 52.0152 54.5289C51.8825 54.4322 51.6685 54.336 51.5386 54.3117C51.4752 54.2996 51.424 54.2785 51.424 54.2663C51.424 54.1337 49.4753 54.1126 48.8901 54.2424C48.8146 54.2573 48.6397 54.2905 48.498 54.3148C48.356 54.3387 48.2143 54.3719 48.1811 54.3872C48.1478 54.4021 48.0395 54.4295 47.9397 54.4474C47.8404 54.4655 47.7316 54.4928 47.6984 54.5077C47.6651 54.523 47.5446 54.5562 47.4299 54.5833C47.3154 54.6103 47.2066 54.6404 47.1886 54.6556C47.1705 54.6678 47.0892 54.6979 47.0047 54.719C46.9234 54.7401 46.8388 54.7703 46.8236 54.7824C46.8056 54.7945 46.7242 54.8215 46.6424 54.8427C46.5583 54.8607 46.4405 54.9029 46.3803 54.933C46.3169 54.9663 46.2595 54.9905 46.2504 54.9905C46.2414 54.9905 46.2352 54.3598 46.2352 53.5906C46.2352 52.5013 46.2445 52.1847 46.2747 52.1605C46.2958 52.1425 46.3803 52.1124 46.4617 52.0913C46.5462 52.0732 46.6276 52.0459 46.6424 52.0338C46.6609 52.0217 46.7602 51.9857 46.869 51.9582C46.9774 51.9281 47.0798 51.8951 47.0951 51.8831C47.1132 51.8678 47.2066 51.8436 47.3033 51.8228C47.403 51.8018 47.5056 51.7743 47.5294 51.7594C47.5567 51.7474 47.6803 51.714 47.804 51.6871C47.9001 51.6684 47.9957 51.6472 48.0908 51.6237C48.1236 51.6143 48.2927 51.5873 48.4675 51.563C48.6428 51.5392 48.8267 51.5059 48.8748 51.4907C49.05 51.4366 50.6305 51.3369 50.9866 51.3581C51.0859 51.3639 51.3035 51.3761 51.4693 51.3851V51.385ZM34.8322 57.6759V63.6795H31.303V51.6718H34.8322V57.6759ZM61.4996 55.4127C61.4996 58.985 61.5148 59.6761 61.5872 59.7726C61.602 59.7875 61.6204 59.8477 61.6326 59.9053C61.6748 60.1314 61.8708 60.4606 62.0938 60.6836C62.2116 60.8044 62.3442 60.91 62.3864 60.9218C62.4318 60.9312 62.465 60.9493 62.465 60.9614C62.465 60.9731 62.5707 61.0154 62.7002 61.0575C62.8935 61.1182 62.9959 61.13 63.2976 61.13C63.5089 61.13 63.6927 61.1151 63.735 61.0971C63.774 61.0761 63.8676 61.0458 63.9431 61.0247C64.0186 61.0036 64.1544 60.9402 64.2448 60.8795C64.4137 60.7712 64.7275 60.4817 64.7275 60.4331C64.7275 60.4183 64.7698 60.3518 64.8179 60.2884C64.8691 60.2219 64.9087 60.1558 64.9087 60.1377C64.9087 60.1193 64.9357 60.056 64.9658 59.9957C64.999 59.9354 65.0351 59.8329 65.0472 59.7695C65.0562 59.703 65.0772 59.6369 65.0926 59.6217C65.1681 59.525 65.1802 58.9158 65.1802 55.3767V51.6718H68.7094V63.6796H67.0382C65.7322 63.6796 65.3579 63.6705 65.3399 63.6404C65.3277 63.6224 65.3129 63.3356 65.3067 63.0068C65.3007 62.681 65.2855 62.4126 65.2737 62.4126C65.2617 62.4126 65.2253 62.4486 65.1893 62.4939C65.0202 62.7233 64.7546 62.9827 64.3384 63.3266C64.2781 63.3747 64.1545 63.4412 63.883 63.5739C63.7593 63.6341 63.6236 63.7037 63.5813 63.7248C63.5391 63.746 63.4245 63.7792 63.3246 63.8004C63.2253 63.8215 63.1377 63.8484 63.1287 63.8607C63.0986 63.9057 62.5646 63.951 62.0368 63.951C61.518 63.951 61.0955 63.9149 60.9719 63.8634C60.9386 63.8485 60.824 63.8122 60.7153 63.7851C60.6069 63.7581 60.5071 63.7217 60.4891 63.7096C60.4743 63.6975 60.4019 63.6673 60.3323 63.6462C60.2599 63.6282 60.2028 63.6012 60.2028 63.5891C60.2028 63.577 60.1484 63.55 60.0819 63.5288C60.0158 63.5078 59.9613 63.4803 59.9613 63.4682C59.9613 63.4565 59.9281 63.4321 59.889 63.4141C59.6296 63.2964 59.0412 62.7443 58.7939 62.3883C58.6429 62.1712 58.4105 61.7365 58.3625 61.5768C58.3444 61.5134 58.3081 61.4199 58.2869 61.3715C58.2658 61.3202 58.2299 61.2118 58.2114 61.1301C58.1934 61.0459 58.1664 60.9582 58.1511 60.9281C58.1363 60.9007 58.1089 60.759 58.0909 60.6112C58.0729 60.4664 58.0397 60.3185 58.0216 60.2853C57.9943 60.2402 57.9822 59.163 57.9763 55.9468L57.9673 51.6718H61.4997L61.4996 55.4127Z" fill="#FF6200"/>
<path d="M51.1343 58.0272C50.9816 58.0415 50.8252 58.0646 50.7908 58.079C50.7563 58.0966 50.6441 58.1224 50.5407 58.1426C50.4411 58.1599 50.3065 58.1947 50.2441 58.2206C49.7751 58.4085 49.5471 58.5329 49.3911 58.6832C49.2411 58.8279 49.0908 59.0967 49.0661 59.2643C49.0596 59.322 49.0377 59.3973 49.0191 59.4289C48.9847 59.4956 48.9972 59.7007 49.0535 59.9694C49.1159 60.2614 49.366 60.6172 49.5876 60.7241C49.9815 60.9119 50.0565 60.9407 50.2754 60.9726C50.6688 61.0274 51.4189 60.9959 51.5814 60.9149C51.6094 60.9003 51.7252 60.8512 51.8375 60.805C51.9502 60.756 52.0968 60.6775 52.1657 60.6284C52.2346 60.5794 52.3124 60.5216 52.3407 60.5013C52.5186 60.3773 52.847 59.8742 52.8907 59.6661C52.9 59.614 52.9251 59.5533 52.9438 59.53C52.9656 59.5041 52.9811 59.238 52.9876 58.7611L53 58.0327L52.8311 58.0156C52.6029 57.9894 51.4783 57.9983 51.1343 58.0272Z" fill="#FF6200"/>
<rect width="60" height="60" transform="translate(105 20)" fill="#FF6200"/>
<path d="M131.869 26.0303C130.487 26.0632 129.474 26.1118 127.615 26.2264C126.756 26.2777 125.817 26.3532 125.157 26.4193C124.991 26.4373 124.644 26.4706 124.388 26.4948C123.311 26.6005 121.712 26.8023 121.039 26.917C120.897 26.9412 120.689 26.9745 120.572 26.9925C120.457 27.0078 120.252 27.0437 120.119 27.0681C119.986 27.0923 119.763 27.1346 119.621 27.1584C119.123 27.2429 118.276 27.415 117.796 27.5297C117.663 27.563 117.425 27.6201 117.268 27.6565C117.111 27.6925 116.97 27.7257 116.952 27.7288C116.067 27.9398 115.19 28.3655 114.514 28.9175C113.856 29.4516 113.268 30.3144 112.972 31.1712C112.924 31.3039 112.876 31.4397 112.861 31.4729C112.81 31.5876 112.586 32.5528 112.426 33.3436C112.403 33.4762 112.36 33.6722 112.336 33.781C112.312 33.8894 112.279 34.0795 112.258 34.2032C112.239 34.3268 112.215 34.4779 112.2 34.535C112.155 34.7072 111.971 35.8837 111.853 36.7375C111.739 37.5642 111.663 38.1648 111.597 38.774C111.564 39.0725 111.53 39.3652 111.525 39.4227C111.516 39.4798 111.488 39.7726 111.461 40.0715C111.437 40.37 111.401 40.7351 111.383 40.8861C111.319 41.4409 111.162 43.8578 111.084 45.5625C111.024 46.8263 110.985 49.5328 111.006 51.0082C111.027 52.8484 111.072 54.4929 111.114 55.0661C111.129 55.2981 111.16 55.7873 111.178 56.1523C111.196 56.5173 111.22 56.9848 111.235 57.193C111.304 58.2369 111.359 58.9216 111.386 59.1388C111.401 59.2718 111.437 59.6248 111.461 59.9202C111.485 60.216 111.521 60.5689 111.537 60.7047C111.555 60.8405 111.588 61.1331 111.612 61.3565C111.687 62.0714 111.745 62.539 111.793 62.85C111.817 63.0159 111.859 63.2995 111.883 63.4834C111.971 64.147 112.073 64.7926 112.185 65.3843C112.209 65.5169 112.248 65.7403 112.276 65.882C112.327 66.1836 112.445 66.7842 112.529 67.1641C112.819 68.4949 112.945 68.8927 113.286 69.5477C113.38 69.7285 113.5 69.9398 113.555 70.0153C113.606 70.0908 113.681 70.1992 113.721 70.2567C113.893 70.513 114.384 71.0138 114.656 71.2071C114.701 71.24 114.789 71.3033 114.846 71.3488C114.906 71.3969 114.963 71.4332 114.979 71.4332C114.991 71.4332 115.021 71.4544 115.045 71.4787C115.163 71.5933 115.992 71.9885 116.348 72.0941C116.414 72.1152 116.496 72.1422 116.529 72.1575C116.608 72.1936 117.051 72.3051 117.585 72.426C117.817 72.4804 118.056 72.5374 118.113 72.5527C118.252 72.5887 119.126 72.7636 119.787 72.8845C120.167 72.9537 120.907 73.0715 121.371 73.138C121.546 73.1619 121.769 73.1951 121.869 73.2132C122.234 73.2766 123.742 73.4519 124.689 73.5422C125.03 73.5755 125.449 73.6146 125.624 73.6325C125.908 73.6627 126.197 73.6869 127.585 73.7864C127.793 73.8016 128.267 73.8287 128.641 73.847C129.015 73.865 129.537 73.8921 129.803 73.9073C131.95 74.0309 138.092 74.0309 140.21 73.9073C140.475 73.8893 140.997 73.865 141.371 73.847C142.014 73.8169 142.249 73.8016 143.257 73.7261C144.548 73.6267 146.446 73.4424 147.088 73.3521C147.272 73.325 147.589 73.2828 147.797 73.2554C148.566 73.1561 149.622 72.996 150.225 72.8845C150.886 72.7636 151.761 72.5887 151.9 72.5527C151.957 72.5374 152.195 72.4804 152.427 72.426C152.949 72.3082 153.402 72.1936 153.483 72.1575C153.583 72.1214 153.684 72.0862 153.785 72.0518C154.032 71.9705 154.853 71.5812 154.922 71.5147C154.943 71.4935 155.004 71.4485 155.055 71.418C155.29 71.2705 155.399 71.186 155.613 70.9927C155.854 70.7723 156.189 70.4105 156.271 70.2868C156.298 70.2446 156.37 70.1421 156.43 70.0607C156.494 69.9762 156.545 69.9007 156.545 69.8886C156.545 69.8764 156.593 69.7919 156.651 69.7015C156.708 69.6111 156.777 69.4781 156.805 69.4057C156.835 69.3365 156.865 69.2609 156.877 69.2461C156.934 69.1706 157.146 68.57 157.236 68.2291C157.378 67.7013 157.643 66.4552 157.74 65.8667C157.764 65.716 157.791 65.5744 157.8 65.5501C157.827 65.4836 157.993 64.4487 158.144 63.3931C158.177 63.1607 158.21 62.9283 158.219 62.8801C158.244 62.7412 158.352 61.8151 158.401 61.3264C158.424 61.085 158.458 60.8072 158.476 60.7078C158.494 60.608 158.527 60.2825 158.551 59.9836C158.575 59.6851 158.609 59.3169 158.624 59.1689C158.642 59.0183 158.669 58.6744 158.687 58.3997C158.705 58.125 158.732 57.7874 158.747 57.6454C158.766 57.5037 158.798 56.9817 158.823 56.484C158.85 55.986 158.88 55.3736 158.898 55.1264C159.034 52.9329 159.034 47.1765 158.898 44.9138C158.883 44.6571 158.856 44.1536 158.838 43.7975C158.82 43.4414 158.793 42.9707 158.777 42.7564C158.759 42.5392 158.72 42.0052 158.687 41.5649C158.654 41.1244 158.62 40.7108 158.611 40.6447C158.602 40.5781 158.575 40.2855 158.551 39.9959C158.527 39.7065 158.5 39.4348 158.491 39.3927C158.482 39.3504 158.449 39.0725 158.415 38.774C158.337 38.0528 158.241 37.2566 158.219 37.1632C158.21 37.1209 158.177 36.8795 158.144 36.6318C157.996 35.5037 157.722 33.9317 157.486 32.8608C157.453 32.7097 157.399 32.4655 157.366 32.3177C157.281 31.9315 157.181 31.5422 157.149 31.4729C157.133 31.4397 157.106 31.3583 157.085 31.2918C157.019 31.0687 156.684 30.3234 156.599 30.2056C156.587 30.1876 156.491 30.046 156.388 29.8891C156.174 29.5663 155.625 28.993 155.296 28.7516C154.645 28.2719 153.921 27.946 152.986 27.7167C152.825 27.6773 152.664 27.637 152.503 27.5958C152.391 27.563 152.168 27.5145 151.688 27.415C151.552 27.3865 151.417 27.3573 151.281 27.3274C150.699 27.1858 148.804 26.8778 147.571 26.721C147.323 26.6908 147.079 26.6576 147.028 26.6459C146.937 26.6274 146.5 26.5825 145.61 26.4948C145.362 26.4706 145.021 26.4345 144.856 26.4193C144.69 26.4013 144.391 26.3742 144.192 26.3559C143.993 26.3411 143.667 26.3136 143.468 26.2988C142.792 26.2413 140.916 26.1329 139.878 26.0874C137.872 25.9999 134.168 25.9729 131.869 26.0303ZM118.578 46.4163C118.596 46.4311 118.683 46.4586 118.77 46.4796C118.934 46.5188 119.163 46.6245 119.335 46.7391C119.47 46.8295 119.79 47.1734 119.853 47.2943C119.884 47.3546 119.917 47.409 119.926 47.418C119.935 47.427 119.962 47.4872 119.986 47.5537C120.007 47.6198 120.034 47.6895 120.05 47.7043C120.089 47.7618 120.134 48.1206 120.134 48.3864C120.134 48.6458 120.095 48.9505 120.044 49.0621C119.881 49.4361 119.802 49.5597 119.597 49.7773C119.407 49.9733 119.329 50.0336 119.069 50.1604C118.858 50.266 118.707 50.3204 118.587 50.3321C118.49 50.3442 118.405 50.3653 118.396 50.3775C118.375 50.4139 117.721 50.4139 117.721 50.3775C117.721 50.3653 117.645 50.3442 117.549 50.3321C117.455 50.3204 117.338 50.293 117.286 50.2719C117.221 50.2424 117.155 50.2153 117.087 50.1904C117.03 50.1694 116.976 50.1451 116.967 50.136C116.957 50.124 116.912 50.097 116.861 50.0727C116.686 49.9854 116.324 49.5839 116.218 49.3637C116.161 49.246 116.107 49.1313 116.092 49.1075C115.989 48.9021 115.971 47.9669 116.067 47.7497C116.095 47.6922 116.134 47.596 116.155 47.5384C116.176 47.4813 116.2 47.4269 116.209 47.418C116.218 47.409 116.255 47.3483 116.288 47.2821C116.345 47.1703 116.704 46.7841 116.755 46.7841C116.767 46.7841 116.795 46.763 116.816 46.736C116.873 46.6725 117.166 46.5309 117.344 46.4856C117.428 46.4644 117.522 46.4343 117.555 46.419C117.588 46.4042 117.669 46.389 117.736 46.38C117.914 46.3619 118.538 46.389 118.578 46.4163ZM151.447 48.519V50.0425H145.595V48.0032L145.921 47.9517C146.642 47.8402 147.091 47.7646 147.118 47.7466C147.136 47.7345 147.284 47.7106 147.45 47.6895C147.616 47.6684 147.767 47.6409 147.782 47.6288C147.8 47.6171 147.942 47.5898 148.099 47.5686C148.255 47.5506 148.46 47.5142 148.551 47.4903C148.642 47.4693 148.832 47.4359 148.973 47.418C149.115 47.3995 149.257 47.3726 149.29 47.3604C149.323 47.3456 149.474 47.3182 149.622 47.2971C149.773 47.279 149.942 47.252 149.999 47.2337C150.056 47.2187 150.274 47.1766 150.482 47.1432C150.69 47.11 150.961 47.0651 151.085 47.0439C151.209 47.0196 151.341 47.0016 151.381 46.9985L151.447 46.9954V48.519ZM126.469 49.8645V51.6718H129.486V54.3571H126.466L126.478 57.1539C126.487 60.1679 126.481 60.0199 126.644 60.3908C126.768 60.6777 127.118 60.9703 127.419 61.0427C127.47 61.0548 127.528 61.0788 127.552 61.0971C127.609 61.1422 128.831 61.1422 128.886 61.094C128.909 61.076 129.018 61.0517 129.133 61.0396L129.335 61.0185V63.6646L129.253 63.7007C129.178 63.7338 128.831 63.7882 128.355 63.8454C127.676 63.9241 126.439 63.9331 126.366 63.8574C126.348 63.8426 126.3 63.8305 126.255 63.8305C126.137 63.8305 125.648 63.7398 125.612 63.7127C125.594 63.7007 125.513 63.6704 125.428 63.6525C125.347 63.6314 125.265 63.6039 125.247 63.5922C125.232 63.577 125.163 63.5499 125.097 63.5288C125.03 63.5078 124.97 63.4803 124.961 63.4713C124.952 63.4623 124.897 63.429 124.84 63.3958C124.589 63.2632 124.514 63.2151 124.381 63.1031C124.303 63.0398 124.231 62.9858 124.215 62.9858C124.185 62.9826 123.956 62.7322 123.775 62.503C123.637 62.3249 123.431 61.9842 123.362 61.8089C123.338 61.7518 123.311 61.6973 123.302 61.6883C123.289 61.6793 123.259 61.5858 123.229 61.477C123.202 61.3686 123.166 61.254 123.151 61.2207C123.136 61.1875 123.099 61.0517 123.075 60.9191C123.05 60.793 123.023 60.6673 122.994 60.5419C122.973 60.4515 122.958 59.3892 122.949 57.3801L122.937 54.3571H121.19V51.6718H122.94V48.6305L123.145 48.6094C123.256 48.5976 123.362 48.5765 123.377 48.5644C123.395 48.5522 123.543 48.5253 123.709 48.5041C123.875 48.483 124.026 48.4525 124.041 48.4408C124.059 48.4286 124.249 48.3953 124.463 48.3683C124.68 48.3378 124.87 48.3049 124.885 48.2928C124.903 48.2807 125.003 48.2596 125.111 48.2505C125.253 48.2335 125.394 48.2104 125.534 48.1813C125.857 48.1148 126.421 48.0271 126.448 48.0424C126.46 48.0483 126.469 48.8692 126.469 49.8645ZM136.469 51.385C136.891 51.4092 137.368 51.4636 137.404 51.4907C137.422 51.5027 137.495 51.5239 137.57 51.5329C137.742 51.5603 138.162 51.6839 138.415 51.7864C138.626 51.871 139.097 52.1061 139.169 52.1668C139.193 52.1848 139.247 52.2208 139.29 52.2391C139.332 52.2602 139.465 52.3655 139.582 52.4685C139.7 52.5741 139.809 52.6645 139.824 52.6703C139.869 52.6915 140.406 53.3433 140.406 53.3793C140.406 53.3883 140.433 53.4369 140.467 53.4819C140.53 53.5726 140.798 54.0946 140.798 54.1278C140.798 54.1395 140.822 54.2061 140.855 54.2754C140.885 54.345 140.922 54.4507 140.934 54.5077C140.946 54.5652 140.967 54.6255 140.979 54.6435C140.991 54.6588 141.018 54.7551 141.04 54.8548C141.058 54.9542 141.082 55.0572 141.091 55.081C141.103 55.1052 141.13 55.2347 141.154 55.3678C141.19 55.5669 141.199 56.3181 141.211 59.6428L141.223 63.6795H137.932L137.929 63.3235C137.926 63.1306 137.917 62.85 137.905 62.702L137.887 62.4306L137.8 62.5511C137.661 62.7354 137.205 63.1696 137.024 63.2902C136.629 63.5499 136.524 63.6129 136.415 63.6494C136.348 63.6674 136.261 63.7038 136.219 63.7275C136.174 63.7488 136.062 63.7851 135.971 63.8032C135.881 63.8242 135.791 63.8516 135.775 63.8634C135.622 63.978 133.721 63.9752 133.573 63.8607C133.558 63.8485 133.45 63.8216 133.332 63.8004C133.217 63.7793 133.081 63.746 133.03 63.7217C132.982 63.7007 132.852 63.6462 132.747 63.6039C132.626 63.5512 132.507 63.4928 132.391 63.429C132.311 63.3795 132.229 63.3323 132.146 63.2874C132.02 63.2178 131.977 63.1786 131.634 62.8347C131.281 62.4818 131.235 62.4337 131.235 62.4004C131.235 62.3883 131.196 62.3218 131.151 62.2525C131.103 62.1833 131.033 62.0565 130.997 61.9747C130.961 61.8906 130.912 61.7908 130.891 61.7486C130.867 61.7063 130.834 61.5979 130.813 61.5072C130.792 61.4167 130.765 61.3264 130.753 61.3112C130.72 61.2689 130.662 60.8404 130.662 60.6534C130.662 60.5662 130.647 60.4785 130.629 60.4606C130.593 60.4241 130.602 60.3036 130.695 59.5762C130.713 59.4346 130.741 59.3047 130.753 59.2898C130.765 59.2718 130.792 59.1932 130.81 59.1118C130.849 58.9549 130.931 58.7498 131.015 58.5957C131.042 58.5445 131.078 58.4752 131.097 58.4388C131.115 58.3998 131.139 58.3696 131.154 58.3696C131.166 58.3696 131.175 58.3516 131.175 58.3304C131.175 58.2972 131.507 57.8657 131.564 57.8265C131.576 57.8175 131.597 57.7875 131.606 57.7572C131.619 57.7239 131.655 57.6939 131.688 57.6849C131.721 57.6759 131.748 57.6574 131.748 57.6453C131.748 57.6153 132.255 57.2169 132.427 57.1174C132.55 57.042 132.828 56.9004 133.232 56.7071C133.29 56.677 133.854 56.4961 134.101 56.4266C134.192 56.3996 134.37 56.3631 134.493 56.3452C134.617 56.324 134.735 56.2998 134.75 56.2881C134.768 56.2759 134.949 56.2485 135.157 56.2305C135.365 56.2125 135.622 56.1824 135.73 56.1671C136.159 56.1038 137.664 56.1159 137.824 56.1824C137.878 56.2062 137.881 56.1944 137.86 55.9378C137.848 55.79 137.827 55.6632 137.815 55.6541C137.8 55.6451 137.782 55.588 137.769 55.5274C137.748 55.4158 137.634 55.1717 137.525 55.0055C137.456 54.9002 137.163 54.5981 137.13 54.5981C137.118 54.5981 137.067 54.568 137.015 54.5289C136.882 54.4322 136.669 54.336 136.539 54.3117C136.475 54.2996 136.424 54.2785 136.424 54.2663C136.424 54.1337 134.475 54.1126 133.89 54.2424C133.815 54.2573 133.64 54.2905 133.498 54.3148C133.356 54.3387 133.214 54.3719 133.181 54.3872C133.148 54.4021 133.039 54.4295 132.94 54.4474C132.84 54.4655 132.732 54.4928 132.698 54.5077C132.665 54.523 132.545 54.5562 132.43 54.5833C132.315 54.6103 132.207 54.6404 132.189 54.6556C132.171 54.6678 132.089 54.6979 132.005 54.719C131.923 54.7401 131.839 54.7703 131.824 54.7824C131.806 54.7945 131.724 54.8215 131.642 54.8427C131.558 54.8607 131.441 54.9029 131.38 54.933C131.317 54.9663 131.259 54.9905 131.25 54.9905C131.241 54.9905 131.235 54.3598 131.235 53.5906C131.235 52.5013 131.245 52.1847 131.275 52.1605C131.296 52.1425 131.38 52.1124 131.462 52.0913C131.546 52.0732 131.628 52.0459 131.642 52.0338C131.661 52.0217 131.76 51.9857 131.869 51.9582C131.977 51.9281 132.08 51.8951 132.095 51.8831C132.113 51.8678 132.207 51.8436 132.303 51.8228C132.403 51.8018 132.506 51.7743 132.529 51.7594C132.557 51.7474 132.68 51.714 132.804 51.6871C132.9 51.6684 132.996 51.6472 133.091 51.6237C133.124 51.6143 133.293 51.5873 133.468 51.563C133.643 51.5392 133.827 51.5059 133.875 51.4907C134.05 51.4366 135.631 51.3369 135.987 51.3581C136.086 51.3639 136.303 51.3761 136.469 51.3851V51.385ZM119.832 57.6759V63.6795H116.303V51.6718H119.832V57.6759ZM146.5 55.4127C146.5 58.985 146.515 59.6761 146.587 59.7726C146.602 59.7875 146.62 59.8477 146.633 59.9053C146.675 60.1314 146.871 60.4606 147.094 60.6836C147.212 60.8044 147.344 60.91 147.386 60.9218C147.432 60.9312 147.465 60.9493 147.465 60.9614C147.465 60.9731 147.571 61.0154 147.7 61.0575C147.893 61.1182 147.996 61.13 148.298 61.13C148.509 61.13 148.693 61.1151 148.735 61.0971C148.774 61.0761 148.868 61.0458 148.943 61.0247C149.019 61.0036 149.154 60.9402 149.245 60.8795C149.414 60.7712 149.727 60.4817 149.727 60.4331C149.727 60.4183 149.77 60.3518 149.818 60.2884C149.869 60.2219 149.909 60.1558 149.909 60.1377C149.909 60.1193 149.936 60.056 149.966 59.9957C149.999 59.9354 150.035 59.8329 150.047 59.7695C150.056 59.703 150.077 59.6369 150.093 59.6217C150.168 59.525 150.18 58.9158 150.18 55.3767V51.6718H153.709V63.6796H152.038C150.732 63.6796 150.358 63.6705 150.34 63.6404C150.328 63.6224 150.313 63.3356 150.307 63.0068C150.301 62.681 150.286 62.4126 150.274 62.4126C150.262 62.4126 150.225 62.4486 150.189 62.4939C150.02 62.7233 149.755 62.9827 149.338 63.3266C149.278 63.3747 149.155 63.4412 148.883 63.5739C148.759 63.6341 148.624 63.7037 148.581 63.7248C148.539 63.746 148.425 63.7792 148.325 63.8004C148.225 63.8215 148.138 63.8484 148.129 63.8607C148.099 63.9057 147.565 63.951 147.037 63.951C146.518 63.951 146.096 63.9149 145.972 63.8634C145.939 63.8485 145.824 63.8122 145.715 63.7851C145.607 63.7581 145.507 63.7217 145.489 63.7096C145.474 63.6975 145.402 63.6673 145.332 63.6462C145.26 63.6282 145.203 63.6012 145.203 63.5891C145.203 63.577 145.148 63.55 145.082 63.5288C145.016 63.5078 144.961 63.4803 144.961 63.4682C144.961 63.4565 144.928 63.4321 144.889 63.4141C144.63 63.2964 144.041 62.7443 143.794 62.3883C143.643 62.1712 143.411 61.7365 143.362 61.5768C143.344 61.5134 143.308 61.4199 143.287 61.3715C143.266 61.3202 143.23 61.2118 143.211 61.1301C143.193 61.0459 143.166 60.9582 143.151 60.9281C143.136 60.9007 143.109 60.759 143.091 60.6112C143.073 60.4664 143.04 60.3185 143.022 60.2853C142.994 60.2402 142.982 59.163 142.976 55.9468L142.967 51.6718H146.5L146.5 55.4127Z" fill="white"/>
<path d="M136.134 58.0272C135.982 58.0415 135.825 58.0646 135.791 58.079C135.756 58.0966 135.644 58.1224 135.541 58.1426C135.441 58.1599 135.307 58.1947 135.244 58.2206C134.775 58.4085 134.547 58.5329 134.391 58.6832C134.241 58.8279 134.091 59.0967 134.066 59.2643C134.06 59.322 134.038 59.3973 134.019 59.4289C133.985 59.4956 133.997 59.7007 134.054 59.9694C134.116 60.2614 134.366 60.6172 134.588 60.7241C134.981 60.9119 135.056 60.9407 135.275 60.9726C135.669 61.0274 136.419 60.9959 136.581 60.9149C136.609 60.9003 136.725 60.8512 136.837 60.805C136.95 60.756 137.097 60.6775 137.166 60.6284C137.235 60.5794 137.312 60.5216 137.341 60.5013C137.519 60.3773 137.847 59.8742 137.891 59.6661C137.9 59.614 137.925 59.5533 137.944 59.53C137.966 59.5041 137.981 59.238 137.988 58.7611L138 58.0327L137.831 58.0156C137.603 57.9894 136.478 57.9983 136.134 58.0272Z" fill="white"/>
</svg>
