<svg width="340" height="100" viewBox="0 0 340 100" fill="none" xmlns="http://www.w3.org/2000/svg">
<rect x="0.5" y="0.5" width="339" height="99" rx="4.5" stroke="#9747FF" stroke-dasharray="10 5"/>
<rect width="130" height="60" transform="translate(20 20)" fill="white"/>
<path d="M45.4055 49.7446C45.3598 49.0578 45.1769 48.3711 44.811 47.7759L41.7013 42.3277C41.4726 41.9157 41.2897 41.4578 41.1982 41L41.061 41.2289C40.2836 42.5566 40.2836 44.2506 41.061 45.5783L43.5763 49.9277C44.3537 51.2554 44.3537 52.9494 43.5763 54.2771L43.4391 54.506C43.3476 54.0482 43.1647 53.5904 42.936 53.1783L40.6494 49.1952L39.186 46.6313C38.9573 46.2193 38.7744 45.7614 38.683 45.3036L38.5458 45.5325C37.7683 46.8602 37.7683 48.5084 38.5458 49.8819L41.061 54.2313C41.8385 55.559 41.8385 57.253 41.061 58.5807L40.9238 58.8096C40.8324 58.3518 40.6494 57.894 40.4208 57.4819L37.2653 52.0337C36.8537 51.3012 36.6708 50.4771 36.6708 49.653C33.3323 50.5229 31 52.4 31 54.5518C31 57.5735 35.4817 60 41.0153 60C46.5488 60 51.0306 57.5735 51.0306 54.5518C51.0763 52.4916 48.7897 50.6145 45.4055 49.7446ZM54.872 59.0386C54.9178 58.2602 55.0092 57.7566 55.2379 57.1157C56.2897 57.6193 57.6617 57.8482 58.6678 57.8482C60.4056 57.8482 61.4117 57.2988 61.4117 56.1542C61.4117 55.0554 60.68 54.5518 58.9422 53.7735L57.9818 53.4072C56.1983 52.6289 55.0092 51.6217 55.0092 49.653C55.0092 47.5012 56.5184 46.1277 59.5367 46.1277C60.7715 46.1277 61.9148 46.3108 62.9666 46.6771C62.9209 47.4096 62.7837 48.0048 62.6007 48.5542C61.5946 48.188 60.3599 48.0048 59.491 48.0048C57.8446 48.0048 57.1129 48.6458 57.1129 49.653C57.1129 50.6145 57.8446 51.2096 59.1708 51.759L60.1769 52.1711C62.555 53.1783 63.5611 54.2771 63.5611 56.1084C63.5611 58.2602 61.9147 59.7711 58.7135 59.7711C57.2044 59.7711 55.9239 59.5422 54.872 59.0386ZM73.6678 50.0193V59.4506H71.7471L71.6556 58.306C71.1069 59.1301 70.3294 59.6795 69.0032 59.6795C66.5337 59.6795 64.8416 57.8482 64.8416 54.6892C64.8416 51.3928 66.6251 49.4699 70.1008 49.4699C71.4727 49.5157 72.616 49.653 73.6678 50.0193ZM71.6099 57.2988V51.3928C71.1983 51.3012 70.6953 51.3012 70.1008 51.3012C67.9514 51.3012 66.9453 52.6289 66.9453 54.7349C66.9453 56.6578 67.7227 58.0313 69.552 58.0313C70.4209 57.9855 71.0611 57.7108 71.6099 57.2988ZM84.2776 53.1325V59.4506H82.2197V53.4988C82.2197 51.988 81.7167 51.3012 79.6587 51.3012C79.1557 51.3012 78.6069 51.347 78.0124 51.4386V59.4506H75.9544V50.0193C77.2807 49.6988 78.7441 49.4699 79.7044 49.4699C83.1801 49.5157 84.2776 50.8434 84.2776 53.1325ZM90.0399 57.9398C90.6344 57.9398 91.2289 57.8482 91.6405 57.6651C91.5947 58.2145 91.5033 58.8554 91.4118 59.4048C90.863 59.6337 90.2228 59.7253 89.674 59.7253C87.6618 59.7253 86.3813 58.8096 86.3813 56.5205V46.5855C87.0215 46.3566 87.799 46.2651 88.4392 46.2651V49.8361H91.7319C91.6862 50.4771 91.6405 51.0723 91.549 51.6217H88.4392V56.2458C88.4392 57.4361 89.0338 57.9398 90.0399 57.9398ZM101.153 50.0193V59.4506H99.232L99.1405 58.306C98.5917 59.1301 97.8143 59.6795 96.488 59.6795C94.0185 59.6795 92.3265 57.8482 92.3265 54.6892C92.3265 51.3928 94.11 49.4699 97.5856 49.4699C98.9576 49.5157 100.055 49.653 101.153 50.0193ZM99.049 57.2988V51.3928C98.6375 51.3012 98.1344 51.3012 97.5399 51.3012C95.3905 51.3012 94.3844 52.6289 94.3844 54.7349C94.3844 56.6578 95.1618 58.0313 96.9911 58.0313C97.86 57.9855 98.546 57.7108 99.049 57.2988ZM111.762 53.1325V59.4506H109.659V53.4988C109.659 51.988 109.156 51.3012 107.098 51.3012C106.595 51.3012 106.046 51.347 105.451 51.4386V59.4506H103.394V50.0193C104.72 49.6988 106.183 49.4699 107.144 49.4699C110.619 49.5157 111.762 50.8434 111.762 53.1325ZM122.235 46.2651V59.4506H120.314L120.223 58.2602C119.674 59.1301 118.897 59.6795 117.525 59.6795C115.055 59.6795 113.363 57.8482 113.363 54.6892C113.363 51.3928 115.147 49.4699 118.622 49.4699C119.171 49.4699 119.674 49.5157 120.177 49.6072V46.494C120.817 46.3108 121.549 46.2651 122.235 46.2651ZM120.177 57.2988V51.4843C119.628 51.3928 119.08 51.3012 118.531 51.3012C116.473 51.3012 115.513 52.5831 115.513 54.7349C115.513 56.6578 116.29 58.0313 118.119 58.0313C118.942 57.9855 119.628 57.7108 120.177 57.2988ZM132.662 55.4217H126.031C126.305 57.1157 127.266 57.894 129.141 57.894C130.284 57.894 131.427 57.6651 132.433 57.1614C132.342 57.7108 132.25 58.4434 132.113 59.0386C131.153 59.4506 130.192 59.6337 129.049 59.6337C125.574 59.6337 123.927 57.7108 123.927 54.506C123.927 51.7133 125.208 49.4699 128.5 49.4699C131.473 49.4699 132.753 51.3928 132.753 53.7735C132.753 54.4145 132.753 54.8723 132.662 55.4217ZM126.031 53.6819H130.695C130.695 52.1253 129.872 51.2096 128.455 51.2096C126.945 51.2554 126.168 52.0795 126.031 53.6819ZM139.933 49.6072C139.933 50.2482 139.842 50.9807 139.75 51.3928C139.247 51.347 138.79 51.3012 138.196 51.3012C137.692 51.3012 137.189 51.347 136.686 51.3928V59.4506H134.628V50.0193C135.497 49.6988 137.006 49.4699 138.15 49.4699C138.744 49.5157 139.476 49.5157 139.933 49.6072Z" fill="#EA1D25"/>
<rect width="60" height="60" transform="translate(175 20)" fill="white"/>
<path d="M215.519 48.6313C215.41 46.9325 214.971 45.2337 214.095 43.7614L206.643 30.2843C206.095 29.2651 205.657 28.1325 205.438 27L205.109 27.5663C203.246 30.8506 203.246 35.041 205.109 38.3253L211.136 49.0843C212.999 52.3687 212.999 56.559 211.136 59.8434L210.807 60.4096C210.588 59.2771 210.15 58.1446 209.602 57.1253L204.123 47.2723L200.616 40.9301C200.068 39.9108 199.63 38.7783 199.41 37.6458L199.082 38.212C197.219 41.4964 197.219 45.5735 199.082 48.9711L205.109 59.7301C206.972 63.0145 206.972 67.2048 205.109 70.4892L204.78 71.0554C204.561 69.9229 204.123 68.7904 203.575 67.7711L196.013 54.294C195.027 52.4819 194.589 50.4434 194.589 48.4048C186.589 50.5566 181 55.2 181 60.5229C181 67.9976 191.739 74 204.999 74C218.259 74 228.998 67.9976 228.998 60.5229C229.108 55.4265 223.629 50.7831 215.519 48.6313Z" fill="#EA1D25"/>
<rect width="60" height="60" transform="translate(260 20)" fill="#EA1D25"/>
<path d="M300.519 48.6313C300.41 46.9325 299.971 45.2337 299.095 43.7614L291.643 30.2843C291.095 29.2651 290.657 28.1325 290.438 27L290.109 27.5663C288.246 30.8506 288.246 35.041 290.109 38.3253L296.136 49.0843C297.999 52.3687 297.999 56.559 296.136 59.8434L295.807 60.4096C295.588 59.2771 295.15 58.1446 294.602 57.1253L289.123 47.2723L285.616 40.9301C285.068 39.9108 284.63 38.7783 284.41 37.6458L284.082 38.212C282.219 41.4964 282.219 45.5735 284.082 48.9711L290.109 59.7301C291.972 63.0145 291.972 67.2048 290.109 70.4892L289.78 71.0554C289.561 69.9229 289.123 68.7904 288.575 67.7711L281.013 54.294C280.027 52.4819 279.589 50.4434 279.589 48.4048C271.589 50.5566 266 55.2 266 60.5229C266 67.9976 276.739 74 289.999 74C303.259 74 313.998 67.9976 313.998 60.5229C314.108 55.4265 308.629 50.7831 300.519 48.6313Z" fill="white"/>
</svg>
