<svg width="185" height="100" viewBox="0 0 185 100" fill="none" xmlns="http://www.w3.org/2000/svg">
<rect x="0.5" y="0.5" width="184" height="99" rx="4.5" stroke="#9747FF" stroke-dasharray="10 5"/>
<rect width="60" height="60" transform="translate(20 20)" fill="white"/>
<path fill-rule="evenodd" clip-rule="evenodd" d="M37.2505 57.5165H33.0099L29.8299 45.3847C29.679 44.8267 29.3585 44.3333 28.8871 44.1008C27.7106 43.5165 26.4142 43.0514 25 42.8169V42.3498H31.8313C32.7742 42.3498 33.4813 43.0514 33.5991 43.8663L35.2491 52.6173L39.4877 42.3498H43.6104L37.2505 57.5165ZM45.9675 57.5165H41.9626L45.2604 42.3498H49.2653L45.9675 57.5165ZM54.4467 46.5514C54.5646 45.7346 55.2717 45.2675 56.0967 45.2675C57.3931 45.1502 58.8052 45.3848 59.9838 45.9671L60.6909 42.7016C59.5123 42.2345 58.216 42 57.0395 42C53.1524 42 50.3239 44.1008 50.3239 47.0165C50.3239 49.2346 52.3274 50.3992 53.7417 51.1008C55.2717 51.8004 55.861 52.2675 55.7431 52.9671C55.7431 54.0165 54.5646 54.4836 53.3881 54.4836C51.9739 54.4836 50.5596 54.1338 49.2653 53.5494L48.5582 56.8169C49.9724 57.3992 51.5025 57.6338 52.9167 57.6338C57.2752 57.749 59.9838 55.6502 59.9838 52.5C59.9838 48.5329 54.4467 48.3004 54.4467 46.5514ZM74 57.5165L70.82 42.3498H67.4044C66.6972 42.3498 65.9901 42.8169 65.7544 43.5165L59.8659 57.5165H63.9887L64.8116 55.3004H69.8772L70.3486 57.5165H74ZM67.9936 46.4342L69.1701 52.1502H65.8723L67.9936 46.4342Z" fill="#172B85"/>
<rect width="60" height="60" transform="translate(105 20)" fill="#172B85"/>
<path fill-rule="evenodd" clip-rule="evenodd" d="M122.251 57.5165H118.01L114.83 45.3847C114.679 44.8267 114.358 44.3333 113.887 44.1008C112.711 43.5165 111.414 43.0514 110 42.8169V42.3498H116.831C117.774 42.3498 118.481 43.0514 118.599 43.8663L120.249 52.6173L124.488 42.3498H128.61L122.251 57.5165ZM130.968 57.5165H126.963L130.26 42.3498H134.265L130.968 57.5165ZM139.447 46.5514C139.565 45.7346 140.272 45.2675 141.097 45.2675C142.393 45.1502 143.805 45.3848 144.984 45.9671L145.691 42.7016C144.512 42.2345 143.216 42 142.039 42C138.152 42 135.324 44.1008 135.324 47.0165C135.324 49.2346 137.327 50.3992 138.742 51.1008C140.272 51.8004 140.861 52.2675 140.743 52.9671C140.743 54.0165 139.565 54.4836 138.388 54.4836C136.974 54.4836 135.56 54.1338 134.265 53.5494L133.558 56.8169C134.972 57.3992 136.502 57.6338 137.917 57.6338C142.275 57.749 144.984 55.6502 144.984 52.5C144.984 48.5329 139.447 48.3004 139.447 46.5514ZM159 57.5165L155.82 42.3498H152.404C151.697 42.3498 150.99 42.8169 150.754 43.5165L144.866 57.5165H148.989L149.812 55.3004H154.877L155.349 57.5165H159ZM152.994 46.4342L154.17 52.1502H150.872L152.994 46.4342Z" fill="white"/>
</svg>
