<svg width="340" height="100" viewBox="0 0 340 100" fill="none" xmlns="http://www.w3.org/2000/svg">
<rect x="0.5" y="0.5" width="339" height="99" rx="4.5" stroke="#9747FF" stroke-dasharray="10 5"/>
<rect width="130" height="60" transform="translate(20 20)" fill="white"/>
<path fill-rule="evenodd" clip-rule="evenodd" d="M81.5602 45.4488C81.6216 43.5644 80.0761 41.8454 76.8192 41.7821C74.5164 41.749 72.8062 42.5492 72.6533 44.4611C72.527 46.0561 73.0642 46.373 74.1025 46.7853C74.6427 47.3629 79.0037 48.0644 79.8818 48.2198C81.148 48.4457 83.8705 49.0178 85.3194 50.5151C87.9745 53.3215 86.7439 58.8377 83.8705 60.7191C81.9053 61.9936 79.2236 62.313 76.6641 62.344C75.4953 62.378 72.7127 61.9613 71.0068 60.7191C68.9546 59.2183 67.942 56.9229 67.7891 54.726H72.3963C72.3963 55.3298 72.5885 56.2868 73.3753 57.1178C74.4157 58.2037 76.129 58.552 77.7066 58.4876C79.2875 58.456 80.7695 57.9801 81.3703 57.4004C82.3808 56.448 82.6029 54.6275 81.4646 53.4833C79.9456 51.8884 75.3997 51.8884 72.4315 50.8678C69.9314 50.0053 67.8825 48.1856 68.2605 44.4299C68.6394 40.7291 71.29 37.9882 76.9178 37.9882C78.1462 37.9882 82.4436 38.0845 84.6887 40.9553C85.8896 42.5149 86.2048 44.6829 86.0171 45.4488H81.5602Z" fill="#1E2044"/>
<path fill-rule="evenodd" clip-rule="evenodd" d="M98.5309 53.4834C97.2667 54.247 95.5653 54.186 94.4238 54.4054C93.0681 54.6629 92.1139 55.8091 92.498 57.2144C92.7516 58.2309 93.5362 58.9655 95.4344 58.6475C98.0554 58.2309 98.5309 56.3831 98.5309 54.4688V53.4834ZM99.0367 61.613C98.7215 61.1989 98.5309 60.4974 98.5627 59.891C97.0154 61.3563 95.6563 62.3441 93.0681 62.3441C89.5891 62.3441 87.883 60.3703 88.0098 57.0216C88.1051 54.5972 89.052 52.2386 92.9716 51.567C94.6116 51.5017 96.3793 51.1238 97.426 50.7724C98.2129 50.4831 98.5947 49.6564 98.5309 48.825C98.5309 47.7431 97.6434 47.2632 95.6221 47.2632C93.0945 47.2632 92.7775 48.825 92.7177 50.0717H88.5464C88.6127 44.5564 93.2867 44.0453 95.6221 44.0453C97.3306 44.0453 98.8146 44.3292 99.6703 44.6829C101.376 45.3834 102.732 46.7854 102.732 49.53V58.9656C102.702 59.7305 103.146 60.4974 103.711 61.0038V61.613H99.0367Z" fill="#1E2044"/>
<path fill-rule="evenodd" clip-rule="evenodd" d="M104.466 44.6829H106.871V42.6732C106.871 40.094 108.167 38.3705 111.04 38.3705H113.792V41.6858H112.245C111.644 41.6858 111.294 42.0713 111.294 42.8639V44.6829H113.919V47.6467H111.294V61.6129H106.871V47.6467H104.466V44.6829Z" fill="#1E2044"/>
<path fill-rule="evenodd" clip-rule="evenodd" d="M115.838 44.3293H120.264V47.6811H120.325C120.608 46.6602 120.83 46.0561 122.378 44.9679C123.137 44.3927 124.149 43.8196 125.538 44.0454V48.6044C123.645 48.3828 120.799 48.1277 120.264 51.8885V61.613H115.838V44.3293Z" fill="#1E2044"/>
<path fill-rule="evenodd" clip-rule="evenodd" d="M136.815 53.4834C135.551 54.247 133.845 54.186 132.713 54.4054C131.354 54.6629 130.408 55.8091 130.783 57.2144C131.037 58.2309 131.83 58.9655 133.719 58.6475C136.343 58.2309 136.815 56.3831 136.815 54.4688V53.4834ZM137.326 61.613C137.007 61.1989 136.815 60.4974 136.848 59.891C135.299 61.3563 133.943 62.3441 131.354 62.3441C127.876 62.3441 126.166 60.3703 126.298 57.0216C126.392 54.5972 127.336 52.2386 131.258 51.567C132.901 51.5017 134.671 51.1238 135.711 50.7724C136.507 50.4831 136.884 49.6564 136.815 48.825C136.815 47.7431 135.933 47.2632 133.911 47.2632C131.381 47.2632 131.069 48.825 131.003 50.0717H126.836C126.896 44.5564 131.569 44.0453 133.911 44.0453C135.618 44.0453 137.102 44.3292 137.957 44.6829C139.658 45.3834 141.019 46.7854 141.019 49.53V58.9656C140.987 59.7305 141.43 60.4974 142 61.0038V61.613H137.326Z" fill="#1E2044"/>
<path fill-rule="evenodd" clip-rule="evenodd" d="M44.7153 52.056C44.6438 50.4706 44.0504 49.5099 43.4638 48.9311H43.471C44.249 48.9311 45.3316 49.6139 45.3316 50.7062C45.3316 51.3092 45.1273 51.7486 44.7153 52.056ZM42.0838 55.0924V53.5706C42.6459 53.5581 43.1551 53.5061 43.6102 53.4165C43.3906 54.452 42.818 54.9431 42.0838 55.0924ZM39.9601 53.3189C40.247 53.4193 40.6035 53.5005 41.0689 53.5424V55.0613C40.5083 54.8618 40.0243 54.295 39.9601 53.3189ZM39.9525 48.9311H41.0689V52.6041C40.6524 52.5488 40.2821 52.4476 39.9525 52.3131V48.9311ZM38.1933 46.4734C38.1933 45.9228 38.4444 45.4461 38.9375 45.102V47.7942C38.465 47.5214 38.1933 47.0204 38.1933 46.4734ZM41.0689 42.2293V43.6089C40.6947 43.6195 40.3341 43.6595 39.9933 43.7275C40.1159 43.0411 40.5107 42.4714 41.0689 42.2293ZM43.244 43.9442C42.9323 43.8346 42.5538 43.7233 42.0838 43.6596V42.1688C42.6276 42.3476 43.0872 42.9078 43.244 43.9442ZM42.0838 47.9644V44.5845C42.5078 44.6437 42.916 44.7475 43.2999 44.8881C43.2604 46.3492 42.5209 47.704 42.0838 47.9644ZM39.9525 44.6692C40.2799 44.5901 40.6522 44.5423 41.0689 44.5307V48.0095H39.9525V44.6692ZM43.7069 52.4826C43.2598 52.5853 42.7192 52.6379 42.0838 52.6492V48.9403C42.5479 49.0474 43.7078 50.1735 43.7078 52.3788C43.7078 52.4137 43.7074 52.4483 43.7069 52.4826ZM43.3018 48.0095H43.2508C43.7591 47.3772 44.1636 46.3759 44.2815 45.358C44.6384 45.574 44.9584 45.8237 45.2302 46.0979C45.3654 46.2345 45.4331 46.3027 45.5346 46.3027C45.7376 46.3027 45.8391 46.1321 45.7376 45.9613C45.467 45.5176 45.3654 45.1421 45.3654 44.6643C45.3654 44.357 45.467 44.0839 45.5346 43.9132C45.6022 43.7426 45.5346 43.5719 45.3316 43.5719C45.1624 43.5719 45.1287 43.7084 45.061 43.8108C44.9311 44.0402 44.6761 44.2376 44.2967 44.2531C44.1506 42.4084 43.2158 41.5051 42.2516 41.2559C42.5978 40.4244 43.4553 39.9141 44.5873 39.6805C44.7565 39.6463 44.8918 39.5781 44.8918 39.4415C44.8918 39.2709 44.7565 39.2026 44.5873 39.2026C44.2152 39.2026 43.6738 39.4074 43.234 39.5439C42.5575 39.7487 41.9824 39.8853 41.4748 39.8853C40.3923 39.8853 39.4449 39.4074 39.1405 39.4074C39.0052 39.4074 38.9037 39.5098 38.9037 39.6463C38.9037 39.7487 38.9714 39.8511 39.1743 39.9194C40.0737 40.2138 40.6586 40.6842 40.9168 41.3183C40.3825 41.5163 39.9394 41.9189 39.6364 42.445C39.2764 41.7125 38.8204 41.3873 38.1594 41.3873C37.5166 41.3873 37.0091 41.8651 37.0091 42.4454C37.0091 42.855 37.2798 43.1623 37.5843 43.1623C37.7196 43.1623 37.7872 43.094 37.7872 42.9916C37.7872 42.855 37.7196 42.8209 37.7196 42.6161C37.7196 42.4113 37.8887 42.2406 38.1594 42.2406C38.5653 42.2406 38.9375 42.6503 38.9375 43.7767V44.0572C37.8733 44.5328 37.1783 45.3708 37.1783 46.5075C37.1783 47.6752 37.9415 48.5484 38.9375 48.8323V51.7121C38.1786 51.0958 37.7535 50.2991 37.4828 49.7163C37.4151 49.5797 37.3474 49.409 37.1783 49.409C36.9753 49.409 36.9076 49.6139 37.0091 49.8528C37.1106 50.0917 37.1783 50.4672 37.1783 50.8086C37.1783 51.2182 37.043 51.5937 36.7723 51.8668C36.637 52.0033 36.5355 52.1056 36.5355 52.2081C36.5355 52.3446 36.637 52.4129 36.7385 52.4129C36.9415 52.4129 37.1783 52.174 37.6181 52.174C37.8887 52.174 38.227 52.3105 38.7684 52.6519C38.8252 52.6856 38.8811 52.7217 38.9375 52.7594V53.1639V53.6418C38.9375 54.1197 38.7345 54.4269 38.3286 54.4269C38.0579 54.4269 37.8887 54.2221 37.8887 53.949C37.8887 53.7442 38.0241 53.676 38.0241 53.5736C38.0241 53.4711 37.9564 53.4028 37.8211 53.4028C37.6181 53.4028 37.2798 53.71 37.2798 54.2221C37.2798 54.7 37.6181 55.2803 38.3286 55.2803C38.7309 55.2803 39.1088 55.157 39.4624 54.806C39.7902 55.3403 40.3653 55.8172 41.0157 55.9932C40.8375 56.8948 40.2209 57.6357 39.3435 57.6357C38.9037 57.6357 38.6669 57.3967 38.6669 57.0894C38.6669 56.8505 38.836 56.714 38.9714 56.6457C39.1405 56.5774 39.2758 56.5433 39.2758 56.3385C39.2758 56.2361 39.2081 56.0995 38.8698 56.0995C38.2609 56.0995 37.7535 56.6457 37.7535 57.2943C37.7535 58.0111 38.2609 58.6938 39.3097 58.6938C40.2035 58.6938 40.9818 58.2515 41.4736 57.6939C42.0523 58.1657 42.9338 58.5572 43.3695 58.5572C43.5047 58.5572 43.6401 58.489 43.6401 58.3524C43.6401 58.2159 43.5047 58.1135 43.3695 58.0452C42.5913 57.6357 42.0838 57.0553 42.0838 56.0313V56.0144C43.2919 55.7872 44.4217 54.799 44.6714 53.0987C45.7708 52.6274 46.3466 51.8151 46.3466 50.7062C46.3466 49.1018 44.858 48.0095 43.3018 48.0095ZM49.053 57.6357C47.869 57.6357 47.0908 56.9529 47.0908 55.9289C47.0908 55.0754 47.666 54.3927 48.3426 54.3927C48.6132 54.3927 48.85 54.4951 48.85 54.7683C48.85 54.939 48.7824 55.0754 48.9515 55.0754C49.053 55.0754 49.1546 54.973 49.1546 54.7C49.1546 54.3587 48.85 54.0855 48.4102 54.0855H48.3088C48.3764 53.949 48.3764 53.8124 48.3764 53.7784C48.3764 53.4711 48.1397 53.3004 47.9028 53.3004C47.666 53.3004 47.4292 53.437 47.4292 53.6076C47.4292 53.676 47.463 53.71 47.5306 53.71C47.6321 53.71 47.666 53.6076 47.8352 53.6076C47.9704 53.6076 48.0719 53.676 48.0719 53.8466C48.0719 54.0855 47.869 54.1879 47.6998 54.2903C47.1586 54.5976 46.7864 55.212 46.7864 55.9289C46.7864 56.8846 47.3277 57.4991 48.1058 57.7721L47.5983 58.5572C46.9217 58.5572 46.5834 59.0693 45.9744 60.1616C45.9068 59.8885 45.7037 59.6837 45.3654 59.6837C44.9933 59.6837 44.7565 59.9568 44.7565 60.3322C44.7565 60.4347 44.8241 60.503 44.8918 60.503C44.9933 60.503 45.061 60.4347 45.061 60.3322C45.061 60.1616 45.1624 59.9909 45.3654 59.9909C45.6022 59.9909 45.7037 60.1616 45.7037 60.3664C45.7037 60.6054 45.67 60.7419 45.5008 61.015C44.7904 62.1756 43.8092 62.7559 42.9634 62.7559C42.2192 62.7559 41.7794 62.3121 41.7794 61.8684C41.7794 61.4588 42.0162 61.1174 42.4222 61.1174C42.6928 61.1174 42.862 61.2881 42.862 61.527C42.862 61.7318 42.6928 61.7318 42.6928 61.8342C42.6928 61.9025 42.7605 61.9366 42.8281 61.9366C43.0312 61.9366 43.1664 61.6977 43.1664 61.4588C43.1664 61.0833 42.862 60.8102 42.4222 60.8102C42.0162 60.8102 41.6779 61.0833 41.5763 61.3563C41.4748 61.0833 41.1365 60.8102 40.7306 60.8102C40.2908 60.8102 39.9863 61.0833 39.9863 61.4588C39.9863 61.6977 40.1216 61.9366 40.3246 61.9366C40.3923 61.9366 40.4599 61.9025 40.4599 61.8342C40.4599 61.7318 40.2908 61.7318 40.2908 61.527C40.2908 61.2881 40.4599 61.1174 40.7306 61.1174C41.1365 61.1174 41.3734 61.4588 41.3734 61.8684C41.3734 62.3121 40.9335 62.7559 40.1893 62.7559C39.3435 62.7559 38.3624 62.1756 37.652 61.015C37.4828 60.7419 37.4489 60.6054 37.4489 60.3664C37.4489 60.1616 37.5504 59.9909 37.7872 59.9909C37.9903 59.9909 38.0918 60.1616 38.0918 60.3322C38.0918 60.4347 38.1594 60.503 38.2609 60.503C38.3286 60.503 38.3962 60.4347 38.3962 60.3322C38.3962 59.9568 38.1594 59.6837 37.7872 59.6837C37.4489 59.6837 37.2459 59.8885 37.1783 60.1616C36.5693 59.0693 36.231 58.5572 35.5544 58.5572L35.0469 57.7721C35.8251 57.4991 36.3663 56.8846 36.3663 55.9289C36.3663 55.212 35.9942 54.5976 35.4529 54.2903C35.2838 54.1879 35.0807 54.0855 35.0807 53.8466C35.0807 53.676 35.1822 53.6076 35.3176 53.6076C35.4867 53.6076 35.5205 53.71 35.6221 53.71C35.6897 53.71 35.7236 53.676 35.7236 53.6076C35.7236 53.437 35.4867 53.3004 35.2499 53.3004C35.0131 53.3004 34.7763 53.4711 34.7763 53.7784C34.7763 53.8124 34.7763 53.949 34.8439 54.0855H34.7425C34.3027 54.0855 33.9981 54.3587 33.9981 54.7C33.9981 54.973 34.0996 55.0754 34.2011 55.0754C34.3703 55.0754 34.3027 54.939 34.3027 54.7683C34.3027 54.4951 34.5394 54.3927 34.8101 54.3927C35.4867 54.3927 36.0619 55.0754 36.0619 55.9289C36.0619 56.9529 35.2838 57.6357 34.0996 57.6357C32.7126 57.6357 31.6638 56.6116 31.6638 55.1778C31.6638 53.7784 32.4758 52.8225 33.3892 51.9692L34.1673 51.2182C35.1484 50.2966 35.5544 49.3407 35.5544 48.146C35.5544 46.8489 34.7763 45.4152 33.1524 44.6983C33.4907 44.5959 33.6937 44.2546 33.6937 43.845C33.6937 43.5719 33.5922 43.4012 33.5922 43.1963C33.5922 42.7868 33.829 42.5478 34.1673 42.5478C34.4718 42.5478 34.6748 42.7868 34.6748 43.0257C34.6748 43.2305 34.5394 43.4012 34.3027 43.4012C34.2011 43.4012 34.1335 43.4012 34.1335 43.5036C34.1335 43.606 34.235 43.6402 34.3703 43.6402C34.7763 43.6402 34.9793 43.2988 34.9793 43.1281C35.0469 43.1623 35.1146 43.1963 35.2161 43.1963C35.4529 43.1963 35.6221 43.0257 35.6221 42.7868C35.6221 42.7185 35.5882 42.6161 35.4867 42.6161C35.419 42.6161 35.3853 42.6844 35.3853 42.7527C35.3853 42.855 35.3176 42.9233 35.2161 42.9233C35.0807 42.9233 34.9793 42.8209 34.9116 42.6844C34.7763 42.4454 34.5056 42.2406 34.1673 42.2406C33.7275 42.2406 33.3892 42.5478 33.3215 42.9575C33.1185 42.7527 32.8817 42.5478 32.5434 42.343C32.8141 42.1724 33.0509 42.0358 33.3215 41.831C33.7275 41.5237 34.0996 41.1824 34.5056 40.7386L36.3663 38.6906C37.9903 36.8814 39.039 36.4376 40.0539 36.4376C40.9335 36.4376 41.3734 36.8814 41.3734 37.3934C41.3734 37.7687 41.2136 38.0473 40.96 38.1849C40.816 38.0377 40.7102 37.8365 40.663 37.5982C40.6291 37.4276 40.5952 37.4276 40.5614 37.4276C40.4937 37.4276 40.4937 37.4958 40.4937 37.5641C40.4937 37.8561 40.5628 38.0914 40.6758 38.2738C40.6386 38.2784 40.6005 38.2809 40.5614 38.2809C40.2231 38.2809 40.0201 38.1103 40.0201 37.9055C40.0201 37.8713 40.0201 37.803 40.0878 37.7348C40.1554 37.6665 40.1216 37.6324 40.0878 37.6324C39.9525 37.6324 39.8171 37.803 39.8171 38.0079C39.8171 38.2468 40.0201 38.5882 40.5952 38.5882C40.6804 38.5882 40.7935 38.5772 40.9151 38.5404C41.1059 38.6878 41.3411 38.7588 41.5763 38.7588C41.8116 38.7588 42.0469 38.6878 42.2376 38.5404C42.3591 38.5772 42.4722 38.5882 42.5575 38.5882C43.1326 38.5882 43.3355 38.2468 43.3355 38.0079C43.3355 37.803 43.2003 37.6324 43.0649 37.6324C43.0312 37.6324 42.9972 37.6665 43.0649 37.7348C43.1326 37.803 43.1326 37.8713 43.1326 37.9055C43.1326 38.1103 42.9296 38.2809 42.5913 38.2809C42.5521 38.2809 42.5141 38.2784 42.4769 38.2738C42.59 38.0914 42.6589 37.8561 42.6589 37.5641C42.6589 37.4958 42.6589 37.4276 42.5913 37.4276C42.5575 37.4276 42.5236 37.4276 42.4898 37.5982C42.4426 37.8365 42.3367 38.0377 42.1927 38.1849C41.939 38.0473 41.7794 37.7687 41.7794 37.3934C41.7794 36.8814 42.2192 36.4376 43.0988 36.4376C44.1137 36.4376 45.1624 36.8814 46.7864 38.6906L48.6471 40.7386C49.0193 41.1824 49.4252 41.5237 49.8312 41.831C50.1018 42.0358 50.3387 42.1724 50.6093 42.343C50.271 42.5478 50.0342 42.7527 49.8312 42.9575C49.7635 42.5478 49.4252 42.2406 48.9854 42.2406C48.6471 42.2406 48.3764 42.4454 48.2411 42.6844C48.1734 42.8209 48.0719 42.9233 47.9366 42.9233C47.8352 42.9233 47.7675 42.855 47.7675 42.7527C47.7675 42.6844 47.7336 42.6161 47.666 42.6161C47.5645 42.6161 47.5306 42.7185 47.5306 42.7868C47.5306 43.0257 47.6998 43.1963 47.9366 43.1963C48.0381 43.1963 48.1058 43.1623 48.1734 43.1281C48.1734 43.2988 48.3764 43.6402 48.7824 43.6402C48.9178 43.6402 49.0193 43.606 49.0193 43.5036C49.0193 43.4012 48.9515 43.4012 48.85 43.4012C48.6132 43.4012 48.478 43.2647 48.478 43.0257C48.478 42.7868 48.6809 42.5478 48.9854 42.5478C49.3237 42.5478 49.5605 42.7868 49.5605 43.1963C49.5605 43.4012 49.4591 43.5719 49.4591 43.845C49.4591 44.2546 49.662 44.5959 50.0003 44.6983C48.3764 45.4152 47.5983 46.8489 47.5983 48.146C47.5983 49.3407 48.0043 50.2966 48.9854 51.2182L49.7635 51.9692C50.677 52.8225 51.4889 53.7784 51.4889 55.1778C51.4889 56.6116 50.4401 57.6357 49.053 57.6357ZM41.5763 63.9848C41.3057 63.4386 41.0013 63.0972 40.8659 62.9266C41.2042 62.7901 41.4411 62.5511 41.5763 62.278C41.7117 62.5511 41.9485 62.7901 42.2868 62.9266C42.1515 63.0972 41.847 63.4386 41.5763 63.9848ZM41.9185 38.378C41.8123 38.4258 41.6968 38.4515 41.5763 38.4515C41.4558 38.4515 41.3404 38.4258 41.2343 38.378C41.3664 38.2771 41.4886 38.1295 41.5763 37.9167C41.6641 38.1295 41.7863 38.2771 41.9185 38.378ZM52.0302 53.71C51.8273 53.71 51.6581 53.8124 51.5904 53.949C51.3197 53.3346 51.0491 52.7543 49.865 51.6619C49.9327 51.6961 50.1695 51.7302 50.3387 51.7302C50.7108 51.7302 51.1168 51.6278 51.3536 51.3889C51.4212 51.6278 51.6242 51.7643 51.8611 51.7643C52.2332 51.7643 52.3685 51.5254 52.3685 51.2523C52.3685 51.1499 52.3347 51.0475 52.2332 51.0475C52.0302 51.0475 52.1993 51.4571 51.8611 51.4571C51.7257 51.4571 51.6242 51.3547 51.6242 51.1841C51.6242 51.0133 51.7257 50.8086 51.7257 50.5696C51.7257 50.0234 51.3874 49.6479 50.9814 49.5455C50.7446 49.4773 50.6093 49.3066 50.6093 49.1018C50.6093 48.8287 50.8123 48.7946 50.9477 48.7946C51.0829 48.7946 51.1845 48.8287 51.1845 48.7263C51.1845 48.6239 51.0829 48.5556 50.8799 48.5556C50.6431 48.5556 50.3048 48.7263 50.3048 49.1018C50.3048 49.2383 50.3387 49.3749 50.474 49.5115C50.1695 49.5797 49.8989 49.8187 49.8989 50.1942C49.8989 50.433 49.9665 50.672 50.1357 50.672C50.3387 50.672 50.1695 50.5014 50.1695 50.2282C50.1695 49.921 50.4401 49.7845 50.7108 49.7845C51.0829 49.7845 51.4212 50.1258 51.4212 50.5696C51.4212 51.0816 51.0153 51.4229 50.3725 51.4229C50.0003 51.4229 49.4591 51.3547 49.0193 50.8427C48.3088 50.0576 47.9028 49.3749 47.9028 48.146C47.9028 46.5758 49.0193 45.2104 50.6431 44.7666C50.9814 44.6643 51.2521 44.357 51.2521 43.9474C51.2521 43.606 51.0491 43.333 50.7108 43.333C50.5755 43.333 50.474 43.3671 50.474 43.4695C50.474 43.5719 50.5755 43.5719 50.6431 43.5719C50.7785 43.5719 50.9477 43.7084 50.9477 43.9474C50.9477 44.2887 50.677 44.4935 50.3725 44.4935C50.0003 44.4935 49.7635 44.2204 49.7635 43.845C49.7635 43.1281 50.6093 42.6503 51.2521 42.343C50.677 42.07 50.474 41.9676 50.0342 41.6262C49.9327 41.5237 49.8989 41.4213 49.8989 41.2849C49.8989 41.1141 50.0003 40.9776 50.1357 40.9776C50.2372 40.9776 50.3048 41.0459 50.3048 41.1483C50.3048 41.2507 50.2372 41.2507 50.2372 41.3189C50.2372 41.3873 50.271 41.4213 50.3387 41.4213C50.4063 41.4213 50.5755 41.3531 50.5755 41.08C50.5755 40.8752 50.4401 40.6704 50.1357 40.6704C49.8312 40.6704 49.5944 40.9093 49.5944 41.2507C49.3576 41.0459 49.0869 40.8069 48.85 40.5338L47.7675 39.3391C47.463 38.9978 47.6321 38.3492 48.0719 38.3492C48.3088 38.3492 48.4102 38.5199 48.4102 38.6564C48.4102 38.9636 48.1058 38.8271 48.1058 38.9978C48.1058 39.066 48.1397 39.1342 48.2411 39.1342C48.478 39.1342 48.7147 38.9636 48.7147 38.6223C48.7147 38.3151 48.4441 38.0419 48.0719 38.0419C47.6321 38.0419 47.3277 38.3833 47.3277 38.8612L46.9894 38.4857C45.5008 36.8472 44.2828 36.1304 43.0988 36.1304C42.6589 36.1304 42.253 36.2669 42.0162 36.4376C41.8132 36.1987 41.7117 36.028 41.5763 35.8232C41.4411 36.028 41.3396 36.1987 41.1365 36.4376C40.8997 36.2669 40.4937 36.1304 40.0539 36.1304C38.8698 36.1304 37.652 36.8472 36.1634 38.4857L35.8251 38.8612C35.8251 38.3833 35.5205 38.0419 35.0807 38.0419C34.7086 38.0419 34.4379 38.3151 34.4379 38.6223C34.4379 38.9636 34.6748 39.1342 34.9116 39.1342C35.0131 39.1342 35.0469 39.066 35.0469 38.9978C35.0469 38.8271 34.7425 38.9636 34.7425 38.6564C34.7425 38.5199 34.8439 38.3492 35.0807 38.3492C35.5205 38.3492 35.6897 38.9978 35.3853 39.3391L34.3027 40.5338C34.0659 40.8069 33.7952 41.0459 33.5583 41.2507C33.5583 40.9093 33.3215 40.6704 33.017 40.6704C32.7126 40.6704 32.5772 40.8752 32.5772 41.08C32.5772 41.3531 32.7464 41.4213 32.8141 41.4213C32.8817 41.4213 32.9156 41.3873 32.9156 41.3189C32.9156 41.2507 32.8478 41.2507 32.8478 41.1483C32.8478 41.0459 32.9156 40.9776 33.017 40.9776C33.1524 40.9776 33.2539 41.1141 33.2539 41.2849C33.2539 41.4213 33.22 41.5237 33.1185 41.6262C32.7126 42.0358 32.4758 42.07 31.9006 42.343C32.5434 42.6503 33.3892 43.1281 33.3892 43.845C33.3892 44.2204 33.1524 44.4935 32.7802 44.4935C32.4758 44.4935 32.2051 44.2887 32.2051 43.9474C32.2051 43.7084 32.3743 43.5719 32.5095 43.5719C32.5772 43.5719 32.6787 43.5719 32.6787 43.4695C32.6787 43.3671 32.5772 43.333 32.4419 43.333C32.1036 43.333 31.9006 43.606 31.9006 43.9474C31.9006 44.357 32.1712 44.6643 32.5095 44.7666C34.1335 45.2445 35.2499 46.5758 35.2499 48.146C35.2499 49.3749 34.8101 50.0234 34.1335 50.8427C33.6937 51.3547 33.1524 51.4229 32.7802 51.4229C32.1374 51.4229 31.7314 51.0816 31.7314 50.5696C31.7314 50.1258 32.0697 49.7845 32.4419 49.7845C32.7126 49.7845 32.9832 49.921 32.9832 50.2282C32.9832 50.5014 32.8141 50.672 33.017 50.672C33.1862 50.672 33.2539 50.433 33.2539 50.1942C33.2539 49.8187 32.9832 49.5797 32.6787 49.5115C32.8141 49.3749 32.8478 49.2383 32.8478 49.1018C32.8478 48.7263 32.5095 48.5556 32.2728 48.5556C32.0697 48.5556 31.9682 48.6239 31.9682 48.7263C31.9682 48.8287 32.0697 48.7946 32.2051 48.7946C32.3404 48.7946 32.5434 48.8287 32.5434 49.1018C32.5434 49.3066 32.408 49.4773 32.1712 49.5455C31.7653 49.6479 31.427 50.0234 31.427 50.5696C31.427 50.8086 31.5285 51.0133 31.5285 51.1841C31.5285 51.3547 31.427 51.4571 31.2916 51.4571C30.9534 51.4571 31.1225 51.0475 30.9195 51.0475C30.818 51.0475 30.7842 51.1499 30.7842 51.2523C30.7842 51.5254 30.9195 51.7643 31.2916 51.7643C31.5285 51.7643 31.7314 51.6278 31.7991 51.3889C32.036 51.6278 32.4419 51.7302 32.8141 51.7302C32.9832 51.7302 33.22 51.6961 33.2877 51.6619C32.1036 52.7543 31.8329 53.3346 31.5623 53.949C31.4946 53.8124 31.3255 53.71 31.1225 53.71C30.7842 53.71 30.6151 53.9149 30.6151 54.2221C30.6151 54.2903 30.6151 54.4951 30.7842 54.4951C30.9195 54.4951 30.8519 54.3587 30.8519 54.2563C30.8519 54.1197 30.9534 54.0173 31.1225 54.0173C31.3931 54.0173 31.4608 54.2563 31.3931 54.6317C31.3593 54.8024 31.3593 55.0072 31.3593 55.1778C31.3593 56.7822 32.5434 57.9428 34.0996 57.9428C34.3365 57.9428 34.5394 57.9087 34.7763 57.8745L35.2499 58.5914C34.9116 58.6938 34.6748 59.001 34.6748 59.3423C34.6748 59.7862 35.0131 60.1274 35.4529 60.1274C35.7236 60.1274 35.9265 59.9909 35.9265 59.8544C35.9265 59.752 35.8588 59.7179 35.7912 59.7179C35.6897 59.7179 35.6897 59.8203 35.4529 59.8203C35.1822 59.8203 34.9793 59.6155 34.9793 59.3423C34.9793 59.0693 35.2161 58.8645 35.5544 58.8645C36.1971 58.8645 36.5017 59.6155 36.9415 60.3664L37.3813 61.1174C38.0918 62.3463 39.242 63.0631 40.1893 63.0631C40.3246 63.0631 40.4599 63.0631 40.5952 63.029C41.0013 63.4386 41.4072 64.1896 41.5763 64.5309C41.7455 64.1896 42.1515 63.4386 42.5575 63.029C42.6928 63.0631 42.8281 63.0631 42.9634 63.0631C43.9107 63.0631 45.061 62.3463 45.7714 61.1174L46.2112 60.3664C46.651 59.6155 46.9555 58.8645 47.5983 58.8645C47.9366 58.8645 48.1734 59.0693 48.1734 59.3423C48.1734 59.6155 47.9704 59.8203 47.6998 59.8203C47.463 59.8203 47.463 59.7179 47.3614 59.7179C47.2938 59.7179 47.2262 59.752 47.2262 59.8544C47.2262 59.9909 47.4292 60.1274 47.6998 60.1274C48.1397 60.1274 48.478 59.7862 48.478 59.3423C48.478 59.001 48.2411 58.6938 47.9028 58.5914L48.3764 57.8745C48.6132 57.9087 48.8163 57.9428 49.053 57.9428C50.6093 57.9428 51.7934 56.7822 51.7934 55.1778C51.7934 55.0072 51.7934 54.8024 51.7595 54.6317C51.6919 54.2563 51.7595 54.0173 52.0302 54.0173C52.1993 54.0173 52.3008 54.1197 52.3008 54.2563C52.3008 54.3587 52.2332 54.4951 52.3685 54.4951C52.5377 54.4951 52.5377 54.2903 52.5377 54.2221C52.5377 53.9149 52.3685 53.71 52.0302 53.71ZM51.1506 59.5813C49.662 61.1174 47.463 62.2097 45.3654 63.2338C43.9784 63.9165 42.6251 64.5992 41.5763 65.4184C40.5276 64.5992 39.1743 63.9165 37.7872 63.2338C35.6897 62.2097 33.4907 61.1174 32.0021 59.5813C30.1076 57.6357 29.1941 55.6558 29.1941 53.4028C29.1941 51.4913 29.9384 49.8869 31.6299 47.7364C31.7653 47.5657 31.9006 47.3951 31.9006 47.2584C31.9006 47.122 31.7653 46.8489 31.6976 46.7124L30.5136 44.118C30.2429 43.5377 29.9722 42.9916 29.9722 42.4113C29.9722 41.9334 30.2768 41.5921 30.6827 41.2507L32.3743 39.7146C32.4419 39.6463 32.4419 39.5439 32.408 39.4756L31.8668 38.3492C31.7991 38.2127 31.7991 38.1103 31.9006 38.0419C33.5583 36.9155 34.9455 36.5741 36.9415 36.028C38.836 35.516 40.5276 35.0721 41.5763 34.3895C42.6251 35.0721 44.3167 35.516 46.2112 36.028C48.2073 36.5741 49.5605 36.9838 51.2521 38.0419C51.3536 38.1103 51.3536 38.2127 51.286 38.3492L50.7446 39.4756C50.7108 39.5439 50.7108 39.6463 50.7785 39.7146L52.47 41.2507C52.876 41.5921 53.1805 41.9334 53.1805 42.4113C53.1805 42.9916 52.9098 43.5377 52.6391 44.118L51.4551 46.7124C51.3874 46.8489 51.2521 47.122 51.2521 47.2584C51.2521 47.3951 51.3874 47.5657 51.5228 47.7364C53.3496 49.7845 53.9586 51.4913 53.9586 53.4028C53.9586 55.6558 53.0452 57.6357 51.1506 59.5813ZM52.7406 47.8388C52.4362 47.4633 52.2671 47.2926 52.2671 47.1561C52.2671 47.0195 52.3685 46.8148 52.47 46.5758L53.485 44.3229C53.7894 43.6402 54.0601 43.0599 54.0601 42.343C54.0601 41.831 53.8571 41.3189 53.3496 40.8752L51.8949 39.6122C51.7595 39.5098 51.7595 39.3391 51.8273 39.2026L52.3685 37.9737C52.4023 37.9055 52.4023 37.803 52.3008 37.7348C50.6431 36.6083 48.7486 35.9256 46.9555 35.4135C45.1624 34.9357 42.7605 34.253 41.5763 33.3313C40.3923 34.253 37.9903 34.9015 36.1971 35.4135C34.4042 35.9256 32.5095 36.6083 30.8519 37.7348C30.7503 37.803 30.7503 37.9055 30.7842 37.9737L31.3255 39.2026C31.3931 39.3391 31.3931 39.5098 31.2578 39.6122L29.8031 40.8752C29.2956 41.3189 29.0926 41.831 29.0926 42.343C29.0926 43.0599 29.3633 43.6402 29.6678 44.3229L30.6827 46.5758C30.7842 46.8148 30.8857 47.0195 30.8857 47.1561C30.8857 47.2926 30.7165 47.4633 30.412 47.8388C28.8896 49.7503 28.2806 51.3205 28.2806 53.4028C28.2806 56.3043 29.7016 58.5232 31.3255 60.1958C32.9832 61.9025 35.2838 63.029 37.3813 64.053C38.7684 64.7357 40.2231 65.4184 41.5763 66.5108C42.9296 65.4184 44.3843 64.7357 45.7714 64.053C47.869 63.029 50.2033 61.9025 51.8273 60.1958C53.4511 58.5232 54.872 56.3043 54.872 53.4028C54.872 51.3205 54.2631 49.7503 52.7406 47.8388Z" fill="#1E2044"/>
<rect width="60" height="60" transform="translate(175 20)" fill="white"/>
<path fill-rule="evenodd" clip-rule="evenodd" d="M208.901 52.9523C208.805 50.8396 208.015 49.5594 207.233 48.7881H207.242C208.279 48.7881 209.722 49.6979 209.722 51.1535C209.722 51.957 209.45 52.5427 208.901 52.9523ZM205.394 56.9986V54.9706C206.143 54.9539 206.822 54.8847 207.428 54.7653C207.135 56.1452 206.372 56.7996 205.394 56.9986ZM202.564 54.6352C202.946 54.769 203.421 54.8772 204.041 54.933V56.957C203.294 56.6913 202.649 55.9359 202.564 54.6352ZM202.554 48.7881H204.041V53.6827C203.486 53.609 202.993 53.4741 202.554 53.2949V48.7881ZM200.209 45.513C200.209 44.7793 200.544 44.144 201.201 43.6855V47.273C200.572 46.9095 200.209 46.2419 200.209 45.513ZM204.041 39.8574V41.6958C203.543 41.7099 203.062 41.7633 202.608 41.8539C202.772 40.9392 203.298 40.18 204.041 39.8574ZM206.94 42.1426C206.525 41.9966 206.02 41.8483 205.394 41.7634V39.7767C206.119 40.0151 206.731 40.7615 206.94 42.1426ZM205.394 47.4998V42.9959C205.959 43.0747 206.503 43.213 207.015 43.4005C206.962 45.3475 205.976 47.1529 205.394 47.4998ZM202.554 43.1087C202.99 43.0034 203.486 42.9397 204.041 42.9241V47.5599H202.554V43.1087ZM207.557 53.5207C206.961 53.6576 206.241 53.7277 205.394 53.7427V48.8004C206.012 48.943 207.558 50.4437 207.558 53.3824C207.558 53.429 207.558 53.4751 207.557 53.5207ZM207.017 47.5599H206.949C207.626 46.7174 208.165 45.3831 208.323 44.0266C208.798 44.3145 209.225 44.6473 209.587 45.0126C209.767 45.1946 209.857 45.2855 209.992 45.2855C210.263 45.2855 210.398 45.0581 210.263 44.8306C209.902 44.2393 209.767 43.7389 209.767 43.1021C209.767 42.6927 209.902 42.3288 209.992 42.1013C210.083 41.8739 209.992 41.6464 209.722 41.6464C209.496 41.6464 209.451 41.8284 209.361 41.9649C209.188 42.2706 208.848 42.5336 208.343 42.5542C208.148 40.0961 206.902 38.8923 205.618 38.5602C206.079 37.4522 207.222 36.7721 208.73 36.4608C208.956 36.4153 209.136 36.3244 209.136 36.1424C209.136 35.915 208.956 35.824 208.73 35.824C208.234 35.824 207.513 36.0969 206.927 36.2789C206.025 36.5518 205.259 36.7337 204.582 36.7337C203.14 36.7337 201.877 36.0969 201.472 36.0969C201.291 36.0969 201.156 36.2333 201.156 36.4153C201.156 36.5518 201.246 36.6882 201.517 36.7793C202.715 37.1715 203.495 37.7984 203.839 38.6434C203.127 38.9072 202.536 39.4437 202.132 40.1447C201.653 39.1687 201.045 38.7353 200.164 38.7353C199.308 38.7353 198.631 39.372 198.631 40.1453C198.631 40.6911 198.992 41.1006 199.398 41.1006C199.578 41.1006 199.668 41.0097 199.668 40.8732C199.668 40.6911 199.578 40.6457 199.578 40.3728C199.578 40.0999 199.804 39.8724 200.164 39.8724C200.705 39.8724 201.201 40.4183 201.201 41.9193V42.2932C199.783 42.9269 198.857 44.0437 198.857 45.5584C198.857 47.1145 199.874 48.2782 201.201 48.6564V52.494C200.19 51.6727 199.623 50.6111 199.263 49.8344C199.173 49.6524 199.082 49.4249 198.857 49.4249C198.586 49.4249 198.496 49.6979 198.631 50.0163C198.767 50.3347 198.857 50.8351 198.857 51.2899C198.857 51.8359 198.677 52.3362 198.316 52.7001C198.136 52.882 198 53.0184 198 53.155C198 53.3369 198.136 53.4279 198.271 53.4279C198.541 53.4279 198.857 53.1095 199.443 53.1095C199.804 53.1095 200.254 53.2915 200.976 53.7464C201.052 53.7913 201.126 53.8394 201.201 53.8896V54.4286V55.0655C201.201 55.7023 200.931 56.1117 200.39 56.1117C200.029 56.1117 199.804 55.8388 199.804 55.4748C199.804 55.2019 199.984 55.111 199.984 54.9746C199.984 54.838 199.894 54.7471 199.713 54.7471C199.443 54.7471 198.992 55.1564 198.992 55.8388C198.992 56.4757 199.443 57.249 200.39 57.249C200.926 57.249 201.429 57.0846 201.901 56.6169C202.337 57.3289 203.104 57.9644 203.971 58.1989C203.733 59.4004 202.911 60.3876 201.742 60.3876C201.156 60.3876 200.841 60.0692 200.841 59.6597C200.841 59.3413 201.066 59.1594 201.246 59.0684C201.472 58.9775 201.652 58.9319 201.652 58.659C201.652 58.5226 201.562 58.3406 201.111 58.3406C200.3 58.3406 199.623 59.0684 199.623 59.9328C199.623 60.8879 200.3 61.7977 201.697 61.7977C202.888 61.7977 203.925 61.2084 204.581 60.4653C205.352 61.094 206.527 61.6157 207.107 61.6157C207.287 61.6157 207.468 61.5248 207.468 61.3428C207.468 61.1608 207.287 61.0244 207.107 60.9335C206.07 60.3876 205.394 59.6143 205.394 58.2497V58.2271C207.004 57.9244 208.509 56.6076 208.842 54.3418C210.307 53.7137 211.074 52.6313 211.074 51.1535C211.074 49.0155 209.091 47.5599 207.017 47.5599ZM214.681 60.3876C213.103 60.3876 212.066 59.4779 212.066 58.1132C212.066 56.976 212.833 56.0662 213.734 56.0662C214.095 56.0662 214.411 56.2026 214.411 56.5666C214.411 56.7941 214.32 56.976 214.546 56.976C214.681 56.976 214.816 56.8395 214.816 56.4757C214.816 56.0208 214.411 55.6568 213.824 55.6568H213.689C213.779 55.4748 213.779 55.2929 213.779 55.2475C213.779 54.838 213.464 54.6106 213.148 54.6106C212.833 54.6106 212.517 54.7926 212.517 55.02C212.517 55.111 212.562 55.1564 212.652 55.1564C212.788 55.1564 212.833 55.02 213.058 55.02C213.238 55.02 213.374 55.111 213.374 55.3384C213.374 55.6568 213.103 55.7933 212.878 55.9297C212.156 56.3392 211.661 57.1579 211.661 58.1132C211.661 59.3868 212.382 60.2057 213.419 60.5695L212.742 61.6157C211.841 61.6157 211.39 62.2981 210.578 63.7537C210.488 63.3897 210.218 63.1168 209.767 63.1168C209.271 63.1168 208.956 63.4808 208.956 63.9811C208.956 64.1177 209.046 64.2086 209.136 64.2086C209.271 64.2086 209.361 64.1177 209.361 63.9811C209.361 63.7537 209.496 63.5262 209.767 63.5262C210.083 63.5262 210.218 63.7537 210.218 64.0266C210.218 64.345 210.173 64.527 209.947 64.8909C209.001 66.4375 207.693 67.2108 206.566 67.2108C205.574 67.2108 204.988 66.6195 204.988 66.0281C204.988 65.4823 205.304 65.0274 205.845 65.0274C206.205 65.0274 206.431 65.2548 206.431 65.5732C206.431 65.8462 206.205 65.8462 206.205 65.9826C206.205 66.0737 206.296 66.1191 206.386 66.1191C206.656 66.1191 206.837 65.8006 206.837 65.4823C206.837 64.9819 206.431 64.618 205.845 64.618C205.304 64.618 204.853 64.9819 204.718 65.3457C204.582 64.9819 204.132 64.618 203.591 64.618C203.005 64.618 202.599 64.9819 202.599 65.4823C202.599 65.8006 202.779 66.1191 203.05 66.1191C203.14 66.1191 203.23 66.0737 203.23 65.9826C203.23 65.8462 203.005 65.8462 203.005 65.5732C203.005 65.2548 203.23 65.0274 203.591 65.0274C204.132 65.0274 204.447 65.4823 204.447 66.0281C204.447 66.6195 203.861 67.2108 202.869 67.2108C201.742 67.2108 200.435 66.4375 199.488 64.8909C199.263 64.527 199.218 64.345 199.218 64.0266C199.218 63.7537 199.353 63.5262 199.668 63.5262C199.939 63.5262 200.074 63.7537 200.074 63.9811C200.074 64.1177 200.164 64.2086 200.3 64.2086C200.39 64.2086 200.48 64.1177 200.48 63.9811C200.48 63.4808 200.164 63.1168 199.668 63.1168C199.218 63.1168 198.947 63.3897 198.857 63.7537C198.045 62.2981 197.595 61.6157 196.693 61.6157L196.017 60.5695C197.054 60.2057 197.775 59.3868 197.775 58.1132C197.775 57.1579 197.279 56.3392 196.558 55.9297C196.332 55.7933 196.062 55.6568 196.062 55.3384C196.062 55.111 196.197 55.02 196.377 55.02C196.603 55.02 196.648 55.1564 196.783 55.1564C196.873 55.1564 196.918 55.111 196.918 55.02C196.918 54.7926 196.603 54.6106 196.287 54.6106C195.972 54.6106 195.656 54.838 195.656 55.2475C195.656 55.2929 195.656 55.4748 195.746 55.6568H195.611C195.025 55.6568 194.619 56.0208 194.619 56.4757C194.619 56.8395 194.754 56.976 194.89 56.976C195.115 56.976 195.025 56.7941 195.025 56.5666C195.025 56.2026 195.34 56.0662 195.701 56.0662C196.603 56.0662 197.369 56.976 197.369 58.1132C197.369 59.4779 196.332 60.3876 194.754 60.3876C192.906 60.3876 191.508 59.023 191.508 57.1124C191.508 55.2475 192.59 53.9737 193.808 52.8366L194.845 51.8359C196.152 50.6077 196.693 49.334 196.693 47.7419C196.693 46.0133 195.656 44.1028 193.492 43.1475C193.943 43.0111 194.213 42.5562 194.213 42.0104C194.213 41.6464 194.078 41.4191 194.078 41.146C194.078 40.6002 194.394 40.2818 194.845 40.2818C195.25 40.2818 195.521 40.6002 195.521 40.9186C195.521 41.1915 195.34 41.419 195.025 41.419C194.89 41.419 194.799 41.419 194.799 41.5555C194.799 41.692 194.935 41.7375 195.115 41.7375C195.656 41.7375 195.927 41.2826 195.927 41.0551C196.017 41.1006 196.107 41.146 196.242 41.146C196.558 41.146 196.783 40.9186 196.783 40.6002C196.783 40.5093 196.738 40.3728 196.603 40.3728C196.513 40.3728 196.468 40.4638 196.468 40.5548C196.468 40.6911 196.377 40.7822 196.242 40.7822C196.062 40.7822 195.927 40.6457 195.836 40.4638C195.656 40.1453 195.295 39.8724 194.845 39.8724C194.258 39.8724 193.808 40.2818 193.717 40.8277C193.447 40.5548 193.131 40.2818 192.68 40.0089C193.041 39.7815 193.357 39.5995 193.717 39.3266C194.258 38.9171 194.754 38.4622 195.295 37.8709L197.775 35.1417C199.939 32.7308 201.336 32.1394 202.689 32.1394C203.861 32.1394 204.447 32.7308 204.447 33.4131C204.447 33.9133 204.234 34.2845 203.896 34.4678C203.704 34.2716 203.563 34.0036 203.5 33.686C203.455 33.4586 203.41 33.4586 203.365 33.4586C203.275 33.4586 203.275 33.5496 203.275 33.6406C203.275 34.0296 203.367 34.3433 203.518 34.5863C203.468 34.5924 203.417 34.5958 203.365 34.5958C202.914 34.5958 202.644 34.3684 202.644 34.0955C202.644 34.05 202.644 33.9589 202.734 33.868C202.824 33.7771 202.779 33.7315 202.734 33.7315C202.554 33.7315 202.373 33.9589 202.373 34.2319C202.373 34.5504 202.644 35.0053 203.41 35.0053C203.524 35.0053 203.674 34.9907 203.836 34.9415C204.091 35.138 204.404 35.2326 204.718 35.2326C205.031 35.2326 205.345 35.138 205.599 34.9415C205.761 34.9907 205.912 35.0053 206.025 35.0053C206.792 35.0053 207.062 34.5504 207.062 34.2319C207.062 33.9589 206.882 33.7315 206.701 33.7315C206.656 33.7315 206.611 33.7771 206.701 33.868C206.792 33.9589 206.792 34.05 206.792 34.0955C206.792 34.3684 206.521 34.5958 206.07 34.5958C206.018 34.5958 205.967 34.5924 205.918 34.5863C206.068 34.3433 206.16 34.0296 206.16 33.6406C206.16 33.5496 206.16 33.4586 206.07 33.4586C206.025 33.4586 205.98 33.4586 205.935 33.686C205.872 34.0036 205.731 34.2716 205.539 34.4678C205.201 34.2845 204.988 33.9133 204.988 33.4131C204.988 32.7308 205.574 32.1394 206.746 32.1394C208.099 32.1394 209.496 32.7308 211.661 35.1417L214.14 37.8709C214.636 38.4622 215.177 38.9171 215.718 39.3266C216.079 39.5995 216.394 39.7815 216.755 40.0089C216.304 40.2818 215.988 40.5548 215.718 40.8277C215.628 40.2818 215.177 39.8724 214.591 39.8724C214.14 39.8724 213.779 40.1453 213.599 40.4638C213.509 40.6457 213.374 40.7822 213.193 40.7822C213.058 40.7822 212.968 40.6911 212.968 40.5548C212.968 40.4638 212.923 40.3728 212.833 40.3728C212.697 40.3728 212.652 40.5093 212.652 40.6002C212.652 40.9186 212.878 41.146 213.193 41.146C213.328 41.146 213.419 41.1006 213.509 41.0551C213.509 41.2826 213.779 41.7375 214.32 41.7375C214.501 41.7375 214.636 41.692 214.636 41.5555C214.636 41.419 214.546 41.419 214.411 41.419C214.095 41.419 213.915 41.2371 213.915 40.9186C213.915 40.6002 214.185 40.2818 214.591 40.2818C215.042 40.2818 215.357 40.6002 215.357 41.146C215.357 41.4191 215.222 41.6464 215.222 42.0104C215.222 42.5562 215.493 43.0111 215.943 43.1475C213.779 44.1028 212.742 46.0133 212.742 47.7419C212.742 49.334 213.283 50.6077 214.591 51.8359L215.628 52.8366C216.845 53.9737 217.927 55.2475 217.927 57.1124C217.927 59.023 216.529 60.3876 214.681 60.3876ZM204.718 68.8484C204.357 68.1206 203.951 67.6657 203.771 67.4383C204.222 67.2563 204.537 66.9379 204.718 66.5739C204.898 66.9379 205.214 67.2563 205.664 67.4383C205.484 67.6657 205.078 68.1206 204.718 68.8484ZM205.174 34.7252C205.032 34.7888 204.878 34.8232 204.718 34.8232C204.557 34.8232 204.403 34.7888 204.262 34.7252C204.438 34.5908 204.601 34.3941 204.718 34.1104C204.835 34.3941 204.997 34.5908 205.174 34.7252ZM218.648 55.1564C218.378 55.1564 218.152 55.2929 218.062 55.4748C217.702 54.6561 217.341 53.8828 215.763 52.4271C215.853 52.4726 216.169 52.5182 216.394 52.5182C216.89 52.5182 217.431 52.3817 217.747 52.0633C217.837 52.3817 218.107 52.5636 218.423 52.5636C218.919 52.5636 219.099 52.2452 219.099 51.8813C219.099 51.7448 219.054 51.6084 218.919 51.6084C218.648 51.6084 218.874 52.1542 218.423 52.1542C218.243 52.1542 218.107 52.0177 218.107 51.7904C218.107 51.5629 218.243 51.2899 218.243 50.9715C218.243 50.2437 217.792 49.7433 217.251 49.6069C216.935 49.5159 216.755 49.2884 216.755 49.0155C216.755 48.6517 217.025 48.6062 217.206 48.6062C217.386 48.6062 217.521 48.6517 217.521 48.5151C217.521 48.3787 217.386 48.2877 217.116 48.2877C216.8 48.2877 216.349 48.5151 216.349 49.0155C216.349 49.1975 216.394 49.3795 216.575 49.5615C216.169 49.6524 215.808 49.9708 215.808 50.4712C215.808 50.7895 215.898 51.108 216.124 51.108C216.394 51.108 216.169 50.8806 216.169 50.5166C216.169 50.1073 216.529 49.9253 216.89 49.9253C217.386 49.9253 217.837 50.3802 217.837 50.9715C217.837 51.6538 217.296 52.1087 216.439 52.1087C215.943 52.1087 215.222 52.0177 214.636 51.3355C213.689 50.2892 213.148 49.3795 213.148 47.7419C213.148 45.6495 214.636 43.8299 216.8 43.2386C217.251 43.1021 217.611 42.6927 217.611 42.1468C217.611 41.692 217.341 41.3281 216.89 41.3281C216.71 41.3281 216.575 41.3735 216.575 41.51C216.575 41.6464 216.71 41.6464 216.8 41.6464C216.98 41.6464 217.206 41.8284 217.206 42.1468C217.206 42.6017 216.845 42.8746 216.439 42.8746C215.943 42.8746 215.628 42.5107 215.628 42.0104C215.628 41.0551 216.755 40.4183 217.611 40.0089C216.845 39.645 216.575 39.5086 215.988 39.0537C215.853 38.9171 215.808 38.7807 215.808 38.5988C215.808 38.3713 215.943 38.1893 216.124 38.1893C216.259 38.1893 216.349 38.2804 216.349 38.4168C216.349 38.5533 216.259 38.5533 216.259 38.6442C216.259 38.7353 216.304 38.7807 216.394 38.7807C216.484 38.7807 216.71 38.6897 216.71 38.3258C216.71 38.0529 216.529 37.78 216.124 37.78C215.718 37.78 215.402 38.0984 215.402 38.5533C215.087 38.2804 214.726 37.9619 214.411 37.598L212.968 36.006C212.562 35.5511 212.788 34.6868 213.374 34.6868C213.689 34.6868 213.824 34.9142 213.824 35.0962C213.824 35.5055 213.419 35.3236 213.419 35.5511C213.419 35.642 213.464 35.7329 213.599 35.7329C213.915 35.7329 214.23 35.5055 214.23 35.0507C214.23 34.6413 213.87 34.2773 213.374 34.2773C212.788 34.2773 212.382 34.7322 212.382 35.3691L211.931 34.8687C209.947 32.6853 208.324 31.73 206.746 31.73C206.16 31.73 205.619 31.912 205.304 32.1394C205.033 31.8211 204.898 31.5936 204.718 31.3206C204.537 31.5936 204.402 31.8211 204.132 32.1394C203.816 31.912 203.275 31.73 202.689 31.73C201.111 31.73 199.488 32.6853 197.504 34.8687L197.054 35.3691C197.054 34.7322 196.648 34.2773 196.062 34.2773C195.566 34.2773 195.205 34.6413 195.205 35.0507C195.205 35.5055 195.521 35.7329 195.836 35.7329C195.972 35.7329 196.017 35.642 196.017 35.5511C196.017 35.3236 195.611 35.5055 195.611 35.0962C195.611 34.9142 195.746 34.6868 196.062 34.6868C196.648 34.6868 196.873 35.5511 196.468 36.006L195.025 37.598C194.709 37.9619 194.349 38.2804 194.033 38.5533C194.033 38.0984 193.717 37.78 193.312 37.78C192.906 37.78 192.726 38.0529 192.726 38.3258C192.726 38.6897 192.951 38.7807 193.041 38.7807C193.131 38.7807 193.176 38.7353 193.176 38.6442C193.176 38.5533 193.086 38.5533 193.086 38.4168C193.086 38.2804 193.176 38.1893 193.312 38.1893C193.492 38.1893 193.627 38.3713 193.627 38.5988C193.627 38.7807 193.582 38.9171 193.447 39.0537C192.906 39.5995 192.59 39.645 191.824 40.0089C192.68 40.4183 193.808 41.0551 193.808 42.0104C193.808 42.5107 193.492 42.8746 192.996 42.8746C192.59 42.8746 192.23 42.6017 192.23 42.1468C192.23 41.8284 192.455 41.6464 192.635 41.6464C192.726 41.6464 192.861 41.6464 192.861 41.51C192.861 41.3735 192.726 41.3281 192.545 41.3281C192.094 41.3281 191.824 41.692 191.824 42.1468C191.824 42.6927 192.185 43.1021 192.635 43.2386C194.799 43.8753 196.287 45.6495 196.287 47.7419C196.287 49.3795 195.701 50.2437 194.799 51.3355C194.213 52.0177 193.492 52.1087 192.996 52.1087C192.14 52.1087 191.598 51.6538 191.598 50.9715C191.598 50.3802 192.049 49.9253 192.545 49.9253C192.906 49.9253 193.267 50.1073 193.267 50.5166C193.267 50.8806 193.041 51.108 193.312 51.108C193.537 51.108 193.627 50.7895 193.627 50.4712C193.627 49.9708 193.267 49.6524 192.861 49.5615C193.041 49.3795 193.086 49.1975 193.086 49.0155C193.086 48.5151 192.635 48.2877 192.32 48.2877C192.049 48.2877 191.914 48.3787 191.914 48.5151C191.914 48.6517 192.049 48.6062 192.23 48.6062C192.41 48.6062 192.68 48.6517 192.68 49.0155C192.68 49.2884 192.5 49.5159 192.185 49.6069C191.644 49.7433 191.193 50.2437 191.193 50.9715C191.193 51.2899 191.328 51.5629 191.328 51.7904C191.328 52.0177 191.193 52.1542 191.012 52.1542C190.562 52.1542 190.787 51.6084 190.517 51.6084C190.381 51.6084 190.336 51.7448 190.336 51.8813C190.336 52.2452 190.517 52.5636 191.012 52.5636C191.328 52.5636 191.598 52.3817 191.689 52.0633C192.004 52.3817 192.545 52.5182 193.041 52.5182C193.267 52.5182 193.582 52.4726 193.672 52.4271C192.094 53.8828 191.734 54.6561 191.373 55.4748C191.283 55.2929 191.058 55.1564 190.787 55.1564C190.336 55.1564 190.111 55.4294 190.111 55.8388C190.111 55.9297 190.111 56.2026 190.336 56.2026C190.517 56.2026 190.426 56.0208 190.426 55.8843C190.426 55.7023 190.562 55.5659 190.787 55.5659C191.148 55.5659 191.238 55.8843 191.148 56.3846C191.103 56.6121 191.103 56.885 191.103 57.1124C191.103 59.2504 192.68 60.797 194.754 60.797C195.07 60.797 195.34 60.7515 195.656 60.706L196.287 61.6613C195.836 61.7977 195.521 62.2071 195.521 62.662C195.521 63.2534 195.972 63.7082 196.558 63.7082C196.918 63.7082 197.189 63.5262 197.189 63.3443C197.189 63.2079 197.099 63.1624 197.008 63.1624C196.873 63.1624 196.873 63.2988 196.558 63.2988C196.197 63.2988 195.927 63.0259 195.927 62.662C195.927 62.2981 196.242 62.0252 196.693 62.0252C197.549 62.0252 197.955 63.0259 198.541 64.0266L199.127 65.0274C200.074 66.665 201.607 67.6202 202.869 67.6202C203.05 67.6202 203.23 67.6202 203.41 67.5748C203.951 68.1206 204.492 69.1214 204.718 69.5762C204.943 69.1214 205.484 68.1206 206.025 67.5748C206.205 67.6202 206.386 67.6202 206.566 67.6202C207.828 67.6202 209.361 66.665 210.308 65.0274L210.894 64.0266C211.48 63.0259 211.886 62.0252 212.742 62.0252C213.193 62.0252 213.509 62.2981 213.509 62.662C213.509 63.0259 213.238 63.2988 212.878 63.2988C212.562 63.2988 212.562 63.1624 212.427 63.1624C212.337 63.1624 212.247 63.2079 212.247 63.3443C212.247 63.5262 212.517 63.7082 212.878 63.7082C213.464 63.7082 213.915 63.2534 213.915 62.662C213.915 62.2071 213.599 61.7977 213.148 61.6613L213.779 60.706C214.095 60.7515 214.366 60.797 214.681 60.797C216.755 60.797 218.333 59.2504 218.333 57.1124C218.333 56.885 218.333 56.6121 218.288 56.3846C218.198 55.8843 218.288 55.5659 218.648 55.5659C218.874 55.5659 219.009 55.7023 219.009 55.8843C219.009 56.0208 218.919 56.2026 219.099 56.2026C219.325 56.2026 219.325 55.9297 219.325 55.8388C219.325 55.4294 219.099 55.1564 218.648 55.1564ZM217.476 62.9804C215.493 65.0274 212.562 66.483 209.767 67.8477C207.919 68.7574 206.115 69.6672 204.718 70.7588C203.32 69.6672 201.517 68.7574 199.668 67.8477C196.873 66.483 193.943 65.0274 191.959 62.9804C189.435 60.3876 188.217 57.7493 188.217 54.7471C188.217 52.1997 189.209 50.0617 191.463 47.1961C191.644 46.9686 191.824 46.7412 191.824 46.5591C191.824 46.3773 191.644 46.0133 191.553 45.8314L189.976 42.3742C189.615 41.6009 189.254 40.8732 189.254 40.0999C189.254 39.4631 189.66 39.0082 190.201 38.5533L192.455 36.5062C192.545 36.4153 192.545 36.2789 192.5 36.1878L191.779 34.6868C191.689 34.5048 191.689 34.3684 191.824 34.2773C194.033 32.7762 195.881 32.3213 198.541 31.5936C201.066 30.9113 203.32 30.3198 204.718 29.4102C206.115 30.3198 208.369 30.9113 210.894 31.5936C213.554 32.3213 215.357 32.8673 217.611 34.2773C217.747 34.3684 217.747 34.5048 217.657 34.6868L216.935 36.1878C216.89 36.2789 216.89 36.4153 216.98 36.5062L219.234 38.5533C219.775 39.0082 220.181 39.4631 220.181 40.0999C220.181 40.8732 219.821 41.6009 219.46 42.3742L217.882 45.8314C217.792 46.0133 217.611 46.3773 217.611 46.5591C217.611 46.7412 217.792 46.9686 217.972 47.1961C220.407 49.9253 221.218 52.1997 221.218 54.7471C221.218 57.7493 220.001 60.3876 217.476 62.9804ZM219.595 47.3324C219.189 46.8321 218.964 46.6046 218.964 46.4228C218.964 46.2407 219.099 45.9679 219.234 45.6495L220.587 42.6473C220.993 41.7375 221.353 40.9642 221.353 40.0089C221.353 39.3266 221.083 38.6442 220.407 38.0529L218.468 36.3698C218.288 36.2333 218.288 36.006 218.378 35.824L219.099 34.1864C219.144 34.0955 219.144 33.9589 219.009 33.868C216.8 32.3669 214.275 31.4571 211.886 30.7747C209.496 30.138 206.296 29.2282 204.718 28C203.14 29.2282 199.939 30.0924 197.549 30.7747C195.16 31.4571 192.635 32.3669 190.426 33.868C190.291 33.9589 190.291 34.0955 190.336 34.1864L191.058 35.824C191.148 36.006 191.148 36.2333 190.967 36.3698L189.029 38.0529C188.353 38.6442 188.082 39.3266 188.082 40.0089C188.082 40.9642 188.443 41.7375 188.848 42.6473L190.201 45.6495C190.336 45.9679 190.471 46.2407 190.471 46.4228C190.471 46.6046 190.246 46.8321 189.84 47.3324C187.812 49.8798 187 51.9722 187 54.7471C187 58.6135 188.894 61.5703 191.058 63.7992C193.267 66.0737 196.332 67.5748 199.127 68.9393C200.976 69.8491 202.914 70.7588 204.718 72.2145C206.521 70.7588 208.46 69.8491 210.308 68.9393C213.103 67.5748 216.214 66.0737 218.378 63.7992C220.542 61.5703 222.435 58.6135 222.435 54.7471C222.435 51.9722 221.624 49.8798 219.595 47.3324Z" fill="#1E2044"/>
<rect width="60" height="60" transform="translate(260 20)" fill="#1E2044"/>
<path fill-rule="evenodd" clip-rule="evenodd" d="M293.901 52.9523C293.805 50.8396 293.015 49.5594 292.233 48.7881H292.242C293.279 48.7881 294.722 49.6979 294.722 51.1535C294.722 51.957 294.45 52.5427 293.901 52.9523ZM290.394 56.9986V54.9706C291.143 54.9539 291.822 54.8847 292.428 54.7653C292.135 56.1452 291.372 56.7996 290.394 56.9986ZM287.564 54.6352C287.946 54.769 288.421 54.8772 289.041 54.933V56.957C288.294 56.6913 287.649 55.9359 287.564 54.6352ZM287.554 48.7881H289.041V53.6827C288.486 53.609 287.993 53.4741 287.554 53.2949V48.7881ZM285.209 45.513C285.209 44.7793 285.544 44.144 286.201 43.6855V47.273C285.572 46.9095 285.209 46.2419 285.209 45.513ZM289.041 39.8574V41.6958C288.543 41.7099 288.062 41.7633 287.608 41.8539C287.772 40.9392 288.298 40.18 289.041 39.8574ZM291.94 42.1426C291.525 41.9966 291.02 41.8483 290.394 41.7634V39.7767C291.119 40.0151 291.731 40.7615 291.94 42.1426ZM290.394 47.4998V42.9959C290.959 43.0747 291.503 43.213 292.015 43.4005C291.962 45.3475 290.976 47.1529 290.394 47.4998ZM287.554 43.1087C287.99 43.0034 288.486 42.9397 289.041 42.9241V47.5599H287.554V43.1087ZM292.557 53.5207C291.961 53.6576 291.241 53.7277 290.394 53.7427V48.8004C291.012 48.943 292.558 50.4437 292.558 53.3824C292.558 53.429 292.558 53.4751 292.557 53.5207ZM292.017 47.5599H291.949C292.626 46.7174 293.165 45.3831 293.323 44.0266C293.798 44.3145 294.225 44.6473 294.587 45.0126C294.767 45.1946 294.857 45.2855 294.992 45.2855C295.263 45.2855 295.398 45.0581 295.263 44.8306C294.902 44.2393 294.767 43.7389 294.767 43.1021C294.767 42.6927 294.902 42.3288 294.992 42.1013C295.083 41.8739 294.992 41.6464 294.722 41.6464C294.496 41.6464 294.451 41.8284 294.361 41.9649C294.188 42.2706 293.848 42.5336 293.343 42.5542C293.148 40.0961 291.902 38.8923 290.618 38.5602C291.079 37.4522 292.222 36.7721 293.73 36.4608C293.956 36.4153 294.136 36.3244 294.136 36.1424C294.136 35.915 293.956 35.824 293.73 35.824C293.234 35.824 292.513 36.0969 291.927 36.2789C291.025 36.5518 290.259 36.7337 289.582 36.7337C288.14 36.7337 286.877 36.0969 286.472 36.0969C286.291 36.0969 286.156 36.2333 286.156 36.4153C286.156 36.5518 286.246 36.6882 286.517 36.7793C287.715 37.1715 288.495 37.7984 288.839 38.6434C288.127 38.9072 287.536 39.4437 287.132 40.1447C286.653 39.1687 286.045 38.7353 285.164 38.7353C284.308 38.7353 283.631 39.372 283.631 40.1453C283.631 40.6911 283.992 41.1006 284.398 41.1006C284.578 41.1006 284.668 41.0097 284.668 40.8732C284.668 40.6911 284.578 40.6457 284.578 40.3728C284.578 40.0999 284.804 39.8724 285.164 39.8724C285.705 39.8724 286.201 40.4183 286.201 41.9193V42.2932C284.783 42.9269 283.857 44.0437 283.857 45.5584C283.857 47.1145 284.874 48.2782 286.201 48.6564V52.494C285.19 51.6727 284.623 50.6111 284.263 49.8344C284.173 49.6524 284.082 49.4249 283.857 49.4249C283.586 49.4249 283.496 49.6979 283.631 50.0163C283.767 50.3347 283.857 50.8351 283.857 51.2899C283.857 51.8359 283.677 52.3362 283.316 52.7001C283.136 52.882 283 53.0184 283 53.155C283 53.3369 283.136 53.4279 283.271 53.4279C283.541 53.4279 283.857 53.1095 284.443 53.1095C284.804 53.1095 285.254 53.2915 285.976 53.7464C286.052 53.7913 286.126 53.8394 286.201 53.8896V54.4286V55.0655C286.201 55.7023 285.931 56.1117 285.39 56.1117C285.029 56.1117 284.804 55.8388 284.804 55.4748C284.804 55.2019 284.984 55.111 284.984 54.9746C284.984 54.838 284.894 54.7471 284.713 54.7471C284.443 54.7471 283.992 55.1564 283.992 55.8388C283.992 56.4757 284.443 57.249 285.39 57.249C285.926 57.249 286.429 57.0846 286.901 56.6169C287.337 57.3289 288.104 57.9644 288.971 58.1989C288.733 59.4004 287.911 60.3876 286.742 60.3876C286.156 60.3876 285.841 60.0692 285.841 59.6597C285.841 59.3413 286.066 59.1594 286.246 59.0684C286.472 58.9775 286.652 58.9319 286.652 58.659C286.652 58.5226 286.562 58.3406 286.111 58.3406C285.3 58.3406 284.623 59.0684 284.623 59.9328C284.623 60.8879 285.3 61.7977 286.697 61.7977C287.888 61.7977 288.925 61.2084 289.581 60.4653C290.352 61.094 291.527 61.6157 292.107 61.6157C292.287 61.6157 292.468 61.5248 292.468 61.3428C292.468 61.1608 292.287 61.0244 292.107 60.9335C291.07 60.3876 290.394 59.6143 290.394 58.2497V58.2271C292.004 57.9244 293.509 56.6076 293.842 54.3418C295.307 53.7137 296.074 52.6313 296.074 51.1535C296.074 49.0155 294.091 47.5599 292.017 47.5599ZM299.681 60.3876C298.103 60.3876 297.066 59.4779 297.066 58.1132C297.066 56.976 297.833 56.0662 298.734 56.0662C299.095 56.0662 299.411 56.2026 299.411 56.5666C299.411 56.7941 299.32 56.976 299.546 56.976C299.681 56.976 299.816 56.8395 299.816 56.4757C299.816 56.0208 299.411 55.6568 298.824 55.6568H298.689C298.779 55.4748 298.779 55.2929 298.779 55.2475C298.779 54.838 298.464 54.6106 298.148 54.6106C297.833 54.6106 297.517 54.7926 297.517 55.02C297.517 55.111 297.562 55.1564 297.652 55.1564C297.788 55.1564 297.833 55.02 298.058 55.02C298.238 55.02 298.374 55.111 298.374 55.3384C298.374 55.6568 298.103 55.7933 297.878 55.9297C297.156 56.3392 296.661 57.1579 296.661 58.1132C296.661 59.3868 297.382 60.2057 298.419 60.5695L297.742 61.6157C296.841 61.6157 296.39 62.2981 295.578 63.7537C295.488 63.3897 295.218 63.1168 294.767 63.1168C294.271 63.1168 293.956 63.4808 293.956 63.9811C293.956 64.1177 294.046 64.2086 294.136 64.2086C294.271 64.2086 294.361 64.1177 294.361 63.9811C294.361 63.7537 294.496 63.5262 294.767 63.5262C295.083 63.5262 295.218 63.7537 295.218 64.0266C295.218 64.345 295.173 64.527 294.947 64.8909C294.001 66.4375 292.693 67.2108 291.566 67.2108C290.574 67.2108 289.988 66.6195 289.988 66.0281C289.988 65.4823 290.304 65.0274 290.845 65.0274C291.205 65.0274 291.431 65.2548 291.431 65.5732C291.431 65.8462 291.205 65.8462 291.205 65.9826C291.205 66.0737 291.296 66.1191 291.386 66.1191C291.656 66.1191 291.837 65.8006 291.837 65.4823C291.837 64.9819 291.431 64.618 290.845 64.618C290.304 64.618 289.853 64.9819 289.718 65.3457C289.582 64.9819 289.132 64.618 288.591 64.618C288.005 64.618 287.599 64.9819 287.599 65.4823C287.599 65.8006 287.779 66.1191 288.05 66.1191C288.14 66.1191 288.23 66.0737 288.23 65.9826C288.23 65.8462 288.005 65.8462 288.005 65.5732C288.005 65.2548 288.23 65.0274 288.591 65.0274C289.132 65.0274 289.447 65.4823 289.447 66.0281C289.447 66.6195 288.861 67.2108 287.869 67.2108C286.742 67.2108 285.435 66.4375 284.488 64.8909C284.263 64.527 284.218 64.345 284.218 64.0266C284.218 63.7537 284.353 63.5262 284.668 63.5262C284.939 63.5262 285.074 63.7537 285.074 63.9811C285.074 64.1177 285.164 64.2086 285.3 64.2086C285.39 64.2086 285.48 64.1177 285.48 63.9811C285.48 63.4808 285.164 63.1168 284.668 63.1168C284.218 63.1168 283.947 63.3897 283.857 63.7537C283.045 62.2981 282.595 61.6157 281.693 61.6157L281.017 60.5695C282.054 60.2057 282.775 59.3868 282.775 58.1132C282.775 57.1579 282.279 56.3392 281.558 55.9297C281.332 55.7933 281.062 55.6568 281.062 55.3384C281.062 55.111 281.197 55.02 281.377 55.02C281.603 55.02 281.648 55.1564 281.783 55.1564C281.873 55.1564 281.918 55.111 281.918 55.02C281.918 54.7926 281.603 54.6106 281.287 54.6106C280.972 54.6106 280.656 54.838 280.656 55.2475C280.656 55.2929 280.656 55.4748 280.746 55.6568H280.611C280.025 55.6568 279.619 56.0208 279.619 56.4757C279.619 56.8395 279.754 56.976 279.89 56.976C280.115 56.976 280.025 56.7941 280.025 56.5666C280.025 56.2026 280.34 56.0662 280.701 56.0662C281.603 56.0662 282.369 56.976 282.369 58.1132C282.369 59.4779 281.332 60.3876 279.754 60.3876C277.906 60.3876 276.508 59.023 276.508 57.1124C276.508 55.2475 277.59 53.9737 278.808 52.8366L279.845 51.8359C281.152 50.6077 281.693 49.334 281.693 47.7419C281.693 46.0133 280.656 44.1028 278.492 43.1475C278.943 43.0111 279.213 42.5562 279.213 42.0104C279.213 41.6464 279.078 41.4191 279.078 41.146C279.078 40.6002 279.394 40.2818 279.845 40.2818C280.25 40.2818 280.521 40.6002 280.521 40.9186C280.521 41.1915 280.34 41.419 280.025 41.419C279.89 41.419 279.799 41.419 279.799 41.5555C279.799 41.692 279.935 41.7375 280.115 41.7375C280.656 41.7375 280.927 41.2826 280.927 41.0551C281.017 41.1006 281.107 41.146 281.242 41.146C281.558 41.146 281.783 40.9186 281.783 40.6002C281.783 40.5093 281.738 40.3728 281.603 40.3728C281.513 40.3728 281.468 40.4638 281.468 40.5548C281.468 40.6911 281.377 40.7822 281.242 40.7822C281.062 40.7822 280.927 40.6457 280.836 40.4638C280.656 40.1453 280.295 39.8724 279.845 39.8724C279.258 39.8724 278.808 40.2818 278.717 40.8277C278.447 40.5548 278.131 40.2818 277.68 40.0089C278.041 39.7815 278.357 39.5995 278.717 39.3266C279.258 38.9171 279.754 38.4622 280.295 37.8709L282.775 35.1417C284.939 32.7308 286.336 32.1394 287.689 32.1394C288.861 32.1394 289.447 32.7308 289.447 33.4131C289.447 33.9133 289.234 34.2845 288.896 34.4678C288.704 34.2716 288.563 34.0036 288.5 33.686C288.455 33.4586 288.41 33.4586 288.365 33.4586C288.275 33.4586 288.275 33.5496 288.275 33.6406C288.275 34.0296 288.367 34.3433 288.518 34.5863C288.468 34.5924 288.417 34.5958 288.365 34.5958C287.914 34.5958 287.644 34.3684 287.644 34.0955C287.644 34.05 287.644 33.9589 287.734 33.868C287.824 33.7771 287.779 33.7315 287.734 33.7315C287.554 33.7315 287.373 33.9589 287.373 34.2319C287.373 34.5504 287.644 35.0053 288.41 35.0053C288.524 35.0053 288.674 34.9907 288.836 34.9415C289.091 35.138 289.404 35.2326 289.718 35.2326C290.031 35.2326 290.345 35.138 290.599 34.9415C290.761 34.9907 290.912 35.0053 291.025 35.0053C291.792 35.0053 292.062 34.5504 292.062 34.2319C292.062 33.9589 291.882 33.7315 291.701 33.7315C291.656 33.7315 291.611 33.7771 291.701 33.868C291.792 33.9589 291.792 34.05 291.792 34.0955C291.792 34.3684 291.521 34.5958 291.07 34.5958C291.018 34.5958 290.967 34.5924 290.918 34.5863C291.068 34.3433 291.16 34.0296 291.16 33.6406C291.16 33.5496 291.16 33.4586 291.07 33.4586C291.025 33.4586 290.98 33.4586 290.935 33.686C290.872 34.0036 290.731 34.2716 290.539 34.4678C290.201 34.2845 289.988 33.9133 289.988 33.4131C289.988 32.7308 290.574 32.1394 291.746 32.1394C293.099 32.1394 294.496 32.7308 296.661 35.1417L299.14 37.8709C299.636 38.4622 300.177 38.9171 300.718 39.3266C301.079 39.5995 301.394 39.7815 301.755 40.0089C301.304 40.2818 300.988 40.5548 300.718 40.8277C300.628 40.2818 300.177 39.8724 299.591 39.8724C299.14 39.8724 298.779 40.1453 298.599 40.4638C298.509 40.6457 298.374 40.7822 298.193 40.7822C298.058 40.7822 297.968 40.6911 297.968 40.5548C297.968 40.4638 297.923 40.3728 297.833 40.3728C297.697 40.3728 297.652 40.5093 297.652 40.6002C297.652 40.9186 297.878 41.146 298.193 41.146C298.328 41.146 298.419 41.1006 298.509 41.0551C298.509 41.2826 298.779 41.7375 299.32 41.7375C299.501 41.7375 299.636 41.692 299.636 41.5555C299.636 41.419 299.546 41.419 299.411 41.419C299.095 41.419 298.915 41.2371 298.915 40.9186C298.915 40.6002 299.185 40.2818 299.591 40.2818C300.042 40.2818 300.357 40.6002 300.357 41.146C300.357 41.4191 300.222 41.6464 300.222 42.0104C300.222 42.5562 300.493 43.0111 300.943 43.1475C298.779 44.1028 297.742 46.0133 297.742 47.7419C297.742 49.334 298.283 50.6077 299.591 51.8359L300.628 52.8366C301.845 53.9737 302.927 55.2475 302.927 57.1124C302.927 59.023 301.529 60.3876 299.681 60.3876ZM289.718 68.8484C289.357 68.1206 288.951 67.6657 288.771 67.4383C289.222 67.2563 289.537 66.9379 289.718 66.5739C289.898 66.9379 290.214 67.2563 290.664 67.4383C290.484 67.6657 290.078 68.1206 289.718 68.8484ZM290.174 34.7252C290.032 34.7888 289.878 34.8232 289.718 34.8232C289.557 34.8232 289.403 34.7888 289.262 34.7252C289.438 34.5908 289.601 34.3941 289.718 34.1104C289.835 34.3941 289.997 34.5908 290.174 34.7252ZM303.648 55.1564C303.378 55.1564 303.152 55.2929 303.062 55.4748C302.702 54.6561 302.341 53.8828 300.763 52.4271C300.853 52.4726 301.169 52.5182 301.394 52.5182C301.89 52.5182 302.431 52.3817 302.747 52.0633C302.837 52.3817 303.107 52.5636 303.423 52.5636C303.919 52.5636 304.099 52.2452 304.099 51.8813C304.099 51.7448 304.054 51.6084 303.919 51.6084C303.648 51.6084 303.874 52.1542 303.423 52.1542C303.243 52.1542 303.107 52.0177 303.107 51.7904C303.107 51.5629 303.243 51.2899 303.243 50.9715C303.243 50.2437 302.792 49.7433 302.251 49.6069C301.935 49.5159 301.755 49.2884 301.755 49.0155C301.755 48.6517 302.025 48.6062 302.206 48.6062C302.386 48.6062 302.521 48.6517 302.521 48.5151C302.521 48.3787 302.386 48.2877 302.116 48.2877C301.8 48.2877 301.349 48.5151 301.349 49.0155C301.349 49.1975 301.394 49.3795 301.575 49.5615C301.169 49.6524 300.808 49.9708 300.808 50.4712C300.808 50.7895 300.898 51.108 301.124 51.108C301.394 51.108 301.169 50.8806 301.169 50.5166C301.169 50.1073 301.529 49.9253 301.89 49.9253C302.386 49.9253 302.837 50.3802 302.837 50.9715C302.837 51.6538 302.296 52.1087 301.439 52.1087C300.943 52.1087 300.222 52.0177 299.636 51.3355C298.689 50.2892 298.148 49.3795 298.148 47.7419C298.148 45.6495 299.636 43.8299 301.8 43.2386C302.251 43.1021 302.611 42.6927 302.611 42.1468C302.611 41.692 302.341 41.3281 301.89 41.3281C301.71 41.3281 301.575 41.3735 301.575 41.51C301.575 41.6464 301.71 41.6464 301.8 41.6464C301.98 41.6464 302.206 41.8284 302.206 42.1468C302.206 42.6017 301.845 42.8746 301.439 42.8746C300.943 42.8746 300.628 42.5107 300.628 42.0104C300.628 41.0551 301.755 40.4183 302.611 40.0089C301.845 39.645 301.575 39.5086 300.988 39.0537C300.853 38.9171 300.808 38.7807 300.808 38.5988C300.808 38.3713 300.943 38.1893 301.124 38.1893C301.259 38.1893 301.349 38.2804 301.349 38.4168C301.349 38.5533 301.259 38.5533 301.259 38.6442C301.259 38.7353 301.304 38.7807 301.394 38.7807C301.484 38.7807 301.71 38.6897 301.71 38.3258C301.71 38.0529 301.529 37.78 301.124 37.78C300.718 37.78 300.402 38.0984 300.402 38.5533C300.087 38.2804 299.726 37.9619 299.411 37.598L297.968 36.006C297.562 35.5511 297.788 34.6868 298.374 34.6868C298.689 34.6868 298.824 34.9142 298.824 35.0962C298.824 35.5055 298.419 35.3236 298.419 35.5511C298.419 35.642 298.464 35.7329 298.599 35.7329C298.915 35.7329 299.23 35.5055 299.23 35.0507C299.23 34.6413 298.87 34.2773 298.374 34.2773C297.788 34.2773 297.382 34.7322 297.382 35.3691L296.931 34.8687C294.947 32.6853 293.324 31.73 291.746 31.73C291.16 31.73 290.619 31.912 290.304 32.1394C290.033 31.8211 289.898 31.5936 289.718 31.3206C289.537 31.5936 289.402 31.8211 289.132 32.1394C288.816 31.912 288.275 31.73 287.689 31.73C286.111 31.73 284.488 32.6853 282.504 34.8687L282.054 35.3691C282.054 34.7322 281.648 34.2773 281.062 34.2773C280.566 34.2773 280.205 34.6413 280.205 35.0507C280.205 35.5055 280.521 35.7329 280.836 35.7329C280.972 35.7329 281.017 35.642 281.017 35.5511C281.017 35.3236 280.611 35.5055 280.611 35.0962C280.611 34.9142 280.746 34.6868 281.062 34.6868C281.648 34.6868 281.873 35.5511 281.468 36.006L280.025 37.598C279.709 37.9619 279.349 38.2804 279.033 38.5533C279.033 38.0984 278.717 37.78 278.312 37.78C277.906 37.78 277.726 38.0529 277.726 38.3258C277.726 38.6897 277.951 38.7807 278.041 38.7807C278.131 38.7807 278.176 38.7353 278.176 38.6442C278.176 38.5533 278.086 38.5533 278.086 38.4168C278.086 38.2804 278.176 38.1893 278.312 38.1893C278.492 38.1893 278.627 38.3713 278.627 38.5988C278.627 38.7807 278.582 38.9171 278.447 39.0537C277.906 39.5995 277.59 39.645 276.824 40.0089C277.68 40.4183 278.808 41.0551 278.808 42.0104C278.808 42.5107 278.492 42.8746 277.996 42.8746C277.59 42.8746 277.23 42.6017 277.23 42.1468C277.23 41.8284 277.455 41.6464 277.635 41.6464C277.726 41.6464 277.861 41.6464 277.861 41.51C277.861 41.3735 277.726 41.3281 277.545 41.3281C277.094 41.3281 276.824 41.692 276.824 42.1468C276.824 42.6927 277.185 43.1021 277.635 43.2386C279.799 43.8753 281.287 45.6495 281.287 47.7419C281.287 49.3795 280.701 50.2437 279.799 51.3355C279.213 52.0177 278.492 52.1087 277.996 52.1087C277.14 52.1087 276.598 51.6538 276.598 50.9715C276.598 50.3802 277.049 49.9253 277.545 49.9253C277.906 49.9253 278.267 50.1073 278.267 50.5166C278.267 50.8806 278.041 51.108 278.312 51.108C278.537 51.108 278.627 50.7895 278.627 50.4712C278.627 49.9708 278.267 49.6524 277.861 49.5615C278.041 49.3795 278.086 49.1975 278.086 49.0155C278.086 48.5151 277.635 48.2877 277.32 48.2877C277.049 48.2877 276.914 48.3787 276.914 48.5151C276.914 48.6517 277.049 48.6062 277.23 48.6062C277.41 48.6062 277.68 48.6517 277.68 49.0155C277.68 49.2884 277.5 49.5159 277.185 49.6069C276.644 49.7433 276.193 50.2437 276.193 50.9715C276.193 51.2899 276.328 51.5629 276.328 51.7904C276.328 52.0177 276.193 52.1542 276.012 52.1542C275.562 52.1542 275.787 51.6084 275.517 51.6084C275.381 51.6084 275.336 51.7448 275.336 51.8813C275.336 52.2452 275.517 52.5636 276.012 52.5636C276.328 52.5636 276.598 52.3817 276.689 52.0633C277.004 52.3817 277.545 52.5182 278.041 52.5182C278.267 52.5182 278.582 52.4726 278.672 52.4271C277.094 53.8828 276.734 54.6561 276.373 55.4748C276.283 55.2929 276.058 55.1564 275.787 55.1564C275.336 55.1564 275.111 55.4294 275.111 55.8388C275.111 55.9297 275.111 56.2026 275.336 56.2026C275.517 56.2026 275.426 56.0208 275.426 55.8843C275.426 55.7023 275.562 55.5659 275.787 55.5659C276.148 55.5659 276.238 55.8843 276.148 56.3846C276.103 56.6121 276.103 56.885 276.103 57.1124C276.103 59.2504 277.68 60.797 279.754 60.797C280.07 60.797 280.34 60.7515 280.656 60.706L281.287 61.6613C280.836 61.7977 280.521 62.2071 280.521 62.662C280.521 63.2534 280.972 63.7082 281.558 63.7082C281.918 63.7082 282.189 63.5262 282.189 63.3443C282.189 63.2079 282.099 63.1624 282.008 63.1624C281.873 63.1624 281.873 63.2988 281.558 63.2988C281.197 63.2988 280.927 63.0259 280.927 62.662C280.927 62.2981 281.242 62.0252 281.693 62.0252C282.549 62.0252 282.955 63.0259 283.541 64.0266L284.127 65.0274C285.074 66.665 286.607 67.6202 287.869 67.6202C288.05 67.6202 288.23 67.6202 288.41 67.5748C288.951 68.1206 289.492 69.1214 289.718 69.5762C289.943 69.1214 290.484 68.1206 291.025 67.5748C291.205 67.6202 291.386 67.6202 291.566 67.6202C292.828 67.6202 294.361 66.665 295.308 65.0274L295.894 64.0266C296.48 63.0259 296.886 62.0252 297.742 62.0252C298.193 62.0252 298.509 62.2981 298.509 62.662C298.509 63.0259 298.238 63.2988 297.878 63.2988C297.562 63.2988 297.562 63.1624 297.427 63.1624C297.337 63.1624 297.247 63.2079 297.247 63.3443C297.247 63.5262 297.517 63.7082 297.878 63.7082C298.464 63.7082 298.915 63.2534 298.915 62.662C298.915 62.2071 298.599 61.7977 298.148 61.6613L298.779 60.706C299.095 60.7515 299.366 60.797 299.681 60.797C301.755 60.797 303.333 59.2504 303.333 57.1124C303.333 56.885 303.333 56.6121 303.288 56.3846C303.198 55.8843 303.288 55.5659 303.648 55.5659C303.874 55.5659 304.009 55.7023 304.009 55.8843C304.009 56.0208 303.919 56.2026 304.099 56.2026C304.325 56.2026 304.325 55.9297 304.325 55.8388C304.325 55.4294 304.099 55.1564 303.648 55.1564ZM302.476 62.9804C300.493 65.0274 297.562 66.483 294.767 67.8477C292.919 68.7574 291.115 69.6672 289.718 70.7588C288.32 69.6672 286.517 68.7574 284.668 67.8477C281.873 66.483 278.943 65.0274 276.959 62.9804C274.435 60.3876 273.217 57.7493 273.217 54.7471C273.217 52.1997 274.209 50.0617 276.463 47.1961C276.644 46.9686 276.824 46.7412 276.824 46.5591C276.824 46.3773 276.644 46.0133 276.553 45.8314L274.976 42.3742C274.615 41.6009 274.254 40.8732 274.254 40.0999C274.254 39.4631 274.66 39.0082 275.201 38.5533L277.455 36.5062C277.545 36.4153 277.545 36.2789 277.5 36.1878L276.779 34.6868C276.689 34.5048 276.689 34.3684 276.824 34.2773C279.033 32.7762 280.881 32.3213 283.541 31.5936C286.066 30.9113 288.32 30.3198 289.718 29.4102C291.115 30.3198 293.369 30.9113 295.894 31.5936C298.554 32.3213 300.357 32.8673 302.611 34.2773C302.747 34.3684 302.747 34.5048 302.657 34.6868L301.935 36.1878C301.89 36.2789 301.89 36.4153 301.98 36.5062L304.234 38.5533C304.775 39.0082 305.181 39.4631 305.181 40.0999C305.181 40.8732 304.821 41.6009 304.46 42.3742L302.882 45.8314C302.792 46.0133 302.611 46.3773 302.611 46.5591C302.611 46.7412 302.792 46.9686 302.972 47.1961C305.407 49.9253 306.218 52.1997 306.218 54.7471C306.218 57.7493 305.001 60.3876 302.476 62.9804ZM304.595 47.3324C304.189 46.8321 303.964 46.6046 303.964 46.4228C303.964 46.2407 304.099 45.9679 304.234 45.6495L305.587 42.6473C305.993 41.7375 306.353 40.9642 306.353 40.0089C306.353 39.3266 306.083 38.6442 305.407 38.0529L303.468 36.3698C303.288 36.2333 303.288 36.006 303.378 35.824L304.099 34.1864C304.144 34.0955 304.144 33.9589 304.009 33.868C301.8 32.3669 299.275 31.4571 296.886 30.7747C294.496 30.138 291.296 29.2282 289.718 28C288.14 29.2282 284.939 30.0924 282.549 30.7747C280.16 31.4571 277.635 32.3669 275.426 33.868C275.291 33.9589 275.291 34.0955 275.336 34.1864L276.058 35.824C276.148 36.006 276.148 36.2333 275.967 36.3698L274.029 38.0529C273.353 38.6442 273.082 39.3266 273.082 40.0089C273.082 40.9642 273.443 41.7375 273.848 42.6473L275.201 45.6495C275.336 45.9679 275.471 46.2407 275.471 46.4228C275.471 46.6046 275.246 46.8321 274.84 47.3324C272.812 49.8798 272 51.9722 272 54.7471C272 58.6135 273.894 61.5703 276.058 63.7992C278.267 66.0737 281.332 67.5748 284.127 68.9393C285.976 69.8491 287.914 70.7588 289.718 72.2145C291.521 70.7588 293.46 69.8491 295.308 68.9393C298.103 67.5748 301.214 66.0737 303.378 63.7992C305.542 61.5703 307.435 58.6135 307.435 54.7471C307.435 51.9722 306.624 49.8798 304.595 47.3324Z" fill="white"/>
</svg>
