<svg width="130" height="60" viewBox="0 0 130 60" fill="none" xmlns="http://www.w3.org/2000/svg">
<rect width="130" height="60" fill="white"/>
<g clip-path="url(#clip0_436_1215)">
<path d="M29.7999 22H21.1589C19.0851 22 17.4062 23.6755 17.4062 25.7451V26.706H25.0844C27.1582 26.706 28.837 28.3815 28.837 30.4512V38.1385H29.7999C31.8737 38.1385 33.5525 36.4631 33.5525 34.3934V25.7451C33.5525 23.6755 31.8737 22 29.7999 22Z" fill="#9C6CFA"/>
<path d="M21.1594 38.1386C20.5175 38.1386 19.9003 37.9661 19.3571 37.6705C19.0609 37.498 18.7893 37.3009 18.5424 37.0792L18.4437 36.9806C18.2215 36.7342 17.9993 36.4632 17.8512 36.1675C17.5549 35.6254 17.3821 35.0095 17.3821 34.3689V30.0817H15.7526C13.6788 30.0817 12 31.7571 12 33.8268V39.7648C12 41.8345 13.6788 43.5099 15.7526 43.5099H21.7026C23.7764 43.5099 25.4552 41.8345 25.4552 39.7648V38.1386H21.1594Z" fill="#2BD9EC"/>
<path d="M22.8636 30.0817H17.3828V34.3935C17.3828 35.0341 17.5556 35.6501 17.8519 36.1922C17.605 35.7486 17.7038 35.2066 18.0494 34.8616L22.8636 30.0817Z" fill="#3F6CFF"/>
<path d="M20.6652 37.4732C20.3196 37.8181 19.7764 37.9167 19.332 37.6703C19.8752 37.966 20.4924 38.1385 21.1343 38.1385H25.4548V32.6932L20.6652 37.4732Z" fill="#3F6CFF"/>
<path d="M38.959 38.1385L44.5879 24.6857H46.6371L52.266 38.1385H49.7231L48.6121 35.4529H42.6129L41.5019 38.1385H38.959ZM43.3535 33.4818H47.8468L45.6001 28.0119L43.3535 33.4818Z" fill="#232D46"/>
<path d="M56.4399 41.859H54.1191V28.4061H56.4399V29.8105C56.6127 29.3424 56.9583 28.9482 57.5262 28.6525C58.0693 28.3568 58.7606 28.209 59.5507 28.209C60.9332 28.209 62.0935 28.7018 63.0317 29.6627C63.9699 30.6236 64.439 31.8309 64.439 33.2846C64.439 34.7383 63.9699 35.921 63.0317 36.9066C62.0935 37.8674 60.9332 38.3602 59.5507 38.3602C58.7606 38.3602 58.0693 38.2124 57.5262 37.9167C56.983 37.621 56.6127 37.2268 56.4399 36.7587V41.859ZM59.2543 30.3033C58.415 30.3033 57.699 30.599 57.1311 31.141C56.5633 31.7077 56.2671 32.4223 56.2671 33.26C56.2671 34.0977 56.5633 34.8122 57.1311 35.3789C57.699 35.9456 58.415 36.2166 59.2543 36.2166C60.0691 36.2166 60.7604 35.921 61.3035 35.3789C61.8467 34.8122 62.1182 34.0977 62.1182 33.26C62.1182 32.4223 61.8467 31.7077 61.3035 31.141C60.7604 30.599 60.0691 30.3033 59.2543 30.3033Z" fill="#232D46"/>
<path d="M68.5864 41.859H66.2656V28.4061H68.5864V29.8105C68.7592 29.3424 69.1048 28.9482 69.6726 28.6525C70.2157 28.3568 70.9071 28.209 71.6973 28.209C73.0797 28.209 74.2399 28.7018 75.1779 29.6627C76.1165 30.6236 76.5853 31.8309 76.5853 33.2846C76.5853 34.7383 76.1165 35.921 75.1779 36.9066C74.2399 37.8674 73.0797 38.3602 71.6973 38.3602C70.9071 38.3602 70.2157 38.2124 69.6726 37.9167C69.1295 37.621 68.7592 37.2268 68.5864 36.7587V41.859ZM71.4008 30.3033C70.5614 30.3033 69.8454 30.599 69.2776 31.141C68.7098 31.7077 68.4135 32.4223 68.4135 33.26C68.4135 34.0977 68.7098 34.8122 69.2776 35.3789C69.8454 35.9456 70.5614 36.2166 71.4008 36.2166C72.2153 36.2166 72.9068 35.921 73.4498 35.3789C73.9933 34.8122 74.2648 34.0977 74.2648 33.26C74.2648 32.4223 73.9933 31.7077 73.4498 31.141C72.9068 30.599 72.2153 30.3033 71.4008 30.3033Z" fill="#232D46"/>
<path d="M78.4121 38.1385V28.4061H80.7076V29.7859C80.9054 29.3177 81.2512 28.9235 81.6955 28.6279C82.1643 28.3322 82.6829 28.1843 83.3001 28.1843C84.6332 28.1843 85.5469 28.7511 86.0406 29.8844C86.5835 28.7511 87.6451 28.1843 89.1761 28.1843C90.2377 28.1843 91.0521 28.5293 91.6201 29.2192C92.188 29.9091 92.4844 30.87 92.4844 32.0773V35.1572C92.4844 35.5268 92.5337 35.7978 92.608 35.9456C92.7066 36.0934 92.8795 36.1674 93.126 36.1674C93.2496 36.1674 93.3482 36.1427 93.4468 36.1181V38.0646C93.2247 38.1385 92.8795 38.1878 92.4351 38.1878C90.9042 38.1878 90.1634 37.35 90.1634 35.65V32.4469C90.1634 31.7816 90.0155 31.2395 89.719 30.87C89.4232 30.4757 89.0032 30.3033 88.4602 30.3033C87.9166 30.3033 87.4723 30.5251 87.1271 30.9439C86.7814 31.3627 86.5835 31.9048 86.5835 32.5701V38.1631H84.3374V32.4469C84.3374 31.7816 84.1888 31.2395 83.8924 30.87C83.5966 30.4757 83.1522 30.3033 82.6086 30.3033C82.0656 30.3033 81.6213 30.5251 81.2512 30.9439C80.8805 31.3627 80.7076 31.9048 80.7076 32.5701V38.1631H78.4121V38.1385Z" fill="#232D46"/>
<path d="M96.0402 36.9066C95.1021 35.921 94.6328 34.7137 94.6328 33.2846C94.6328 31.8555 95.1021 30.6483 96.0402 29.6627C96.9782 28.7018 98.139 28.209 99.5214 28.209C100.312 28.209 100.978 28.3568 101.521 28.6771C102.064 28.9975 102.435 29.367 102.632 29.8351V28.4061H104.953V35.2064C104.953 35.6253 105.002 35.921 105.125 36.0934C105.224 36.2659 105.422 36.3645 105.669 36.3645C105.817 36.3645 105.965 36.3398 106.163 36.3152V38.1878C105.915 38.2863 105.52 38.3356 105.027 38.3356C104.484 38.3356 104.014 38.237 103.669 38.0153C103.249 37.7196 102.978 37.35 102.879 36.8326C102.188 37.8428 101.077 38.3602 99.5214 38.3602C98.1141 38.3849 96.9538 37.8921 96.0402 36.9066ZM97.7439 31.1657C97.2004 31.7323 96.9289 32.4469 96.9289 33.2846C96.9289 34.1224 97.2004 34.8369 97.7439 35.4036C98.2869 35.9702 98.9784 36.2413 99.7929 36.2413C100.632 36.2413 101.348 35.9456 101.916 35.4036C102.484 34.8369 102.78 34.1224 102.78 33.2846C102.78 32.4469 102.484 31.7323 101.916 31.1657C101.348 30.599 100.632 30.3279 99.7929 30.3279C98.9784 30.3033 98.3113 30.599 97.7439 31.1657Z" fill="#232D46"/>
<path d="M107.025 38.1385L110.728 33.0136L107.371 28.4061H109.889L112.012 31.3135L114.111 28.4061H116.653L113.296 32.989L116.999 38.1385H114.506L112.037 34.7137L109.568 38.1385H107.025Z" fill="#232D46"/>
</g>
<defs>
<clipPath id="clip0_436_1215">
<rect width="105" height="22" fill="white" transform="translate(12 22)"/>
</clipPath>
</defs>
</svg>
