<svg width="130" height="60" viewBox="0 0 130 60" fill="none" xmlns="http://www.w3.org/2000/svg">
<rect width="130" height="60" fill="white"/>
<path fill-rule="evenodd" clip-rule="evenodd" d="M20.6844 36.9571C20.6844 37.3112 20.3985 37.5977 20.046 37.5977C19.6937 37.5977 19.4075 37.3112 19.4075 36.9571C19.4075 33.474 16.5822 30.6402 13.1096 30.6402C12.7572 30.6402 12.4714 30.3537 12.4714 30C12.4714 29.6463 12.7572 29.3598 13.1096 29.3598C16.5822 29.3598 19.4075 26.5258 19.4075 23.0426C19.4075 22.6891 19.6937 22.4023 20.046 22.4023C20.3985 22.4023 20.6844 22.6891 20.6844 23.0426C20.6844 26.5258 23.5095 29.3598 26.9819 29.3598H30.9132C30.5813 23.5913 25.799 19 19.9667 19C13.9196 19 9 23.9347 9 30C9 36.0655 13.9196 41 19.9667 41C25.799 41 30.5813 36.4089 30.9132 30.6402H26.9819C23.5095 30.6402 20.6844 33.474 20.6844 36.9571Z" fill="black"/>
<path fill-rule="evenodd" clip-rule="evenodd" d="M96.9449 26.1746C96.9449 25.1744 96.6642 24.4434 96.1013 23.9818C95.539 23.5204 94.7374 23.2896 93.6978 23.2896H92.859V29.5669H93.6661C94.7057 29.5669 95.5128 29.2957 96.0861 28.753C96.6586 28.2108 96.9449 27.3512 96.9449 26.1746ZM104.28 37.3239H98.5819C98.464 37.3239 98.3529 37.2629 98.2881 37.1644C97.3375 35.7171 96.5434 34.5586 95.906 33.6885C95.2452 32.7869 94.4229 31.744 93.4405 30.5607H92.8583V35.1154C92.8583 35.3688 92.9059 35.5839 93.0018 35.7599C93.097 35.9361 93.2791 36.0841 93.5481 36.204C93.6827 36.2603 93.8931 36.3186 94.18 36.3783L94.6388 36.4739C94.8009 36.5081 94.9175 36.6507 94.9175 36.8158V37.3239H86.4648V36.832C86.4648 36.645 86.6056 36.4872 86.7925 36.4658L87.6948 36.41C88.0315 36.3711 88.2702 36.3235 88.4116 36.2672C88.6799 36.1546 88.8607 36.012 88.9531 35.8392C89.0449 35.6665 89.0904 35.4467 89.0904 35.1788V24.6003C89.0904 24.3466 89.0518 24.1352 88.9738 23.9661C88.8959 23.797 88.7082 23.6493 88.4116 23.5225C88.1846 23.431 87.9177 23.3534 87.61 23.2899L87.163 23.1978C87.0002 23.1641 86.8829 23.0213 86.8829 22.8561V22.3284H95.3314C97.2202 22.3284 98.6544 22.6223 99.6346 23.2105C100.615 23.799 101.105 24.6885 101.105 25.8789C101.105 26.929 100.802 27.7726 100.198 28.41C99.5925 29.0478 98.6709 29.5461 97.4327 29.9054C97.9135 30.5253 98.4743 31.244 99.1145 32.0613C99.7547 32.8786 100.422 33.7133 101.115 34.5658C101.334 34.8405 101.634 35.177 102.013 35.5747C102.391 35.9729 102.844 36.2178 103.134 36.3092C103.296 36.3588 103.61 36.4011 103.861 36.4363L103.962 36.4506C104.145 36.4763 104.28 36.6319 104.28 36.8155V37.3239Z" fill="black"/>
<path fill-rule="evenodd" clip-rule="evenodd" d="M54.4496 33.0784C53.7627 34.1666 53.0014 34.9789 52.1658 35.516C51.3299 36.0531 50.5552 36.442 49.4868 36.442C48.7541 36.442 48.137 36.3018 47.5341 36.0506C46.9311 35.7991 46.3551 35.3558 45.9107 34.8191C45.5579 34.393 45.3148 33.8935 45.1108 33.3827C44.8997 32.854 44.7719 32.2887 44.4413 31.8152C44.1448 31.3903 43.7551 31.0262 43.3028 30.7625C43.0307 30.6037 42.7362 30.4818 42.4286 30.4053C42.1471 30.3355 41.8496 30.3139 41.547 30.3124C41.3573 30.3117 41.1792 30.2055 41.1299 30.0364C41.0554 29.7798 41.2626 29.5485 41.5275 29.5485C41.5399 29.5485 41.5522 29.5485 41.5645 29.5485C42.3727 29.5416 43.1621 29.2272 43.7821 28.7142C45.0114 27.6974 44.8625 26.0448 45.6474 24.7827C46.2657 23.7874 47.4864 23.0259 48.9211 23.0259C50.0734 23.0259 51.0502 23.419 51.8513 24.2048C52.6146 24.9533 53.274 26.1063 53.8294 27.6639C53.8795 27.8043 54.0139 27.9012 54.1664 27.9012H54.9206V22.4112H53.9504C53.8663 22.4112 53.7851 22.4402 53.7206 22.4928L53.0139 23.1179C52.7662 22.9883 51.9845 22.3945 50.8103 22.013C49.4443 21.5693 48.1318 21.5275 46.9468 21.7072C44.819 22.03 42.5733 23.4192 41.3669 25.2775C40.4304 26.7193 39.959 28.1486 39.959 30.0829C39.959 33.1544 41.7953 35.182 42.4557 35.7996C43.0925 36.3953 44.2804 37.2691 45.3197 37.6264C46.3585 37.9836 47.3663 38.1416 48.5582 38.1416C49.5515 38.1416 50.4189 37.8794 51.1351 37.6201C53.8257 36.645 55.0641 34.5338 55.3674 34.0444C55.4702 33.8785 55.4203 33.6625 55.2513 33.5609L54.4496 33.0784Z" fill="black"/>
<path fill-rule="evenodd" clip-rule="evenodd" d="M69.0648 33.6187C69.1836 33.18 69.2606 32.8865 69.2606 32.8865C69.2729 32.6854 69.1132 32.5158 68.912 32.5158H68.1723C67.9465 33.0585 67.0788 35.209 66.7319 35.5773C66.4007 35.9283 65.9308 36.0472 65.4773 36.1465C64.9109 36.2706 64.3475 36.3658 63.7653 36.3609C63.2685 36.3572 62.6598 36.3373 62.2378 36.0455C62.0542 35.9186 61.931 35.7215 61.8675 35.4536C61.804 35.1859 61.772 34.8197 61.772 34.3544V24.4948C61.772 24.2483 61.818 24.0281 61.9099 23.8344C62.0014 23.6407 62.1849 23.4979 62.4597 23.4064C62.6854 23.3361 62.9519 23.2813 63.2584 23.2425L63.7515 23.1806C63.9262 23.1584 64.0571 23.0102 64.0571 22.8342V22.3284H55.8164V22.8539C55.8164 23.021 55.935 23.1646 56.0991 23.1965L56.5518 23.2848C56.8587 23.3448 57.1212 23.4241 57.3399 23.5227C57.6362 23.6564 57.8229 23.8064 57.9004 23.9718C57.978 24.1375 58.0171 24.3469 58.0171 24.6005V35.1791C58.0171 35.4536 57.9674 35.6792 57.8687 35.8552C57.77 36.0312 57.5939 36.1689 57.3399 36.2672C57.2342 36.3095 57.0154 36.3537 56.6842 36.3994C56.4822 36.4275 56.2962 36.4506 56.1261 36.4695C55.9488 36.4889 55.8164 36.6376 55.8164 36.8158V37.3241H64.6932H65.588H67.8074L69.0648 33.6187Z" fill="black"/>
<path fill-rule="evenodd" clip-rule="evenodd" d="M74.5999 31.3405L76.7404 25.9953L78.9129 31.3405H74.5999ZM86.3673 36.4646L86.0921 36.4056C85.8306 36.35 85.6016 36.2667 85.4043 36.1553C85.1436 36.0027 84.9421 35.8412 84.8014 35.6709C84.6607 35.5008 84.5441 35.3112 84.4523 35.1029C83.9025 33.8247 83.2361 32.213 82.4532 30.2675C81.902 28.8983 80.2629 24.9036 79.5469 23.1592C79.689 23.1135 79.7911 22.9861 79.7911 22.8325V22.3269H78.8156H77.9157H77.0897C76.0952 24.689 75.1872 26.8496 74.3657 28.8086C73.5441 30.7676 72.7243 32.7235 71.9062 34.6756C71.7721 35.0092 71.6045 35.2975 71.4037 35.5406C71.2025 35.7837 70.9574 35.9887 70.6685 36.1553C70.4992 36.2598 70.2682 36.3414 69.9756 36.4001L69.4681 36.5022C69.3046 36.5349 69.1875 36.6782 69.1875 36.8443V37.3227H75.3442L75.3439 36.8254C75.3439 36.6485 75.2099 36.4985 75.0339 36.4791C74.3984 36.409 73.9329 36.3063 73.6371 36.1708C73.2954 36.0147 73.1246 35.8255 73.1246 35.6031C73.1246 35.5337 73.1369 35.4121 73.1618 35.2383C73.1863 35.0647 73.2653 34.7833 73.3984 34.3942C73.5038 34.0956 73.628 33.7551 73.7717 33.3732C73.9156 32.9912 74.047 32.6574 74.1664 32.3725H79.3482L80.6292 35.4364C80.6789 35.5546 80.7086 35.6483 80.7189 35.7178C80.7299 35.7871 80.7355 35.8498 80.7355 35.9051C80.7355 36.0654 80.4782 36.1991 79.9642 36.3065C79.5821 36.3867 79.2371 36.4449 78.9288 36.4806C78.7536 36.501 78.6239 36.6499 78.6239 36.8259V37.3227H86.6433V36.8057C86.6433 36.6411 86.5288 36.4987 86.3673 36.4646Z" fill="black"/>
<path fill-rule="evenodd" clip-rule="evenodd" d="M109.379 31.3405L111.52 25.9953L113.692 31.3405H109.379ZM121.147 36.4646L120.871 36.4056C120.61 36.35 120.381 36.2667 120.184 36.1553C119.923 36.0027 119.721 35.8412 119.581 35.6709C119.44 35.5008 119.323 35.3112 119.232 35.1029C118.682 33.8247 118.015 32.213 117.232 30.2675C116.681 28.8983 115.043 24.9036 114.327 23.1592C114.468 23.1135 114.57 22.9861 114.57 22.8325V22.3269H113.595H112.695H111.869C110.874 24.689 109.966 26.8496 109.145 28.8086C108.323 30.7676 107.504 32.7235 106.685 34.6756C106.552 35.0092 106.384 35.2975 106.183 35.5406C105.982 35.7837 105.737 35.9887 105.448 36.1553C105.279 36.2598 105.048 36.3414 104.755 36.4001L104.248 36.5022C104.084 36.5349 103.967 36.6782 103.967 36.8443V37.3227H110.124V36.8254C110.124 36.6485 109.989 36.4985 109.813 36.4791C109.178 36.409 108.712 36.3063 108.417 36.1708C108.075 36.0147 107.904 35.8255 107.904 35.6031C107.904 35.5337 107.916 35.4121 107.941 35.2383C107.966 35.0647 108.044 34.7833 108.178 34.3942C108.283 34.0956 108.407 33.7551 108.551 33.3732C108.695 32.9912 108.826 32.6574 108.945 32.3725H114.127L115.409 35.4364C115.458 35.5546 115.488 35.6483 115.499 35.7178C115.509 35.7871 115.515 35.8498 115.515 35.9051C115.515 36.0654 115.257 36.1991 114.744 36.3065C114.361 36.3867 114.016 36.4449 113.708 36.4806C113.533 36.501 113.403 36.6499 113.403 36.8259V37.3227H121.423V36.8057C121.423 36.6411 121.308 36.4987 121.147 36.4646Z" fill="black"/>
</svg>
